<?xml version="1.0" encoding="utf-8" standalone="no"?>
<!DOCTYPE svg PUBLIC "-//W3C//DTD SVG 1.1//EN"
  "http://www.w3.org/Graphics/SVG/1.1/DTD/svg11.dtd">
<!-- Created with matplotlib (http://matplotlib.org/) -->
<svg height="345.6pt" version="1.1" viewBox="0 0 460.8 345.6" width="460.8pt" xmlns="http://www.w3.org/2000/svg" xmlns:xlink="http://www.w3.org/1999/xlink">
 <defs>
  <style type="text/css">
*{stroke-linecap:butt;stroke-linejoin:round;}
  </style>
 </defs>
 <g id="figure_1">
  <g id="patch_1">
   <path d="M 0 345.6 
L 460.8 345.6 
L 460.8 0 
L 0 0 
z
" style="fill:#ffffff;"/>
  </g>
  <g id="axes_1">
   <g id="patch_2">
    <path d="M 38.27 303.64 
L 446.57502 303.64 
L 446.57502 21.72 
L 38.27 21.72 
z
" style="fill:#ffffff;"/>
   </g>
   <g id="patch_3">
    <path clip-path="url(#pb6dd3a40aa)" d="M 450.91869 303.64 
L 459.606031 303.64 
L 459.606031 214.475537 
L 450.91869 214.475537 
z
" style="fill:#1f77b4;opacity:0.3;"/>
   </g>
   <g id="patch_4">
    <path clip-path="url(#pb6dd3a40aa)" d="M 442.231349 303.64 
L 450.91869 303.64 
L 450.91869 219.9857 
L 442.231349 219.9857 
z
" style="fill:#1f77b4;opacity:0.3;"/>
   </g>
   <g id="patch_5">
    <path clip-path="url(#pb6dd3a40aa)" d="M 433.544008 303.64 
L 442.231349 303.64 
L 442.231349 226.831661 
L 433.544008 226.831661 
z
" style="fill:#1f77b4;opacity:0.3;"/>
   </g>
   <g id="patch_6">
    <path clip-path="url(#pb6dd3a40aa)" d="M 424.856668 303.64 
L 433.544008 303.64 
L 433.544008 232.258337 
L 424.856668 232.258337 
z
" style="fill:#1f77b4;opacity:0.3;"/>
   </g>
   <g id="patch_7">
    <path clip-path="url(#pb6dd3a40aa)" d="M 416.169327 303.64 
L 424.856668 303.64 
L 424.856668 245.491078 
L 416.169327 245.491078 
z
" style="fill:#1f77b4;opacity:0.3;"/>
   </g>
   <g id="patch_8">
    <path clip-path="url(#pb6dd3a40aa)" d="M 407.481986 303.64 
L 416.169327 303.64 
L 416.169327 279.553907 
L 407.481986 279.553907 
z
" style="fill:#1f77b4;opacity:0.3;"/>
   </g>
   <g id="patch_9">
    <path clip-path="url(#pb6dd3a40aa)" d="M 398.794645 303.64 
L 407.481986 303.64 
L 407.481986 292.70316 
L 398.794645 292.70316 
z
" style="fill:#1f77b4;opacity:0.3;"/>
   </g>
   <g id="patch_10">
    <path clip-path="url(#pb6dd3a40aa)" d="M 390.107304 303.64 
L 398.794645 303.64 
L 398.794645 290.595105 
L 390.107304 290.595105 
z
" style="fill:#1f77b4;opacity:0.3;"/>
   </g>
   <g id="patch_11">
    <path clip-path="url(#pb6dd3a40aa)" d="M 381.419963 303.64 
L 390.107304 303.64 
L 390.107304 291.743056 
L 381.419963 291.743056 
z
" style="fill:#1f77b4;opacity:0.3;"/>
   </g>
   <g id="patch_12">
    <path clip-path="url(#pb6dd3a40aa)" d="M 372.732623 303.64 
L 381.419963 303.64 
L 381.419963 289.676745 
L 372.732623 289.676745 
z
" style="fill:#1f77b4;opacity:0.3;"/>
   </g>
   <g id="patch_13">
    <path clip-path="url(#pb6dd3a40aa)" d="M 364.045282 303.64 
L 372.732623 303.64 
L 372.732623 291.910031 
L 364.045282 291.910031 
z
" style="fill:#1f77b4;opacity:0.3;"/>
   </g>
   <g id="patch_14">
    <path clip-path="url(#pb6dd3a40aa)" d="M 355.357941 303.64 
L 364.045282 303.64 
L 364.045282 292.494442 
L 355.357941 292.494442 
z
" style="fill:#1f77b4;opacity:0.3;"/>
   </g>
   <g id="patch_15">
    <path clip-path="url(#pb6dd3a40aa)" d="M 346.6706 303.64 
L 355.357941 303.64 
L 355.357941 292.431827 
L 346.6706 292.431827 
z
" style="fill:#1f77b4;opacity:0.3;"/>
   </g>
   <g id="patch_16">
    <path clip-path="url(#pb6dd3a40aa)" d="M 337.983259 303.64 
L 346.6706 303.64 
L 346.6706 294.143317 
L 337.983259 294.143317 
z
" style="fill:#1f77b4;opacity:0.3;"/>
   </g>
   <g id="patch_17">
    <path clip-path="url(#pb6dd3a40aa)" d="M 329.295918 303.64 
L 337.983259 303.64 
L 337.983259 297.065373 
L 329.295918 297.065373 
z
" style="fill:#1f77b4;opacity:0.3;"/>
   </g>
   <g id="patch_18">
    <path clip-path="url(#pb6dd3a40aa)" d="M 320.608577 303.64 
L 329.295918 303.64 
L 329.295918 297.14886 
L 320.608577 297.14886 
z
" style="fill:#1f77b4;opacity:0.3;"/>
   </g>
   <g id="patch_19">
    <path clip-path="url(#pb6dd3a40aa)" d="M 311.921237 303.64 
L 320.608577 303.64 
L 320.608577 298.067221 
L 311.921237 298.067221 
z
" style="fill:#1f77b4;opacity:0.3;"/>
   </g>
   <g id="patch_20">
    <path clip-path="url(#pb6dd3a40aa)" d="M 303.233896 303.64 
L 311.921237 303.64 
L 311.921237 295.959166 
L 303.233896 295.959166 
z
" style="fill:#1f77b4;opacity:0.3;"/>
   </g>
   <g id="patch_21">
    <path clip-path="url(#pb6dd3a40aa)" d="M 294.546555 303.64 
L 303.233896 303.64 
L 303.233896 298.380299 
L 294.546555 298.380299 
z
" style="fill:#1f77b4;opacity:0.3;"/>
   </g>
   <g id="patch_22">
    <path clip-path="url(#pb6dd3a40aa)" d="M 285.859214 303.64 
L 294.546555 303.64 
L 294.546555 298.672504 
L 285.859214 298.672504 
z
" style="fill:#1f77b4;opacity:0.3;"/>
   </g>
   <g id="patch_23">
    <path clip-path="url(#pb6dd3a40aa)" d="M 277.171873 303.64 
L 285.859214 303.64 
L 285.859214 299.945686 
L 277.171873 299.945686 
z
" style="fill:#1f77b4;opacity:0.3;"/>
   </g>
   <g id="patch_24">
    <path clip-path="url(#pb6dd3a40aa)" d="M 268.484532 303.64 
L 277.171873 303.64 
L 277.171873 299.799583 
L 268.484532 299.799583 
z
" style="fill:#1f77b4;opacity:0.3;"/>
   </g>
   <g id="patch_25">
    <path clip-path="url(#pb6dd3a40aa)" d="M 259.797192 303.64 
L 268.484532 303.64 
L 268.484532 302.116356 
L 259.797192 302.116356 
z
" style="fill:#1f77b4;opacity:0.3;"/>
   </g>
   <g id="patch_26">
    <path clip-path="url(#pb6dd3a40aa)" d="M 251.109851 303.64 
L 259.797192 303.64 
L 259.797192 301.302355 
L 251.109851 301.302355 
z
" style="fill:#1f77b4;opacity:0.3;"/>
   </g>
   <g id="patch_27">
    <path clip-path="url(#pb6dd3a40aa)" d="M 242.42251 303.64 
L 251.109851 303.64 
L 251.109851 299.65348 
L 242.42251 299.65348 
z
" style="fill:#1f77b4;opacity:0.3;"/>
   </g>
   <g id="patch_28">
    <path clip-path="url(#pb6dd3a40aa)" d="M 233.735169 303.64 
L 242.42251 303.64 
L 242.42251 299.549121 
L 233.735169 299.549121 
z
" style="fill:#1f77b4;opacity:0.3;"/>
   </g>
   <g id="patch_29">
    <path clip-path="url(#pb6dd3a40aa)" d="M 225.047828 303.64 
L 233.735169 303.64 
L 233.735169 300.279635 
L 225.047828 300.279635 
z
" style="fill:#1f77b4;opacity:0.3;"/>
   </g>
   <g id="patch_30">
    <path clip-path="url(#pb6dd3a40aa)" d="M 216.360487 303.64 
L 225.047828 303.64 
L 225.047828 303.64 
L 216.360487 303.64 
z
" style="fill:#1f77b4;opacity:0.3;"/>
   </g>
   <g id="patch_31">
    <path clip-path="url(#pb6dd3a40aa)" d="M 207.673146 303.64 
L 216.360487 303.64 
L 216.360487 302.784255 
L 207.673146 302.784255 
z
" style="fill:#1f77b4;opacity:0.3;"/>
   </g>
   <g id="patch_32">
    <path clip-path="url(#pb6dd3a40aa)" d="M 198.985806 303.64 
L 207.673146 303.64 
L 207.673146 303.64 
L 198.985806 303.64 
z
" style="fill:#1f77b4;opacity:0.3;"/>
   </g>
   <g id="patch_33">
    <path clip-path="url(#pb6dd3a40aa)" d="M 190.298465 303.64 
L 198.985806 303.64 
L 198.985806 302.742511 
L 190.298465 302.742511 
z
" style="fill:#1f77b4;opacity:0.3;"/>
   </g>
   <g id="patch_34">
    <path clip-path="url(#pb6dd3a40aa)" d="M 181.611124 303.64 
L 190.298465 303.64 
L 190.298465 302.679896 
L 181.611124 302.679896 
z
" style="fill:#1f77b4;opacity:0.3;"/>
   </g>
   <g id="patch_35">
    <path clip-path="url(#pb6dd3a40aa)" d="M 172.923783 303.64 
L 181.611124 303.64 
L 181.611124 303.64 
L 172.923783 303.64 
z
" style="fill:#1f77b4;opacity:0.3;"/>
   </g>
   <g id="patch_36">
    <path clip-path="url(#pb6dd3a40aa)" d="M 164.236442 303.64 
L 172.923783 303.64 
L 172.923783 303.64 
L 164.236442 303.64 
z
" style="fill:#1f77b4;opacity:0.3;"/>
   </g>
   <g id="patch_37">
    <path clip-path="url(#pb6dd3a40aa)" d="M 155.549101 303.64 
L 164.236442 303.64 
L 164.236442 303.64 
L 155.549101 303.64 
z
" style="fill:#1f77b4;opacity:0.3;"/>
   </g>
   <g id="patch_38">
    <path clip-path="url(#pb6dd3a40aa)" d="M 146.861761 303.64 
L 155.549101 303.64 
L 155.549101 303.64 
L 146.861761 303.64 
z
" style="fill:#1f77b4;opacity:0.3;"/>
   </g>
   <g id="patch_39">
    <path clip-path="url(#pb6dd3a40aa)" d="M 138.17442 303.64 
L 146.861761 303.64 
L 146.861761 302.450306 
L 138.17442 302.450306 
z
" style="fill:#1f77b4;opacity:0.3;"/>
   </g>
   <g id="patch_40">
    <path clip-path="url(#pb6dd3a40aa)" d="M 129.487079 303.64 
L 138.17442 303.64 
L 138.17442 303.64 
L 129.487079 303.64 
z
" style="fill:#1f77b4;opacity:0.3;"/>
   </g>
   <g id="patch_41">
    <path clip-path="url(#pb6dd3a40aa)" d="M 120.799738 303.64 
L 129.487079 303.64 
L 129.487079 303.64 
L 120.799738 303.64 
z
" style="fill:#1f77b4;opacity:0.3;"/>
   </g>
   <g id="patch_42">
    <path clip-path="url(#pb6dd3a40aa)" d="M 112.112397 303.64 
L 120.799738 303.64 
L 120.799738 303.64 
L 112.112397 303.64 
z
" style="fill:#1f77b4;opacity:0.3;"/>
   </g>
   <g id="patch_43">
    <path clip-path="url(#pb6dd3a40aa)" d="M 103.425056 303.64 
L 112.112397 303.64 
L 112.112397 303.64 
L 103.425056 303.64 
z
" style="fill:#1f77b4;opacity:0.3;"/>
   </g>
   <g id="patch_44">
    <path clip-path="url(#pb6dd3a40aa)" d="M 94.737715 303.64 
L 103.425056 303.64 
L 103.425056 303.64 
L 94.737715 303.64 
z
" style="fill:#1f77b4;opacity:0.3;"/>
   </g>
   <g id="patch_45">
    <path clip-path="url(#pb6dd3a40aa)" d="M 86.050375 303.64 
L 94.737715 303.64 
L 94.737715 303.64 
L 86.050375 303.64 
z
" style="fill:#1f77b4;opacity:0.3;"/>
   </g>
   <g id="patch_46">
    <path clip-path="url(#pb6dd3a40aa)" d="M 77.363034 303.64 
L 86.050375 303.64 
L 86.050375 302.241587 
L 77.363034 302.241587 
z
" style="fill:#1f77b4;opacity:0.3;"/>
   </g>
   <g id="patch_47">
    <path clip-path="url(#pb6dd3a40aa)" d="M 68.675693 303.64 
L 77.363034 303.64 
L 77.363034 303.64 
L 68.675693 303.64 
z
" style="fill:#1f77b4;opacity:0.3;"/>
   </g>
   <g id="patch_48">
    <path clip-path="url(#pb6dd3a40aa)" d="M 59.988352 303.64 
L 68.675693 303.64 
L 68.675693 303.64 
L 59.988352 303.64 
z
" style="fill:#1f77b4;opacity:0.3;"/>
   </g>
   <g id="patch_49">
    <path clip-path="url(#pb6dd3a40aa)" d="M 51.301011 303.64 
L 59.988352 303.64 
L 59.988352 303.64 
L 51.301011 303.64 
z
" style="fill:#1f77b4;opacity:0.3;"/>
   </g>
   <g id="patch_50">
    <path clip-path="url(#pb6dd3a40aa)" d="M 42.61367 303.64 
L 51.301011 303.64 
L 51.301011 303.64 
L 42.61367 303.64 
z
" style="fill:#1f77b4;opacity:0.3;"/>
   </g>
   <g id="patch_51">
    <path clip-path="url(#pb6dd3a40aa)" d="M 33.92633 303.64 
L 42.61367 303.64 
L 42.61367 303.64 
L 33.92633 303.64 
z
" style="fill:#1f77b4;opacity:0.3;"/>
   </g>
   <g id="patch_52">
    <path clip-path="url(#pb6dd3a40aa)" d="M 25.238989 303.64 
L 33.92633 303.64 
L 33.92633 303.64 
L 25.238989 303.64 
z
" style="fill:#1f77b4;opacity:0.3;"/>
   </g>
   <g id="patch_53">
    <path clip-path="url(#pb6dd3a40aa)" d="M 16.551648 303.64 
L 25.238989 303.64 
L 25.238989 303.64 
L 16.551648 303.64 
z
" style="fill:#1f77b4;opacity:0.3;"/>
   </g>
   <g id="patch_54">
    <path clip-path="url(#pb6dd3a40aa)" d="M 7.864307 303.64 
L 16.551648 303.64 
L 16.551648 303.64 
L 7.864307 303.64 
z
" style="fill:#1f77b4;opacity:0.3;"/>
   </g>
   <g id="patch_55">
    <path clip-path="url(#pb6dd3a40aa)" d="M -0.823034 303.64 
L 7.864307 303.64 
L 7.864307 303.64 
L -0.823034 303.64 
z
" style="fill:#1f77b4;opacity:0.3;"/>
   </g>
   <g id="patch_56">
    <path clip-path="url(#pb6dd3a40aa)" d="M -9.510375 303.64 
L -0.823034 303.64 
L -0.823034 303.64 
L -9.510375 303.64 
z
" style="fill:#1f77b4;opacity:0.3;"/>
   </g>
   <g id="patch_57">
    <path clip-path="url(#pb6dd3a40aa)" d="M -18.197715 303.64 
L -9.510375 303.64 
L -9.510375 303.64 
L -18.197715 303.64 
z
" style="fill:#1f77b4;opacity:0.3;"/>
   </g>
   <g id="patch_58">
    <path clip-path="url(#pb6dd3a40aa)" d="M -26.885056 303.64 
L -18.197715 303.64 
L -18.197715 303.64 
L -26.885056 303.64 
z
" style="fill:#1f77b4;opacity:0.3;"/>
   </g>
   <g id="patch_59">
    <path clip-path="url(#pb6dd3a40aa)" d="M -35.572397 303.64 
L -26.885056 303.64 
L -26.885056 303.64 
L -35.572397 303.64 
z
" style="fill:#1f77b4;opacity:0.3;"/>
   </g>
   <g id="patch_60">
    <path clip-path="url(#pb6dd3a40aa)" d="M -44.259738 303.64 
L -35.572397 303.64 
L -35.572397 303.64 
L -44.259738 303.64 
z
" style="fill:#1f77b4;opacity:0.3;"/>
   </g>
   <g id="patch_61">
    <path clip-path="url(#pb6dd3a40aa)" d="M -52.947079 303.64 
L -44.259738 303.64 
L -44.259738 303.64 
L -52.947079 303.64 
z
" style="fill:#1f77b4;opacity:0.3;"/>
   </g>
   <g id="patch_62">
    <path clip-path="url(#pb6dd3a40aa)" d="M -61.63442 303.64 
L -52.947079 303.64 
L -52.947079 303.64 
L -61.63442 303.64 
z
" style="fill:#1f77b4;opacity:0.3;"/>
   </g>
   <g id="patch_63">
    <path clip-path="url(#pb6dd3a40aa)" d="M -70.321761 303.64 
L -61.63442 303.64 
L -61.63442 303.64 
L -70.321761 303.64 
z
" style="fill:#1f77b4;opacity:0.3;"/>
   </g>
   <g id="patch_64">
    <path clip-path="url(#pb6dd3a40aa)" d="M -79.009101 303.64 
L -70.321761 303.64 
L -70.321761 303.64 
L -79.009101 303.64 
z
" style="fill:#1f77b4;opacity:0.3;"/>
   </g>
   <g id="patch_65">
    <path clip-path="url(#pb6dd3a40aa)" d="M -87.696442 303.64 
L -79.009101 303.64 
L -79.009101 303.64 
L -87.696442 303.64 
z
" style="fill:#1f77b4;opacity:0.3;"/>
   </g>
   <g id="patch_66">
    <path clip-path="url(#pb6dd3a40aa)" d="M -96.383783 303.64 
L -87.696442 303.64 
L -87.696442 303.64 
L -96.383783 303.64 
z
" style="fill:#1f77b4;opacity:0.3;"/>
   </g>
   <g id="patch_67">
    <path clip-path="url(#pb6dd3a40aa)" d="M -105.071124 303.64 
L -96.383783 303.64 
L -96.383783 303.64 
L -105.071124 303.64 
z
" style="fill:#1f77b4;opacity:0.3;"/>
   </g>
   <g id="patch_68">
    <path clip-path="url(#pb6dd3a40aa)" d="M -113.758465 303.64 
L -105.071124 303.64 
L -105.071124 303.64 
L -113.758465 303.64 
z
" style="fill:#1f77b4;opacity:0.3;"/>
   </g>
   <g id="patch_69">
    <path clip-path="url(#pb6dd3a40aa)" d="M -122.445806 303.64 
L -113.758465 303.64 
L -113.758465 303.64 
L -122.445806 303.64 
z
" style="fill:#1f77b4;opacity:0.3;"/>
   </g>
   <g id="patch_70">
    <path clip-path="url(#pb6dd3a40aa)" d="M -131.133146 303.64 
L -122.445806 303.64 
L -122.445806 303.64 
L -131.133146 303.64 
z
" style="fill:#1f77b4;opacity:0.3;"/>
   </g>
   <g id="patch_71">
    <path clip-path="url(#pb6dd3a40aa)" d="M -139.820487 303.64 
L -131.133146 303.64 
L -131.133146 303.64 
L -139.820487 303.64 
z
" style="fill:#1f77b4;opacity:0.3;"/>
   </g>
   <g id="patch_72">
    <path clip-path="url(#pb6dd3a40aa)" d="M 450.91869 303.64 
L 459.606031 303.64 
L 459.606031 228.751869 
L 450.91869 228.751869 
z
" style="fill:#ff7f0e;opacity:0.3;"/>
   </g>
   <g id="patch_73">
    <path clip-path="url(#pb6dd3a40aa)" d="M 442.231349 303.64 
L 450.91869 303.64 
L 450.91869 206.711215 
L 442.231349 206.711215 
z
" style="fill:#ff7f0e;opacity:0.3;"/>
   </g>
   <g id="patch_74">
    <path clip-path="url(#pb6dd3a40aa)" d="M 433.544008 303.64 
L 442.231349 303.64 
L 442.231349 197.19366 
L 433.544008 197.19366 
z
" style="fill:#ff7f0e;opacity:0.3;"/>
   </g>
   <g id="patch_75">
    <path clip-path="url(#pb6dd3a40aa)" d="M 424.856668 303.64 
L 433.544008 303.64 
L 433.544008 191.933959 
L 424.856668 191.933959 
z
" style="fill:#ff7f0e;opacity:0.3;"/>
   </g>
   <g id="patch_76">
    <path clip-path="url(#pb6dd3a40aa)" d="M 416.169327 303.64 
L 424.856668 303.64 
L 424.856668 188.010054 
L 416.169327 188.010054 
z
" style="fill:#ff7f0e;opacity:0.3;"/>
   </g>
   <g id="patch_77">
    <path clip-path="url(#pb6dd3a40aa)" d="M 407.481986 303.64 
L 416.169327 303.64 
L 416.169327 184.754049 
L 407.481986 184.754049 
z
" style="fill:#ff7f0e;opacity:0.3;"/>
   </g>
   <g id="patch_78">
    <path clip-path="url(#pb6dd3a40aa)" d="M 398.794645 303.64 
L 407.481986 303.64 
L 407.481986 183.16779 
L 398.794645 183.16779 
z
" style="fill:#ff7f0e;opacity:0.3;"/>
   </g>
   <g id="patch_79">
    <path clip-path="url(#pb6dd3a40aa)" d="M 390.107304 303.64 
L 398.794645 303.64 
L 398.794645 188.427491 
L 390.107304 188.427491 
z
" style="fill:#ff7f0e;opacity:0.3;"/>
   </g>
   <g id="patch_80">
    <path clip-path="url(#pb6dd3a40aa)" d="M 381.419963 303.64 
L 390.107304 303.64 
L 390.107304 188.427491 
L 381.419963 188.427491 
z
" style="fill:#ff7f0e;opacity:0.3;"/>
   </g>
   <g id="patch_81">
    <path clip-path="url(#pb6dd3a40aa)" d="M 372.732623 303.64 
L 381.419963 303.64 
L 381.419963 177.073215 
L 372.732623 177.073215 
z
" style="fill:#ff7f0e;opacity:0.3;"/>
   </g>
   <g id="patch_82">
    <path clip-path="url(#pb6dd3a40aa)" d="M 364.045282 303.64 
L 372.732623 303.64 
L 372.732623 176.321829 
L 364.045282 176.321829 
z
" style="fill:#ff7f0e;opacity:0.3;"/>
   </g>
   <g id="patch_83">
    <path clip-path="url(#pb6dd3a40aa)" d="M 355.357941 303.64 
L 364.045282 303.64 
L 364.045282 174.485108 
L 355.357941 174.485108 
z
" style="fill:#ff7f0e;opacity:0.3;"/>
   </g>
   <g id="patch_84">
    <path clip-path="url(#pb6dd3a40aa)" d="M 346.6706 303.64 
L 355.357941 303.64 
L 355.357941 185.839384 
L 346.6706 185.839384 
z
" style="fill:#ff7f0e;opacity:0.3;"/>
   </g>
   <g id="patch_85">
    <path clip-path="url(#pb6dd3a40aa)" d="M 337.983259 303.64 
L 346.6706 303.64 
L 346.6706 193.854167 
L 337.983259 193.854167 
z
" style="fill:#ff7f0e;opacity:0.3;"/>
   </g>
   <g id="patch_86">
    <path clip-path="url(#pb6dd3a40aa)" d="M 329.295918 303.64 
L 337.983259 303.64 
L 337.983259 199.364331 
L 329.295918 199.364331 
z
" style="fill:#ff7f0e;opacity:0.3;"/>
   </g>
   <g id="patch_87">
    <path clip-path="url(#pb6dd3a40aa)" d="M 320.608577 303.64 
L 329.295918 303.64 
L 329.295918 199.447818 
L 320.608577 199.447818 
z
" style="fill:#ff7f0e;opacity:0.3;"/>
   </g>
   <g id="patch_88">
    <path clip-path="url(#pb6dd3a40aa)" d="M 311.921237 303.64 
L 320.608577 303.64 
L 320.608577 214.559024 
L 311.921237 214.559024 
z
" style="fill:#ff7f0e;opacity:0.3;"/>
   </g>
   <g id="patch_89">
    <path clip-path="url(#pb6dd3a40aa)" d="M 303.233896 303.64 
L 311.921237 303.64 
L 311.921237 224.619247 
L 303.233896 224.619247 
z
" style="fill:#ff7f0e;opacity:0.3;"/>
   </g>
   <g id="patch_90">
    <path clip-path="url(#pb6dd3a40aa)" d="M 294.546555 303.64 
L 303.233896 303.64 
L 303.233896 219.443032 
L 294.546555 219.443032 
z
" style="fill:#ff7f0e;opacity:0.3;"/>
   </g>
   <g id="patch_91">
    <path clip-path="url(#pb6dd3a40aa)" d="M 285.859214 303.64 
L 294.546555 303.64 
L 294.546555 221.989396 
L 285.859214 221.989396 
z
" style="fill:#ff7f0e;opacity:0.3;"/>
   </g>
   <g id="patch_92">
    <path clip-path="url(#pb6dd3a40aa)" d="M 277.171873 303.64 
L 285.859214 303.64 
L 285.859214 224.702734 
L 277.171873 224.702734 
z
" style="fill:#ff7f0e;opacity:0.3;"/>
   </g>
   <g id="patch_93">
    <path clip-path="url(#pb6dd3a40aa)" d="M 268.484532 303.64 
L 277.171873 303.64 
L 277.171873 224.99494 
L 268.484532 224.99494 
z
" style="fill:#ff7f0e;opacity:0.3;"/>
   </g>
   <g id="patch_94">
    <path clip-path="url(#pb6dd3a40aa)" d="M 259.797192 303.64 
L 268.484532 303.64 
L 268.484532 230.797309 
L 259.797192 230.797309 
z
" style="fill:#ff7f0e;opacity:0.3;"/>
   </g>
   <g id="patch_95">
    <path clip-path="url(#pb6dd3a40aa)" d="M 251.109851 303.64 
L 259.797192 303.64 
L 259.797192 240.690557 
L 251.109851 240.690557 
z
" style="fill:#ff7f0e;opacity:0.3;"/>
   </g>
   <g id="patch_96">
    <path clip-path="url(#pb6dd3a40aa)" d="M 242.42251 303.64 
L 251.109851 303.64 
L 251.109851 246.20072 
L 242.42251 246.20072 
z
" style="fill:#ff7f0e;opacity:0.3;"/>
   </g>
   <g id="patch_97">
    <path clip-path="url(#pb6dd3a40aa)" d="M 233.735169 303.64 
L 242.42251 303.64 
L 242.42251 258.640332 
L 233.735169 258.640332 
z
" style="fill:#ff7f0e;opacity:0.3;"/>
   </g>
   <g id="patch_98">
    <path clip-path="url(#pb6dd3a40aa)" d="M 225.047828 303.64 
L 233.735169 303.64 
L 233.735169 266.446397 
L 225.047828 266.446397 
z
" style="fill:#ff7f0e;opacity:0.3;"/>
   </g>
   <g id="patch_99">
    <path clip-path="url(#pb6dd3a40aa)" d="M 216.360487 303.64 
L 225.047828 303.64 
L 225.047828 271.580867 
L 216.360487 271.580867 
z
" style="fill:#ff7f0e;opacity:0.3;"/>
   </g>
   <g id="patch_100">
    <path clip-path="url(#pb6dd3a40aa)" d="M 207.673146 303.64 
L 216.360487 303.64 
L 216.360487 277.717186 
L 207.673146 277.717186 
z
" style="fill:#ff7f0e;opacity:0.3;"/>
   </g>
   <g id="patch_101">
    <path clip-path="url(#pb6dd3a40aa)" d="M 198.985806 303.64 
L 207.673146 303.64 
L 207.673146 289.948079 
L 198.985806 289.948079 
z
" style="fill:#ff7f0e;opacity:0.3;"/>
   </g>
   <g id="patch_102">
    <path clip-path="url(#pb6dd3a40aa)" d="M 190.298465 303.64 
L 198.985806 303.64 
L 198.985806 293.892855 
L 190.298465 293.892855 
z
" style="fill:#ff7f0e;opacity:0.3;"/>
   </g>
   <g id="patch_103">
    <path clip-path="url(#pb6dd3a40aa)" d="M 181.611124 303.64 
L 190.298465 303.64 
L 190.298465 295.249524 
L 181.611124 295.249524 
z
" style="fill:#ff7f0e;opacity:0.3;"/>
   </g>
   <g id="patch_104">
    <path clip-path="url(#pb6dd3a40aa)" d="M 172.923783 303.64 
L 181.611124 303.64 
L 181.611124 295.917422 
L 172.923783 295.917422 
z
" style="fill:#ff7f0e;opacity:0.3;"/>
   </g>
   <g id="patch_105">
    <path clip-path="url(#pb6dd3a40aa)" d="M 164.236442 303.64 
L 172.923783 303.64 
L 172.923783 296.021782 
L 164.236442 296.021782 
z
" style="fill:#ff7f0e;opacity:0.3;"/>
   </g>
   <g id="patch_106">
    <path clip-path="url(#pb6dd3a40aa)" d="M 155.549101 303.64 
L 164.236442 303.64 
L 164.236442 295.708704 
L 155.549101 295.708704 
z
" style="fill:#ff7f0e;opacity:0.3;"/>
   </g>
   <g id="patch_107">
    <path clip-path="url(#pb6dd3a40aa)" d="M 146.861761 303.64 
L 155.549101 303.64 
L 155.549101 295.833935 
L 146.861761 295.833935 
z
" style="fill:#ff7f0e;opacity:0.3;"/>
   </g>
   <g id="patch_108">
    <path clip-path="url(#pb6dd3a40aa)" d="M 138.17442 303.64 
L 146.861761 303.64 
L 146.861761 296.627065 
L 138.17442 296.627065 
z
" style="fill:#ff7f0e;opacity:0.3;"/>
   </g>
   <g id="patch_109">
    <path clip-path="url(#pb6dd3a40aa)" d="M 129.487079 303.64 
L 138.17442 303.64 
L 138.17442 297.399322 
L 129.487079 297.399322 
z
" style="fill:#ff7f0e;opacity:0.3;"/>
   </g>
   <g id="patch_110">
    <path clip-path="url(#pb6dd3a40aa)" d="M 120.799738 303.64 
L 129.487079 303.64 
L 129.487079 297.545425 
L 120.799738 297.545425 
z
" style="fill:#ff7f0e;opacity:0.3;"/>
   </g>
   <g id="patch_111">
    <path clip-path="url(#pb6dd3a40aa)" d="M 112.112397 303.64 
L 120.799738 303.64 
L 120.799738 297.754144 
L 112.112397 297.754144 
z
" style="fill:#ff7f0e;opacity:0.3;"/>
   </g>
   <g id="patch_112">
    <path clip-path="url(#pb6dd3a40aa)" d="M 103.425056 303.64 
L 112.112397 303.64 
L 112.112397 298.004606 
L 103.425056 298.004606 
z
" style="fill:#ff7f0e;opacity:0.3;"/>
   </g>
   <g id="patch_113">
    <path clip-path="url(#pb6dd3a40aa)" d="M 94.737715 303.64 
L 103.425056 303.64 
L 103.425056 298.547273 
L 94.737715 298.547273 
z
" style="fill:#ff7f0e;opacity:0.3;"/>
   </g>
   <g id="patch_114">
    <path clip-path="url(#pb6dd3a40aa)" d="M 86.050375 303.64 
L 94.737715 303.64 
L 94.737715 298.589017 
L 86.050375 298.589017 
z
" style="fill:#ff7f0e;opacity:0.3;"/>
   </g>
   <g id="patch_115">
    <path clip-path="url(#pb6dd3a40aa)" d="M 77.363034 303.64 
L 86.050375 303.64 
L 86.050375 298.96471 
L 77.363034 298.96471 
z
" style="fill:#ff7f0e;opacity:0.3;"/>
   </g>
   <g id="patch_116">
    <path clip-path="url(#pb6dd3a40aa)" d="M 68.675693 303.64 
L 77.363034 303.64 
L 77.363034 302.241587 
L 68.675693 302.241587 
z
" style="fill:#ff7f0e;opacity:0.3;"/>
   </g>
   <g id="patch_117">
    <path clip-path="url(#pb6dd3a40aa)" d="M 59.988352 303.64 
L 68.675693 303.64 
L 68.675693 302.554665 
L 59.988352 302.554665 
z
" style="fill:#ff7f0e;opacity:0.3;"/>
   </g>
   <g id="patch_118">
    <path clip-path="url(#pb6dd3a40aa)" d="M 51.301011 303.64 
L 59.988352 303.64 
L 59.988352 302.366818 
L 51.301011 302.366818 
z
" style="fill:#ff7f0e;opacity:0.3;"/>
   </g>
   <g id="patch_119">
    <path clip-path="url(#pb6dd3a40aa)" d="M 42.61367 303.64 
L 51.301011 303.64 
L 51.301011 302.366818 
L 42.61367 302.366818 
z
" style="fill:#ff7f0e;opacity:0.3;"/>
   </g>
   <g id="patch_120">
    <path clip-path="url(#pb6dd3a40aa)" d="M 33.92633 303.64 
L 42.61367 303.64 
L 42.61367 302.721639 
L 33.92633 302.721639 
z
" style="fill:#ff7f0e;opacity:0.3;"/>
   </g>
   <g id="patch_121">
    <path clip-path="url(#pb6dd3a40aa)" d="M 25.238989 303.64 
L 33.92633 303.64 
L 33.92633 302.888614 
L 25.238989 302.888614 
z
" style="fill:#ff7f0e;opacity:0.3;"/>
   </g>
   <g id="patch_122">
    <path clip-path="url(#pb6dd3a40aa)" d="M 16.551648 303.64 
L 25.238989 303.64 
L 25.238989 302.930358 
L 16.551648 302.930358 
z
" style="fill:#ff7f0e;opacity:0.3;"/>
   </g>
   <g id="patch_123">
    <path clip-path="url(#pb6dd3a40aa)" d="M 7.864307 303.64 
L 16.551648 303.64 
L 16.551648 302.596408 
L 7.864307 302.596408 
z
" style="fill:#ff7f0e;opacity:0.3;"/>
   </g>
   <g id="patch_124">
    <path clip-path="url(#pb6dd3a40aa)" d="M -0.823034 303.64 
L 7.864307 303.64 
L 7.864307 302.429434 
L -0.823034 302.429434 
z
" style="fill:#ff7f0e;opacity:0.3;"/>
   </g>
   <g id="patch_125">
    <path clip-path="url(#pb6dd3a40aa)" d="M -9.510375 303.64 
L -0.823034 303.64 
L -0.823034 302.137228 
L -9.510375 302.137228 
z
" style="fill:#ff7f0e;opacity:0.3;"/>
   </g>
   <g id="patch_126">
    <path clip-path="url(#pb6dd3a40aa)" d="M -18.197715 303.64 
L -9.510375 303.64 
L -9.510375 301.719792 
L -18.197715 301.719792 
z
" style="fill:#ff7f0e;opacity:0.3;"/>
   </g>
   <g id="patch_127">
    <path clip-path="url(#pb6dd3a40aa)" d="M -26.885056 303.64 
L -18.197715 303.64 
L -18.197715 301.657176 
L -26.885056 301.657176 
z
" style="fill:#ff7f0e;opacity:0.3;"/>
   </g>
   <g id="patch_128">
    <path clip-path="url(#pb6dd3a40aa)" d="M -35.572397 303.64 
L -26.885056 303.64 
L -26.885056 301.218868 
L -35.572397 301.218868 
z
" style="fill:#ff7f0e;opacity:0.3;"/>
   </g>
   <g id="patch_129">
    <path clip-path="url(#pb6dd3a40aa)" d="M -44.259738 303.64 
L -35.572397 303.64 
L -35.572397 301.657176 
L -44.259738 301.657176 
z
" style="fill:#ff7f0e;opacity:0.3;"/>
   </g>
   <g id="patch_130">
    <path clip-path="url(#pb6dd3a40aa)" d="M -52.947079 303.64 
L -44.259738 303.64 
L -44.259738 301.92851 
L -52.947079 301.92851 
z
" style="fill:#ff7f0e;opacity:0.3;"/>
   </g>
   <g id="patch_131">
    <path clip-path="url(#pb6dd3a40aa)" d="M -61.63442 303.64 
L -52.947079 303.64 
L -52.947079 302.199844 
L -61.63442 302.199844 
z
" style="fill:#ff7f0e;opacity:0.3;"/>
   </g>
   <g id="patch_132">
    <path clip-path="url(#pb6dd3a40aa)" d="M -70.321761 303.64 
L -61.63442 303.64 
L -61.63442 301.761535 
L -70.321761 301.761535 
z
" style="fill:#ff7f0e;opacity:0.3;"/>
   </g>
   <g id="patch_133">
    <path clip-path="url(#pb6dd3a40aa)" d="M -79.009101 303.64 
L -70.321761 303.64 
L -70.321761 302.220715 
L -79.009101 302.220715 
z
" style="fill:#ff7f0e;opacity:0.3;"/>
   </g>
   <g id="patch_134">
    <path clip-path="url(#pb6dd3a40aa)" d="M -87.696442 303.64 
L -79.009101 303.64 
L -79.009101 302.116356 
L -87.696442 302.116356 
z
" style="fill:#ff7f0e;opacity:0.3;"/>
   </g>
   <g id="patch_135">
    <path clip-path="url(#pb6dd3a40aa)" d="M -96.383783 303.64 
L -87.696442 303.64 
L -87.696442 301.740663 
L -96.383783 301.740663 
z
" style="fill:#ff7f0e;opacity:0.3;"/>
   </g>
   <g id="patch_136">
    <path clip-path="url(#pb6dd3a40aa)" d="M -105.071124 303.64 
L -96.383783 303.64 
L -96.383783 302.220715 
L -105.071124 302.220715 
z
" style="fill:#ff7f0e;opacity:0.3;"/>
   </g>
   <g id="patch_137">
    <path clip-path="url(#pb6dd3a40aa)" d="M -113.758465 303.64 
L -105.071124 303.64 
L -105.071124 302.304203 
L -113.758465 302.304203 
z
" style="fill:#ff7f0e;opacity:0.3;"/>
   </g>
   <g id="patch_138">
    <path clip-path="url(#pb6dd3a40aa)" d="M -122.445806 303.64 
L -113.758465 303.64 
L -113.758465 301.302355 
L -122.445806 301.302355 
z
" style="fill:#ff7f0e;opacity:0.3;"/>
   </g>
   <g id="patch_139">
    <path clip-path="url(#pb6dd3a40aa)" d="M -131.133146 303.64 
L -122.445806 303.64 
L -122.445806 302.325075 
L -131.133146 302.325075 
z
" style="fill:#ff7f0e;opacity:0.3;"/>
   </g>
   <g id="patch_140">
    <path clip-path="url(#pb6dd3a40aa)" d="M -139.820487 303.64 
L -131.133146 303.64 
L -131.133146 302.554665 
L -139.820487 302.554665 
z
" style="fill:#ff7f0e;opacity:0.3;"/>
   </g>
   <g id="patch_141">
    <path clip-path="url(#pb6dd3a40aa)" d="M 450.91869 303.64 
L 459.606031 303.64 
L 459.606031 117.129315 
L 450.91869 117.129315 
z
" style="fill:#2ca02c;opacity:0.3;"/>
   </g>
   <g id="patch_142">
    <path clip-path="url(#pb6dd3a40aa)" d="M 442.231349 303.64 
L 450.91869 303.64 
L 450.91869 47.333911 
L 442.231349 47.333911 
z
" style="fill:#2ca02c;opacity:0.3;"/>
   </g>
   <g id="patch_143">
    <path clip-path="url(#pb6dd3a40aa)" d="M 433.544008 303.64 
L 442.231349 303.64 
L 442.231349 35.144762 
L 433.544008 35.144762 
z
" style="fill:#2ca02c;opacity:0.3;"/>
   </g>
   <g id="patch_144">
    <path clip-path="url(#pb6dd3a40aa)" d="M 424.856668 303.64 
L 433.544008 303.64 
L 433.544008 71.71221 
L 424.856668 71.71221 
z
" style="fill:#2ca02c;opacity:0.3;"/>
   </g>
   <g id="patch_145">
    <path clip-path="url(#pb6dd3a40aa)" d="M 416.169327 303.64 
L 424.856668 303.64 
L 424.856668 97.259332 
L 416.169327 97.259332 
z
" style="fill:#2ca02c;opacity:0.3;"/>
   </g>
   <g id="patch_146">
    <path clip-path="url(#pb6dd3a40aa)" d="M 407.481986 303.64 
L 416.169327 303.64 
L 416.169327 164.550116 
L 407.481986 164.550116 
z
" style="fill:#2ca02c;opacity:0.3;"/>
   </g>
   <g id="patch_147">
    <path clip-path="url(#pb6dd3a40aa)" d="M 398.794645 303.64 
L 407.481986 303.64 
L 407.481986 180.329221 
L 398.794645 180.329221 
z
" style="fill:#2ca02c;opacity:0.3;"/>
   </g>
   <g id="patch_148">
    <path clip-path="url(#pb6dd3a40aa)" d="M 390.107304 303.64 
L 398.794645 303.64 
L 398.794645 184.169638 
L 390.107304 184.169638 
z
" style="fill:#2ca02c;opacity:0.3;"/>
   </g>
   <g id="patch_149">
    <path clip-path="url(#pb6dd3a40aa)" d="M 381.419963 303.64 
L 390.107304 303.64 
L 390.107304 215.143435 
L 381.419963 215.143435 
z
" style="fill:#2ca02c;opacity:0.3;"/>
   </g>
   <g id="patch_150">
    <path clip-path="url(#pb6dd3a40aa)" d="M 372.732623 303.64 
L 381.419963 303.64 
L 381.419963 203.037773 
L 372.732623 203.037773 
z
" style="fill:#2ca02c;opacity:0.3;"/>
   </g>
   <g id="patch_151">
    <path clip-path="url(#pb6dd3a40aa)" d="M 364.045282 303.64 
L 372.732623 303.64 
L 372.732623 204.791007 
L 364.045282 204.791007 
z
" style="fill:#2ca02c;opacity:0.3;"/>
   </g>
   <g id="patch_152">
    <path clip-path="url(#pb6dd3a40aa)" d="M 355.357941 303.64 
L 364.045282 303.64 
L 364.045282 216.312258 
L 355.357941 216.312258 
z
" style="fill:#2ca02c;opacity:0.3;"/>
   </g>
   <g id="patch_153">
    <path clip-path="url(#pb6dd3a40aa)" d="M 346.6706 303.64 
L 355.357941 303.64 
L 355.357941 216.729694 
L 346.6706 216.729694 
z
" style="fill:#2ca02c;opacity:0.3;"/>
   </g>
   <g id="patch_154">
    <path clip-path="url(#pb6dd3a40aa)" d="M 337.983259 303.64 
L 346.6706 303.64 
L 346.6706 223.032987 
L 337.983259 223.032987 
z
" style="fill:#2ca02c;opacity:0.3;"/>
   </g>
   <g id="patch_155">
    <path clip-path="url(#pb6dd3a40aa)" d="M 329.295918 303.64 
L 337.983259 303.64 
L 337.983259 242.77774 
L 329.295918 242.77774 
z
" style="fill:#2ca02c;opacity:0.3;"/>
   </g>
   <g id="patch_156">
    <path clip-path="url(#pb6dd3a40aa)" d="M 320.608577 303.64 
L 329.295918 303.64 
L 329.295918 243.529126 
L 320.608577 243.529126 
z
" style="fill:#2ca02c;opacity:0.3;"/>
   </g>
   <g id="patch_157">
    <path clip-path="url(#pb6dd3a40aa)" d="M 311.921237 303.64 
L 320.608577 303.64 
L 320.608577 242.902971 
L 311.921237 242.902971 
z
" style="fill:#2ca02c;opacity:0.3;"/>
   </g>
   <g id="patch_158">
    <path clip-path="url(#pb6dd3a40aa)" d="M 303.233896 303.64 
L 311.921237 303.64 
L 311.921237 252.46227 
L 303.233896 252.46227 
z
" style="fill:#2ca02c;opacity:0.3;"/>
   </g>
   <g id="patch_159">
    <path clip-path="url(#pb6dd3a40aa)" d="M 294.546555 303.64 
L 303.233896 303.64 
L 303.233896 264.818394 
L 294.546555 264.818394 
z
" style="fill:#2ca02c;opacity:0.3;"/>
   </g>
   <g id="patch_160">
    <path clip-path="url(#pb6dd3a40aa)" d="M 285.859214 303.64 
L 294.546555 303.64 
L 294.546555 268.867529 
L 285.859214 268.867529 
z
" style="fill:#2ca02c;opacity:0.3;"/>
   </g>
   <g id="patch_161">
    <path clip-path="url(#pb6dd3a40aa)" d="M 277.171873 303.64 
L 285.859214 303.64 
L 285.859214 268.951016 
L 277.171873 268.951016 
z
" style="fill:#2ca02c;opacity:0.3;"/>
   </g>
   <g id="patch_162">
    <path clip-path="url(#pb6dd3a40aa)" d="M 268.484532 303.64 
L 277.171873 303.64 
L 277.171873 276.026567 
L 268.484532 276.026567 
z
" style="fill:#2ca02c;opacity:0.3;"/>
   </g>
   <g id="patch_163">
    <path clip-path="url(#pb6dd3a40aa)" d="M 259.797192 303.64 
L 268.484532 303.64 
L 268.484532 279.971343 
L 259.797192 279.971343 
z
" style="fill:#2ca02c;opacity:0.3;"/>
   </g>
   <g id="patch_164">
    <path clip-path="url(#pb6dd3a40aa)" d="M 251.109851 303.64 
L 259.797192 303.64 
L 259.797192 281.787193 
L 251.109851 281.787193 
z
" style="fill:#2ca02c;opacity:0.3;"/>
   </g>
   <g id="patch_165">
    <path clip-path="url(#pb6dd3a40aa)" d="M 242.42251 303.64 
L 251.109851 303.64 
L 251.109851 289.259308 
L 242.42251 289.259308 
z
" style="fill:#2ca02c;opacity:0.3;"/>
   </g>
   <g id="patch_166">
    <path clip-path="url(#pb6dd3a40aa)" d="M 233.735169 303.64 
L 242.42251 303.64 
L 242.42251 291.346491 
L 233.735169 291.346491 
z
" style="fill:#2ca02c;opacity:0.3;"/>
   </g>
   <g id="patch_167">
    <path clip-path="url(#pb6dd3a40aa)" d="M 225.047828 303.64 
L 233.735169 303.64 
L 233.735169 298.609889 
L 225.047828 298.609889 
z
" style="fill:#2ca02c;opacity:0.3;"/>
   </g>
   <g id="patch_168">
    <path clip-path="url(#pb6dd3a40aa)" d="M 216.360487 303.64 
L 225.047828 303.64 
L 225.047828 299.403018 
L 216.360487 299.403018 
z
" style="fill:#2ca02c;opacity:0.3;"/>
   </g>
   <g id="patch_169">
    <path clip-path="url(#pb6dd3a40aa)" d="M 207.673146 303.64 
L 216.360487 303.64 
L 216.360487 300.237891 
L 207.673146 300.237891 
z
" style="fill:#2ca02c;opacity:0.3;"/>
   </g>
   <g id="patch_170">
    <path clip-path="url(#pb6dd3a40aa)" d="M 198.985806 303.64 
L 207.673146 303.64 
L 207.673146 301.031021 
L 198.985806 301.031021 
z
" style="fill:#2ca02c;opacity:0.3;"/>
   </g>
   <g id="patch_171">
    <path clip-path="url(#pb6dd3a40aa)" d="M 190.298465 303.64 
L 198.985806 303.64 
L 198.985806 303.64 
L 190.298465 303.64 
z
" style="fill:#2ca02c;opacity:0.3;"/>
   </g>
   <g id="patch_172">
    <path clip-path="url(#pb6dd3a40aa)" d="M 181.611124 303.64 
L 190.298465 303.64 
L 190.298465 303.64 
L 181.611124 303.64 
z
" style="fill:#2ca02c;opacity:0.3;"/>
   </g>
   <g id="patch_173">
    <path clip-path="url(#pb6dd3a40aa)" d="M 172.923783 303.64 
L 181.611124 303.64 
L 181.611124 302.638152 
L 172.923783 302.638152 
z
" style="fill:#2ca02c;opacity:0.3;"/>
   </g>
   <g id="patch_174">
    <path clip-path="url(#pb6dd3a40aa)" d="M 164.236442 303.64 
L 172.923783 303.64 
L 172.923783 302.596408 
L 164.236442 302.596408 
z
" style="fill:#2ca02c;opacity:0.3;"/>
   </g>
   <g id="patch_175">
    <path clip-path="url(#pb6dd3a40aa)" d="M 155.549101 303.64 
L 164.236442 303.64 
L 164.236442 302.533793 
L 155.549101 302.533793 
z
" style="fill:#2ca02c;opacity:0.3;"/>
   </g>
   <g id="patch_176">
    <path clip-path="url(#pb6dd3a40aa)" d="M 146.861761 303.64 
L 155.549101 303.64 
L 155.549101 303.64 
L 146.861761 303.64 
z
" style="fill:#2ca02c;opacity:0.3;"/>
   </g>
   <g id="patch_177">
    <path clip-path="url(#pb6dd3a40aa)" d="M 138.17442 303.64 
L 146.861761 303.64 
L 146.861761 303.64 
L 138.17442 303.64 
z
" style="fill:#2ca02c;opacity:0.3;"/>
   </g>
   <g id="patch_178">
    <path clip-path="url(#pb6dd3a40aa)" d="M 129.487079 303.64 
L 138.17442 303.64 
L 138.17442 303.64 
L 129.487079 303.64 
z
" style="fill:#2ca02c;opacity:0.3;"/>
   </g>
   <g id="patch_179">
    <path clip-path="url(#pb6dd3a40aa)" d="M 120.799738 303.64 
L 129.487079 303.64 
L 129.487079 303.64 
L 120.799738 303.64 
z
" style="fill:#2ca02c;opacity:0.3;"/>
   </g>
   <g id="patch_180">
    <path clip-path="url(#pb6dd3a40aa)" d="M 112.112397 303.64 
L 120.799738 303.64 
L 120.799738 303.64 
L 112.112397 303.64 
z
" style="fill:#2ca02c;opacity:0.3;"/>
   </g>
   <g id="patch_181">
    <path clip-path="url(#pb6dd3a40aa)" d="M 103.425056 303.64 
L 112.112397 303.64 
L 112.112397 303.64 
L 103.425056 303.64 
z
" style="fill:#2ca02c;opacity:0.3;"/>
   </g>
   <g id="patch_182">
    <path clip-path="url(#pb6dd3a40aa)" d="M 94.737715 303.64 
L 103.425056 303.64 
L 103.425056 303.64 
L 94.737715 303.64 
z
" style="fill:#2ca02c;opacity:0.3;"/>
   </g>
   <g id="patch_183">
    <path clip-path="url(#pb6dd3a40aa)" d="M 86.050375 303.64 
L 94.737715 303.64 
L 94.737715 303.64 
L 86.050375 303.64 
z
" style="fill:#2ca02c;opacity:0.3;"/>
   </g>
   <g id="patch_184">
    <path clip-path="url(#pb6dd3a40aa)" d="M 77.363034 303.64 
L 86.050375 303.64 
L 86.050375 303.64 
L 77.363034 303.64 
z
" style="fill:#2ca02c;opacity:0.3;"/>
   </g>
   <g id="patch_185">
    <path clip-path="url(#pb6dd3a40aa)" d="M 68.675693 303.64 
L 77.363034 303.64 
L 77.363034 303.64 
L 68.675693 303.64 
z
" style="fill:#2ca02c;opacity:0.3;"/>
   </g>
   <g id="patch_186">
    <path clip-path="url(#pb6dd3a40aa)" d="M 59.988352 303.64 
L 68.675693 303.64 
L 68.675693 303.64 
L 59.988352 303.64 
z
" style="fill:#2ca02c;opacity:0.3;"/>
   </g>
   <g id="patch_187">
    <path clip-path="url(#pb6dd3a40aa)" d="M 51.301011 303.64 
L 59.988352 303.64 
L 59.988352 303.64 
L 51.301011 303.64 
z
" style="fill:#2ca02c;opacity:0.3;"/>
   </g>
   <g id="patch_188">
    <path clip-path="url(#pb6dd3a40aa)" d="M 42.61367 303.64 
L 51.301011 303.64 
L 51.301011 303.64 
L 42.61367 303.64 
z
" style="fill:#2ca02c;opacity:0.3;"/>
   </g>
   <g id="patch_189">
    <path clip-path="url(#pb6dd3a40aa)" d="M 33.92633 303.64 
L 42.61367 303.64 
L 42.61367 303.64 
L 33.92633 303.64 
z
" style="fill:#2ca02c;opacity:0.3;"/>
   </g>
   <g id="patch_190">
    <path clip-path="url(#pb6dd3a40aa)" d="M 25.238989 303.64 
L 33.92633 303.64 
L 33.92633 303.64 
L 25.238989 303.64 
z
" style="fill:#2ca02c;opacity:0.3;"/>
   </g>
   <g id="patch_191">
    <path clip-path="url(#pb6dd3a40aa)" d="M 16.551648 303.64 
L 25.238989 303.64 
L 25.238989 303.64 
L 16.551648 303.64 
z
" style="fill:#2ca02c;opacity:0.3;"/>
   </g>
   <g id="patch_192">
    <path clip-path="url(#pb6dd3a40aa)" d="M 7.864307 303.64 
L 16.551648 303.64 
L 16.551648 303.64 
L 7.864307 303.64 
z
" style="fill:#2ca02c;opacity:0.3;"/>
   </g>
   <g id="patch_193">
    <path clip-path="url(#pb6dd3a40aa)" d="M -0.823034 303.64 
L 7.864307 303.64 
L 7.864307 303.64 
L -0.823034 303.64 
z
" style="fill:#2ca02c;opacity:0.3;"/>
   </g>
   <g id="patch_194">
    <path clip-path="url(#pb6dd3a40aa)" d="M -9.510375 303.64 
L -0.823034 303.64 
L -0.823034 301.657176 
L -9.510375 301.657176 
z
" style="fill:#2ca02c;opacity:0.3;"/>
   </g>
   <g id="patch_195">
    <path clip-path="url(#pb6dd3a40aa)" d="M -18.197715 303.64 
L -9.510375 303.64 
L -9.510375 301.46933 
L -18.197715 301.46933 
z
" style="fill:#2ca02c;opacity:0.3;"/>
   </g>
   <g id="patch_196">
    <path clip-path="url(#pb6dd3a40aa)" d="M -26.885056 303.64 
L -18.197715 303.64 
L -18.197715 303.64 
L -26.885056 303.64 
z
" style="fill:#2ca02c;opacity:0.3;"/>
   </g>
   <g id="patch_197">
    <path clip-path="url(#pb6dd3a40aa)" d="M -35.572397 303.64 
L -26.885056 303.64 
L -26.885056 298.067221 
L -35.572397 298.067221 
z
" style="fill:#2ca02c;opacity:0.3;"/>
   </g>
   <g id="patch_198">
    <path clip-path="url(#pb6dd3a40aa)" d="M -44.259738 303.64 
L -35.572397 303.64 
L -35.572397 300.717944 
L -44.259738 300.717944 
z
" style="fill:#2ca02c;opacity:0.3;"/>
   </g>
   <g id="patch_199">
    <path clip-path="url(#pb6dd3a40aa)" d="M -52.947079 303.64 
L -44.259738 303.64 
L -44.259738 303.64 
L -52.947079 303.64 
z
" style="fill:#2ca02c;opacity:0.3;"/>
   </g>
   <g id="patch_200">
    <path clip-path="url(#pb6dd3a40aa)" d="M -61.63442 303.64 
L -52.947079 303.64 
L -52.947079 303.64 
L -61.63442 303.64 
z
" style="fill:#2ca02c;opacity:0.3;"/>
   </g>
   <g id="patch_201">
    <path clip-path="url(#pb6dd3a40aa)" d="M -70.321761 303.64 
L -61.63442 303.64 
L -61.63442 303.64 
L -70.321761 303.64 
z
" style="fill:#2ca02c;opacity:0.3;"/>
   </g>
   <g id="patch_202">
    <path clip-path="url(#pb6dd3a40aa)" d="M -79.009101 303.64 
L -70.321761 303.64 
L -70.321761 303.64 
L -79.009101 303.64 
z
" style="fill:#2ca02c;opacity:0.3;"/>
   </g>
   <g id="patch_203">
    <path clip-path="url(#pb6dd3a40aa)" d="M -87.696442 303.64 
L -79.009101 303.64 
L -79.009101 303.64 
L -87.696442 303.64 
z
" style="fill:#2ca02c;opacity:0.3;"/>
   </g>
   <g id="patch_204">
    <path clip-path="url(#pb6dd3a40aa)" d="M -96.383783 303.64 
L -87.696442 303.64 
L -87.696442 303.64 
L -96.383783 303.64 
z
" style="fill:#2ca02c;opacity:0.3;"/>
   </g>
   <g id="patch_205">
    <path clip-path="url(#pb6dd3a40aa)" d="M -105.071124 303.64 
L -96.383783 303.64 
L -96.383783 303.64 
L -105.071124 303.64 
z
" style="fill:#2ca02c;opacity:0.3;"/>
   </g>
   <g id="patch_206">
    <path clip-path="url(#pb6dd3a40aa)" d="M -113.758465 303.64 
L -105.071124 303.64 
L -105.071124 303.64 
L -113.758465 303.64 
z
" style="fill:#2ca02c;opacity:0.3;"/>
   </g>
   <g id="patch_207">
    <path clip-path="url(#pb6dd3a40aa)" d="M -122.445806 303.64 
L -113.758465 303.64 
L -113.758465 303.64 
L -122.445806 303.64 
z
" style="fill:#2ca02c;opacity:0.3;"/>
   </g>
   <g id="patch_208">
    <path clip-path="url(#pb6dd3a40aa)" d="M -131.133146 303.64 
L -122.445806 303.64 
L -122.445806 303.64 
L -131.133146 303.64 
z
" style="fill:#2ca02c;opacity:0.3;"/>
   </g>
   <g id="patch_209">
    <path clip-path="url(#pb6dd3a40aa)" d="M -139.820487 303.64 
L -131.133146 303.64 
L -131.133146 303.64 
L -139.820487 303.64 
z
" style="fill:#2ca02c;opacity:0.3;"/>
   </g>
   <g id="matplotlib.axis_1">
    <g id="xtick_1">
     <g id="line2d_1">
      <defs>
       <path d="M 0 0 
L 0 3.5 
" id="m089069e65c" style="stroke:#000000;stroke-width:0.8;"/>
      </defs>
      <g>
       <use style="stroke:#000000;stroke-width:0.8;" x="38.27" xlink:href="#m089069e65c" y="303.64"/>
      </g>
     </g>
     <g id="text_1">
      <!-- 1970 -->
      <defs>
       <path d="M 12.40625 8.296875 
L 28.515625 8.296875 
L 28.515625 63.921875 
L 10.984375 60.40625 
L 10.984375 69.390625 
L 28.421875 72.90625 
L 38.28125 72.90625 
L 38.28125 8.296875 
L 54.390625 8.296875 
L 54.390625 0 
L 12.40625 0 
z
" id="DejaVuSans-31"/>
       <path d="M 10.984375 1.515625 
L 10.984375 10.5 
Q 14.703125 8.734375 18.5 7.8125 
Q 22.3125 6.890625 25.984375 6.890625 
Q 35.75 6.890625 40.890625 13.453125 
Q 46.046875 20.015625 46.78125 33.40625 
Q 43.953125 29.203125 39.59375 26.953125 
Q 35.25 24.703125 29.984375 24.703125 
Q 19.046875 24.703125 12.671875 31.3125 
Q 6.296875 37.9375 6.296875 49.421875 
Q 6.296875 60.640625 12.9375 67.421875 
Q 19.578125 74.21875 30.609375 74.21875 
Q 43.265625 74.21875 49.921875 64.515625 
Q 56.59375 54.828125 56.59375 36.375 
Q 56.59375 19.140625 48.40625 8.859375 
Q 40.234375 -1.421875 26.421875 -1.421875 
Q 22.703125 -1.421875 18.890625 -0.6875 
Q 15.09375 0.046875 10.984375 1.515625 
z
M 30.609375 32.421875 
Q 37.25 32.421875 41.125 36.953125 
Q 45.015625 41.5 45.015625 49.421875 
Q 45.015625 57.28125 41.125 61.84375 
Q 37.25 66.40625 30.609375 66.40625 
Q 23.96875 66.40625 20.09375 61.84375 
Q 16.21875 57.28125 16.21875 49.421875 
Q 16.21875 41.5 20.09375 36.953125 
Q 23.96875 32.421875 30.609375 32.421875 
z
" id="DejaVuSans-39"/>
       <path d="M 8.203125 72.90625 
L 55.078125 72.90625 
L 55.078125 68.703125 
L 28.609375 0 
L 18.3125 0 
L 43.21875 64.59375 
L 8.203125 64.59375 
z
" id="DejaVuSans-37"/>
       <path d="M 31.78125 66.40625 
Q 24.171875 66.40625 20.328125 58.90625 
Q 16.5 51.421875 16.5 36.375 
Q 16.5 21.390625 20.328125 13.890625 
Q 24.171875 6.390625 31.78125 6.390625 
Q 39.453125 6.390625 43.28125 13.890625 
Q 47.125 21.390625 47.125 36.375 
Q 47.125 51.421875 43.28125 58.90625 
Q 39.453125 66.40625 31.78125 66.40625 
z
M 31.78125 74.21875 
Q 44.046875 74.21875 50.515625 64.515625 
Q 56.984375 54.828125 56.984375 36.375 
Q 56.984375 17.96875 50.515625 8.265625 
Q 44.046875 -1.421875 31.78125 -1.421875 
Q 19.53125 -1.421875 13.0625 8.265625 
Q 6.59375 17.96875 6.59375 36.375 
Q 6.59375 54.828125 13.0625 64.515625 
Q 19.53125 74.21875 31.78125 74.21875 
z
" id="DejaVuSans-30"/>
      </defs>
      <g transform="translate(25.545 318.238437)scale(0.1 -0.1)">
       <use xlink:href="#DejaVuSans-31"/>
       <use x="63.623047" xlink:href="#DejaVuSans-39"/>
       <use x="127.246094" xlink:href="#DejaVuSans-37"/>
       <use x="190.869141" xlink:href="#DejaVuSans-30"/>
      </g>
     </g>
    </g>
    <g id="xtick_2">
     <g id="line2d_2">
      <g>
       <use style="stroke:#000000;stroke-width:0.8;" x="125.143408" xlink:href="#m089069e65c" y="303.64"/>
      </g>
     </g>
     <g id="text_2">
      <!-- 1980 -->
      <defs>
       <path d="M 31.78125 34.625 
Q 24.75 34.625 20.71875 30.859375 
Q 16.703125 27.09375 16.703125 20.515625 
Q 16.703125 13.921875 20.71875 10.15625 
Q 24.75 6.390625 31.78125 6.390625 
Q 38.8125 6.390625 42.859375 10.171875 
Q 46.921875 13.96875 46.921875 20.515625 
Q 46.921875 27.09375 42.890625 30.859375 
Q 38.875 34.625 31.78125 34.625 
z
M 21.921875 38.8125 
Q 15.578125 40.375 12.03125 44.71875 
Q 8.5 49.078125 8.5 55.328125 
Q 8.5 64.0625 14.71875 69.140625 
Q 20.953125 74.21875 31.78125 74.21875 
Q 42.671875 74.21875 48.875 69.140625 
Q 55.078125 64.0625 55.078125 55.328125 
Q 55.078125 49.078125 51.53125 44.71875 
Q 48 40.375 41.703125 38.8125 
Q 48.828125 37.15625 52.796875 32.3125 
Q 56.78125 27.484375 56.78125 20.515625 
Q 56.78125 9.90625 50.3125 4.234375 
Q 43.84375 -1.421875 31.78125 -1.421875 
Q 19.734375 -1.421875 13.25 4.234375 
Q 6.78125 9.90625 6.78125 20.515625 
Q 6.78125 27.484375 10.78125 32.3125 
Q 14.796875 37.15625 21.921875 38.8125 
z
M 18.3125 54.390625 
Q 18.3125 48.734375 21.84375 45.5625 
Q 25.390625 42.390625 31.78125 42.390625 
Q 38.140625 42.390625 41.71875 45.5625 
Q 45.3125 48.734375 45.3125 54.390625 
Q 45.3125 60.0625 41.71875 63.234375 
Q 38.140625 66.40625 31.78125 66.40625 
Q 25.390625 66.40625 21.84375 63.234375 
Q 18.3125 60.0625 18.3125 54.390625 
z
" id="DejaVuSans-38"/>
      </defs>
      <g transform="translate(112.418408 318.238437)scale(0.1 -0.1)">
       <use xlink:href="#DejaVuSans-31"/>
       <use x="63.623047" xlink:href="#DejaVuSans-39"/>
       <use x="127.246094" xlink:href="#DejaVuSans-38"/>
       <use x="190.869141" xlink:href="#DejaVuSans-30"/>
      </g>
     </g>
    </g>
    <g id="xtick_3">
     <g id="line2d_3">
      <g>
       <use style="stroke:#000000;stroke-width:0.8;" x="212.016817" xlink:href="#m089069e65c" y="303.64"/>
      </g>
     </g>
     <g id="text_3">
      <!-- 1990 -->
      <g transform="translate(199.291817 318.238437)scale(0.1 -0.1)">
       <use xlink:href="#DejaVuSans-31"/>
       <use x="63.623047" xlink:href="#DejaVuSans-39"/>
       <use x="127.246094" xlink:href="#DejaVuSans-39"/>
       <use x="190.869141" xlink:href="#DejaVuSans-30"/>
      </g>
     </g>
    </g>
    <g id="xtick_4">
     <g id="line2d_4">
      <g>
       <use style="stroke:#000000;stroke-width:0.8;" x="298.890225" xlink:href="#m089069e65c" y="303.64"/>
      </g>
     </g>
     <g id="text_4">
      <!-- 2000 -->
      <defs>
       <path d="M 19.1875 8.296875 
L 53.609375 8.296875 
L 53.609375 0 
L 7.328125 0 
L 7.328125 8.296875 
Q 12.9375 14.109375 22.625 23.890625 
Q 32.328125 33.6875 34.8125 36.53125 
Q 39.546875 41.84375 41.421875 45.53125 
Q 43.3125 49.21875 43.3125 52.78125 
Q 43.3125 58.59375 39.234375 62.25 
Q 35.15625 65.921875 28.609375 65.921875 
Q 23.96875 65.921875 18.8125 64.3125 
Q 13.671875 62.703125 7.8125 59.421875 
L 7.8125 69.390625 
Q 13.765625 71.78125 18.9375 73 
Q 24.125 74.21875 28.421875 74.21875 
Q 39.75 74.21875 46.484375 68.546875 
Q 53.21875 62.890625 53.21875 53.421875 
Q 53.21875 48.921875 51.53125 44.890625 
Q 49.859375 40.875 45.40625 35.40625 
Q 44.1875 33.984375 37.640625 27.21875 
Q 31.109375 20.453125 19.1875 8.296875 
z
" id="DejaVuSans-32"/>
      </defs>
      <g transform="translate(286.165225 318.238437)scale(0.1 -0.1)">
       <use xlink:href="#DejaVuSans-32"/>
       <use x="63.623047" xlink:href="#DejaVuSans-30"/>
       <use x="127.246094" xlink:href="#DejaVuSans-30"/>
       <use x="190.869141" xlink:href="#DejaVuSans-30"/>
      </g>
     </g>
    </g>
    <g id="xtick_5">
     <g id="line2d_5">
      <g>
       <use style="stroke:#000000;stroke-width:0.8;" x="385.763634" xlink:href="#m089069e65c" y="303.64"/>
      </g>
     </g>
     <g id="text_5">
      <!-- 2010 -->
      <g transform="translate(373.038634 318.238437)scale(0.1 -0.1)">
       <use xlink:href="#DejaVuSans-32"/>
       <use x="63.623047" xlink:href="#DejaVuSans-30"/>
       <use x="127.246094" xlink:href="#DejaVuSans-31"/>
       <use x="190.869141" xlink:href="#DejaVuSans-30"/>
      </g>
     </g>
    </g>
    <g id="text_6">
     <!-- year -->
     <defs>
      <path d="M 32.171875 -5.078125 
Q 28.375 -14.84375 24.75 -17.8125 
Q 21.140625 -20.796875 15.09375 -20.796875 
L 7.90625 -20.796875 
L 7.90625 -13.28125 
L 13.1875 -13.28125 
Q 16.890625 -13.28125 18.9375 -11.515625 
Q 21 -9.765625 23.484375 -3.21875 
L 25.09375 0.875 
L 2.984375 54.6875 
L 12.5 54.6875 
L 29.59375 11.921875 
L 46.6875 54.6875 
L 56.203125 54.6875 
z
" id="DejaVuSans-79"/>
      <path d="M 56.203125 29.59375 
L 56.203125 25.203125 
L 14.890625 25.203125 
Q 15.484375 15.921875 20.484375 11.0625 
Q 25.484375 6.203125 34.421875 6.203125 
Q 39.59375 6.203125 44.453125 7.46875 
Q 49.3125 8.734375 54.109375 11.28125 
L 54.109375 2.78125 
Q 49.265625 0.734375 44.1875 -0.34375 
Q 39.109375 -1.421875 33.890625 -1.421875 
Q 20.796875 -1.421875 13.15625 6.1875 
Q 5.515625 13.8125 5.515625 26.8125 
Q 5.515625 40.234375 12.765625 48.109375 
Q 20.015625 56 32.328125 56 
Q 43.359375 56 49.78125 48.890625 
Q 56.203125 41.796875 56.203125 29.59375 
z
M 47.21875 32.234375 
Q 47.125 39.59375 43.09375 43.984375 
Q 39.0625 48.390625 32.421875 48.390625 
Q 24.90625 48.390625 20.390625 44.140625 
Q 15.875 39.890625 15.1875 32.171875 
z
" id="DejaVuSans-65"/>
      <path d="M 34.28125 27.484375 
Q 23.390625 27.484375 19.1875 25 
Q 14.984375 22.515625 14.984375 16.5 
Q 14.984375 11.71875 18.140625 8.90625 
Q 21.296875 6.109375 26.703125 6.109375 
Q 34.1875 6.109375 38.703125 11.40625 
Q 43.21875 16.703125 43.21875 25.484375 
L 43.21875 27.484375 
z
M 52.203125 31.203125 
L 52.203125 0 
L 43.21875 0 
L 43.21875 8.296875 
Q 40.140625 3.328125 35.546875 0.953125 
Q 30.953125 -1.421875 24.3125 -1.421875 
Q 15.921875 -1.421875 10.953125 3.296875 
Q 6 8.015625 6 15.921875 
Q 6 25.140625 12.171875 29.828125 
Q 18.359375 34.515625 30.609375 34.515625 
L 43.21875 34.515625 
L 43.21875 35.40625 
Q 43.21875 41.609375 39.140625 45 
Q 35.0625 48.390625 27.6875 48.390625 
Q 23 48.390625 18.546875 47.265625 
Q 14.109375 46.140625 10.015625 43.890625 
L 10.015625 52.203125 
Q 14.9375 54.109375 19.578125 55.046875 
Q 24.21875 56 28.609375 56 
Q 40.484375 56 46.34375 49.84375 
Q 52.203125 43.703125 52.203125 31.203125 
z
" id="DejaVuSans-61"/>
      <path d="M 41.109375 46.296875 
Q 39.59375 47.171875 37.8125 47.578125 
Q 36.03125 48 33.890625 48 
Q 26.265625 48 22.1875 43.046875 
Q 18.109375 38.09375 18.109375 28.8125 
L 18.109375 0 
L 9.078125 0 
L 9.078125 54.6875 
L 18.109375 54.6875 
L 18.109375 46.1875 
Q 20.953125 51.171875 25.484375 53.578125 
Q 30.03125 56 36.53125 56 
Q 37.453125 56 38.578125 55.875 
Q 39.703125 55.765625 41.0625 55.515625 
z
" id="DejaVuSans-72"/>
     </defs>
     <g transform="translate(231.267041 331.916562)scale(0.1 -0.1)">
      <use xlink:href="#DejaVuSans-79"/>
      <use x="59.179688" xlink:href="#DejaVuSans-65"/>
      <use x="120.703125" xlink:href="#DejaVuSans-61"/>
      <use x="181.982422" xlink:href="#DejaVuSans-72"/>
     </g>
    </g>
   </g>
   <g id="matplotlib.axis_2">
    <g id="ytick_1">
     <g id="line2d_6">
      <defs>
       <path d="M 0 0 
L -3.5 0 
" id="m258c0596d9" style="stroke:#000000;stroke-width:0.8;"/>
      </defs>
      <g>
       <use style="stroke:#000000;stroke-width:0.8;" x="38.27" xlink:href="#m258c0596d9" y="303.64"/>
      </g>
     </g>
     <g id="text_7">
      <!-- 0 -->
      <g transform="translate(24.9075 307.439219)scale(0.1 -0.1)">
       <use xlink:href="#DejaVuSans-30"/>
      </g>
     </g>
    </g>
    <g id="ytick_2">
     <g id="line2d_7">
      <g>
       <use style="stroke:#000000;stroke-width:0.8;" x="38.27" xlink:href="#m258c0596d9" y="268.622878"/>
      </g>
     </g>
     <g id="text_8">
      <!-- 1 -->
      <g transform="translate(24.9075 272.422097)scale(0.1 -0.1)">
       <use xlink:href="#DejaVuSans-31"/>
      </g>
     </g>
    </g>
    <g id="ytick_3">
     <g id="line2d_8">
      <g>
       <use style="stroke:#000000;stroke-width:0.8;" x="38.27" xlink:href="#m258c0596d9" y="233.605756"/>
      </g>
     </g>
     <g id="text_9">
      <!-- 2 -->
      <g transform="translate(24.9075 237.404974)scale(0.1 -0.1)">
       <use xlink:href="#DejaVuSans-32"/>
      </g>
     </g>
    </g>
    <g id="ytick_4">
     <g id="line2d_9">
      <g>
       <use style="stroke:#000000;stroke-width:0.8;" x="38.27" xlink:href="#m258c0596d9" y="198.588633"/>
      </g>
     </g>
     <g id="text_10">
      <!-- 3 -->
      <defs>
       <path d="M 40.578125 39.3125 
Q 47.65625 37.796875 51.625 33 
Q 55.609375 28.21875 55.609375 21.1875 
Q 55.609375 10.40625 48.1875 4.484375 
Q 40.765625 -1.421875 27.09375 -1.421875 
Q 22.515625 -1.421875 17.65625 -0.515625 
Q 12.796875 0.390625 7.625 2.203125 
L 7.625 11.71875 
Q 11.71875 9.328125 16.59375 8.109375 
Q 21.484375 6.890625 26.8125 6.890625 
Q 36.078125 6.890625 40.9375 10.546875 
Q 45.796875 14.203125 45.796875 21.1875 
Q 45.796875 27.640625 41.28125 31.265625 
Q 36.765625 34.90625 28.71875 34.90625 
L 20.21875 34.90625 
L 20.21875 43.015625 
L 29.109375 43.015625 
Q 36.375 43.015625 40.234375 45.921875 
Q 44.09375 48.828125 44.09375 54.296875 
Q 44.09375 59.90625 40.109375 62.90625 
Q 36.140625 65.921875 28.71875 65.921875 
Q 24.65625 65.921875 20.015625 65.03125 
Q 15.375 64.15625 9.8125 62.3125 
L 9.8125 71.09375 
Q 15.4375 72.65625 20.34375 73.4375 
Q 25.25 74.21875 29.59375 74.21875 
Q 40.828125 74.21875 47.359375 69.109375 
Q 53.90625 64.015625 53.90625 55.328125 
Q 53.90625 49.265625 50.4375 45.09375 
Q 46.96875 40.921875 40.578125 39.3125 
z
" id="DejaVuSans-33"/>
      </defs>
      <g transform="translate(24.9075 202.387852)scale(0.1 -0.1)">
       <use xlink:href="#DejaVuSans-33"/>
      </g>
     </g>
    </g>
    <g id="ytick_5">
     <g id="line2d_10">
      <g>
       <use style="stroke:#000000;stroke-width:0.8;" x="38.27" xlink:href="#m258c0596d9" y="163.571511"/>
      </g>
     </g>
     <g id="text_11">
      <!-- 4 -->
      <defs>
       <path d="M 37.796875 64.3125 
L 12.890625 25.390625 
L 37.796875 25.390625 
z
M 35.203125 72.90625 
L 47.609375 72.90625 
L 47.609375 25.390625 
L 58.015625 25.390625 
L 58.015625 17.1875 
L 47.609375 17.1875 
L 47.609375 0 
L 37.796875 0 
L 37.796875 17.1875 
L 4.890625 17.1875 
L 4.890625 26.703125 
z
" id="DejaVuSans-34"/>
      </defs>
      <g transform="translate(24.9075 167.37073)scale(0.1 -0.1)">
       <use xlink:href="#DejaVuSans-34"/>
      </g>
     </g>
    </g>
    <g id="ytick_6">
     <g id="line2d_11">
      <g>
       <use style="stroke:#000000;stroke-width:0.8;" x="38.27" xlink:href="#m258c0596d9" y="128.554389"/>
      </g>
     </g>
     <g id="text_12">
      <!-- 5 -->
      <defs>
       <path d="M 10.796875 72.90625 
L 49.515625 72.90625 
L 49.515625 64.59375 
L 19.828125 64.59375 
L 19.828125 46.734375 
Q 21.96875 47.46875 24.109375 47.828125 
Q 26.265625 48.1875 28.421875 48.1875 
Q 40.625 48.1875 47.75 41.5 
Q 54.890625 34.8125 54.890625 23.390625 
Q 54.890625 11.625 47.5625 5.09375 
Q 40.234375 -1.421875 26.90625 -1.421875 
Q 22.3125 -1.421875 17.546875 -0.640625 
Q 12.796875 0.140625 7.71875 1.703125 
L 7.71875 11.625 
Q 12.109375 9.234375 16.796875 8.0625 
Q 21.484375 6.890625 26.703125 6.890625 
Q 35.15625 6.890625 40.078125 11.328125 
Q 45.015625 15.765625 45.015625 23.390625 
Q 45.015625 31 40.078125 35.4375 
Q 35.15625 39.890625 26.703125 39.890625 
Q 22.75 39.890625 18.8125 39.015625 
Q 14.890625 38.140625 10.796875 36.28125 
z
" id="DejaVuSans-35"/>
      </defs>
      <g transform="translate(24.9075 132.353608)scale(0.1 -0.1)">
       <use xlink:href="#DejaVuSans-35"/>
      </g>
     </g>
    </g>
    <g id="ytick_7">
     <g id="line2d_12">
      <g>
       <use style="stroke:#000000;stroke-width:0.8;" x="38.27" xlink:href="#m258c0596d9" y="93.537267"/>
      </g>
     </g>
     <g id="text_13">
      <!-- 6 -->
      <defs>
       <path d="M 33.015625 40.375 
Q 26.375 40.375 22.484375 35.828125 
Q 18.609375 31.296875 18.609375 23.390625 
Q 18.609375 15.53125 22.484375 10.953125 
Q 26.375 6.390625 33.015625 6.390625 
Q 39.65625 6.390625 43.53125 10.953125 
Q 47.40625 15.53125 47.40625 23.390625 
Q 47.40625 31.296875 43.53125 35.828125 
Q 39.65625 40.375 33.015625 40.375 
z
M 52.59375 71.296875 
L 52.59375 62.3125 
Q 48.875 64.0625 45.09375 64.984375 
Q 41.3125 65.921875 37.59375 65.921875 
Q 27.828125 65.921875 22.671875 59.328125 
Q 17.53125 52.734375 16.796875 39.40625 
Q 19.671875 43.65625 24.015625 45.921875 
Q 28.375 48.1875 33.59375 48.1875 
Q 44.578125 48.1875 50.953125 41.515625 
Q 57.328125 34.859375 57.328125 23.390625 
Q 57.328125 12.15625 50.6875 5.359375 
Q 44.046875 -1.421875 33.015625 -1.421875 
Q 20.359375 -1.421875 13.671875 8.265625 
Q 6.984375 17.96875 6.984375 36.375 
Q 6.984375 53.65625 15.1875 63.9375 
Q 23.390625 74.21875 37.203125 74.21875 
Q 40.921875 74.21875 44.703125 73.484375 
Q 48.484375 72.75 52.59375 71.296875 
z
" id="DejaVuSans-36"/>
      </defs>
      <g transform="translate(24.9075 97.336485)scale(0.1 -0.1)">
       <use xlink:href="#DejaVuSans-36"/>
      </g>
     </g>
    </g>
    <g id="ytick_8">
     <g id="line2d_13">
      <g>
       <use style="stroke:#000000;stroke-width:0.8;" x="38.27" xlink:href="#m258c0596d9" y="58.520144"/>
      </g>
     </g>
     <g id="text_14">
      <!-- 7 -->
      <g transform="translate(24.9075 62.319363)scale(0.1 -0.1)">
       <use xlink:href="#DejaVuSans-37"/>
      </g>
     </g>
    </g>
    <g id="ytick_9">
     <g id="line2d_14">
      <g>
       <use style="stroke:#000000;stroke-width:0.8;" x="38.27" xlink:href="#m258c0596d9" y="23.503022"/>
      </g>
     </g>
     <g id="text_15">
      <!-- 8 -->
      <g transform="translate(24.9075 27.302241)scale(0.1 -0.1)">
       <use xlink:href="#DejaVuSans-38"/>
      </g>
     </g>
    </g>
    <g id="text_16">
     <!-- fraction -->
     <defs>
      <path d="M 37.109375 75.984375 
L 37.109375 68.5 
L 28.515625 68.5 
Q 23.6875 68.5 21.796875 66.546875 
Q 19.921875 64.59375 19.921875 59.515625 
L 19.921875 54.6875 
L 34.71875 54.6875 
L 34.71875 47.703125 
L 19.921875 47.703125 
L 19.921875 0 
L 10.890625 0 
L 10.890625 47.703125 
L 2.296875 47.703125 
L 2.296875 54.6875 
L 10.890625 54.6875 
L 10.890625 58.5 
Q 10.890625 67.625 15.140625 71.796875 
Q 19.390625 75.984375 28.609375 75.984375 
z
" id="DejaVuSans-66"/>
      <path d="M 48.78125 52.59375 
L 48.78125 44.1875 
Q 44.96875 46.296875 41.140625 47.34375 
Q 37.3125 48.390625 33.40625 48.390625 
Q 24.65625 48.390625 19.8125 42.84375 
Q 14.984375 37.3125 14.984375 27.296875 
Q 14.984375 17.28125 19.8125 11.734375 
Q 24.65625 6.203125 33.40625 6.203125 
Q 37.3125 6.203125 41.140625 7.25 
Q 44.96875 8.296875 48.78125 10.40625 
L 48.78125 2.09375 
Q 45.015625 0.34375 40.984375 -0.53125 
Q 36.96875 -1.421875 32.421875 -1.421875 
Q 20.0625 -1.421875 12.78125 6.34375 
Q 5.515625 14.109375 5.515625 27.296875 
Q 5.515625 40.671875 12.859375 48.328125 
Q 20.21875 56 33.015625 56 
Q 37.15625 56 41.109375 55.140625 
Q 45.0625 54.296875 48.78125 52.59375 
z
" id="DejaVuSans-63"/>
      <path d="M 18.3125 70.21875 
L 18.3125 54.6875 
L 36.8125 54.6875 
L 36.8125 47.703125 
L 18.3125 47.703125 
L 18.3125 18.015625 
Q 18.3125 11.328125 20.140625 9.421875 
Q 21.96875 7.515625 27.59375 7.515625 
L 36.8125 7.515625 
L 36.8125 0 
L 27.59375 0 
Q 17.1875 0 13.234375 3.875 
Q 9.28125 7.765625 9.28125 18.015625 
L 9.28125 47.703125 
L 2.6875 47.703125 
L 2.6875 54.6875 
L 9.28125 54.6875 
L 9.28125 70.21875 
z
" id="DejaVuSans-74"/>
      <path d="M 9.421875 54.6875 
L 18.40625 54.6875 
L 18.40625 0 
L 9.421875 0 
z
M 9.421875 75.984375 
L 18.40625 75.984375 
L 18.40625 64.59375 
L 9.421875 64.59375 
z
" id="DejaVuSans-69"/>
      <path d="M 30.609375 48.390625 
Q 23.390625 48.390625 19.1875 42.75 
Q 14.984375 37.109375 14.984375 27.296875 
Q 14.984375 17.484375 19.15625 11.84375 
Q 23.34375 6.203125 30.609375 6.203125 
Q 37.796875 6.203125 41.984375 11.859375 
Q 46.1875 17.53125 46.1875 27.296875 
Q 46.1875 37.015625 41.984375 42.703125 
Q 37.796875 48.390625 30.609375 48.390625 
z
M 30.609375 56 
Q 42.328125 56 49.015625 48.375 
Q 55.71875 40.765625 55.71875 27.296875 
Q 55.71875 13.875 49.015625 6.21875 
Q 42.328125 -1.421875 30.609375 -1.421875 
Q 18.84375 -1.421875 12.171875 6.21875 
Q 5.515625 13.875 5.515625 27.296875 
Q 5.515625 40.765625 12.171875 48.375 
Q 18.84375 56 30.609375 56 
z
" id="DejaVuSans-6f"/>
      <path d="M 54.890625 33.015625 
L 54.890625 0 
L 45.90625 0 
L 45.90625 32.71875 
Q 45.90625 40.484375 42.875 44.328125 
Q 39.84375 48.1875 33.796875 48.1875 
Q 26.515625 48.1875 22.3125 43.546875 
Q 18.109375 38.921875 18.109375 30.90625 
L 18.109375 0 
L 9.078125 0 
L 9.078125 54.6875 
L 18.109375 54.6875 
L 18.109375 46.1875 
Q 21.34375 51.125 25.703125 53.5625 
Q 30.078125 56 35.796875 56 
Q 45.21875 56 50.046875 50.171875 
Q 54.890625 44.34375 54.890625 33.015625 
z
" id="DejaVuSans-6e"/>
     </defs>
     <g transform="translate(18.827813 181.88625)rotate(-90)scale(0.1 -0.1)">
      <use xlink:href="#DejaVuSans-66"/>
      <use x="35.205078" xlink:href="#DejaVuSans-72"/>
      <use x="76.318359" xlink:href="#DejaVuSans-61"/>
      <use x="137.597656" xlink:href="#DejaVuSans-63"/>
      <use x="192.578125" xlink:href="#DejaVuSans-74"/>
      <use x="231.787109" xlink:href="#DejaVuSans-69"/>
      <use x="259.570312" xlink:href="#DejaVuSans-6f"/>
      <use x="320.751953" xlink:href="#DejaVuSans-6e"/>
     </g>
    </g>
    <g id="text_17">
     <!-- 1e4 -->
     <defs>
      <path d="M 10.59375 35.5 
L 73.1875 35.5 
L 73.1875 27.203125 
L 10.59375 27.203125 
z
" id="DejaVuSans-2212"/>
     </defs>
     <g transform="translate(38.27 18.72)scale(0.1 -0.1)">
      <use xlink:href="#DejaVuSans-31"/>
      <use x="63.623047" xlink:href="#DejaVuSans-65"/>
      <use x="125.146484" xlink:href="#DejaVuSans-2212"/>
      <use x="208.935547" xlink:href="#DejaVuSans-34"/>
     </g>
    </g>
   </g>
   <g id="line2d_15">
    <path clip-path="url(#pb6dd3a40aa)" d="M 459.606031 214.475537 
L 450.91869 214.475537 
L 450.91869 219.9857 
L 442.231349 219.9857 
L 442.231349 226.831661 
L 433.544008 226.831661 
L 433.544008 232.258337 
L 424.856668 232.258337 
L 424.856668 245.491078 
L 416.169327 245.491078 
L 416.169327 279.553907 
L 407.481986 279.553907 
L 407.481986 292.70316 
L 398.794645 292.70316 
L 398.794645 290.595105 
L 390.107304 290.595105 
L 390.107304 291.743056 
L 381.419963 291.743056 
L 381.419963 289.676745 
L 372.732623 289.676745 
L 372.732623 291.910031 
L 364.045282 291.910031 
L 364.045282 292.494442 
L 346.6706 292.431827 
L 346.6706 294.143317 
L 337.983259 294.143317 
L 337.983259 297.065373 
L 320.608577 297.14886 
L 320.608577 298.067221 
L 311.921237 298.067221 
L 311.921237 295.959166 
L 303.233896 295.959166 
L 303.233896 298.380299 
L 294.546555 298.380299 
L 294.546555 298.672504 
L 285.859214 298.672504 
L 285.859214 299.945686 
L 277.171873 299.945686 
L 277.171873 299.799583 
L 268.484532 299.799583 
L 268.484532 302.116356 
L 259.797192 302.116356 
L 259.797192 301.302355 
L 251.109851 301.302355 
L 251.109851 299.65348 
L 233.735169 299.549121 
L 233.735169 300.279635 
L 225.047828 300.279635 
L 225.047828 303.64 
L 216.360487 303.64 
L 216.360487 302.784255 
L 207.673146 302.784255 
L 207.673146 303.64 
L 198.985806 303.64 
L 198.985806 302.742511 
L 181.611124 302.679896 
L 181.611124 303.64 
L 146.861761 303.64 
L 146.861761 302.450306 
L 138.17442 302.450306 
L 138.17442 303.64 
L 86.050375 303.64 
L 86.050375 302.241587 
L 77.363034 302.241587 
L 77.363034 303.64 
L -1 303.64 
L -1 303.64 
" style="fill:none;stroke:#1f77b4;stroke-linecap:square;stroke-width:1.5;"/>
   </g>
   <g id="line2d_16">
    <path clip-path="url(#pb6dd3a40aa)" d="M 459.606031 228.751869 
L 450.91869 228.751869 
L 450.91869 206.711215 
L 442.231349 206.711215 
L 442.231349 197.19366 
L 433.544008 197.19366 
L 433.544008 191.933959 
L 424.856668 191.933959 
L 424.856668 188.010054 
L 416.169327 188.010054 
L 416.169327 184.754049 
L 407.481986 184.754049 
L 407.481986 183.16779 
L 398.794645 183.16779 
L 398.794645 188.427491 
L 381.419963 188.427491 
L 381.419963 177.073215 
L 372.732623 177.073215 
L 372.732623 176.321829 
L 364.045282 176.321829 
L 364.045282 174.485108 
L 355.357941 174.485108 
L 355.357941 185.839384 
L 346.6706 185.839384 
L 346.6706 193.854167 
L 337.983259 193.854167 
L 337.983259 199.364331 
L 320.608577 199.447818 
L 320.608577 214.559024 
L 311.921237 214.559024 
L 311.921237 224.619247 
L 303.233896 224.619247 
L 303.233896 219.443032 
L 294.546555 219.443032 
L 294.546555 221.989396 
L 285.859214 221.989396 
L 285.859214 224.702734 
L 277.171873 224.702734 
L 277.171873 224.99494 
L 268.484532 224.99494 
L 268.484532 230.797309 
L 259.797192 230.797309 
L 259.797192 240.690557 
L 251.109851 240.690557 
L 251.109851 246.20072 
L 242.42251 246.20072 
L 242.42251 258.640332 
L 233.735169 258.640332 
L 233.735169 266.446397 
L 225.047828 266.446397 
L 225.047828 271.580867 
L 216.360487 271.580867 
L 216.360487 277.717186 
L 207.673146 277.717186 
L 207.673146 289.948079 
L 198.985806 289.948079 
L 198.985806 293.892855 
L 190.298465 293.892855 
L 190.298465 295.249524 
L 181.611124 295.249524 
L 181.611124 295.917422 
L 164.236442 296.021782 
L 164.236442 295.708704 
L 155.549101 295.708704 
L 155.549101 295.833935 
L 146.861761 295.833935 
L 146.861761 296.627065 
L 138.17442 296.627065 
L 138.17442 297.399322 
L 129.487079 297.399322 
L 129.487079 297.545425 
L 120.799738 297.545425 
L 120.799738 297.754144 
L 112.112397 297.754144 
L 112.112397 298.004606 
L 103.425056 298.004606 
L 103.425056 298.547273 
L 86.050375 298.589017 
L 86.050375 298.96471 
L 77.363034 298.96471 
L 77.363034 302.241587 
L 68.675693 302.241587 
L 68.675693 302.554665 
L 59.988352 302.554665 
L 59.988352 302.366818 
L 42.61367 302.366818 
L 42.61367 302.721639 
L 33.92633 302.721639 
L 33.92633 302.888614 
L 16.551648 302.930358 
L 16.551648 302.596408 
L 7.864307 302.596408 
L 7.864307 302.429434 
L -0.823034 302.429434 
L -0.823034 302.137228 
L -1 302.137228 
L -1 302.137228 
" style="fill:none;stroke:#ff7f0e;stroke-linecap:square;stroke-width:1.5;"/>
   </g>
   <g id="line2d_17">
    <path clip-path="url(#pb6dd3a40aa)" d="M 459.606031 117.129315 
L 450.91869 117.129315 
L 450.91869 47.333911 
L 442.231349 47.333911 
L 442.231349 35.144762 
L 433.544008 35.144762 
L 433.544008 71.71221 
L 424.856668 71.71221 
L 424.856668 97.259332 
L 416.169327 97.259332 
L 416.169327 164.550116 
L 407.481986 164.550116 
L 407.481986 180.329221 
L 398.794645 180.329221 
L 398.794645 184.169638 
L 390.107304 184.169638 
L 390.107304 215.143435 
L 381.419963 215.143435 
L 381.419963 203.037773 
L 372.732623 203.037773 
L 372.732623 204.791007 
L 364.045282 204.791007 
L 364.045282 216.312258 
L 355.357941 216.312258 
L 355.357941 216.729694 
L 346.6706 216.729694 
L 346.6706 223.032987 
L 337.983259 223.032987 
L 337.983259 242.77774 
L 329.295918 242.77774 
L 329.295918 243.529126 
L 320.608577 243.529126 
L 320.608577 242.902971 
L 311.921237 242.902971 
L 311.921237 252.46227 
L 303.233896 252.46227 
L 303.233896 264.818394 
L 294.546555 264.818394 
L 294.546555 268.867529 
L 277.171873 268.951016 
L 277.171873 276.026567 
L 268.484532 276.026567 
L 268.484532 279.971343 
L 259.797192 279.971343 
L 259.797192 281.787193 
L 251.109851 281.787193 
L 251.109851 289.259308 
L 242.42251 289.259308 
L 242.42251 291.346491 
L 233.735169 291.346491 
L 233.735169 298.609889 
L 225.047828 298.609889 
L 225.047828 299.403018 
L 216.360487 299.403018 
L 216.360487 300.237891 
L 207.673146 300.237891 
L 207.673146 301.031021 
L 198.985806 301.031021 
L 198.985806 303.64 
L 181.611124 303.64 
L 181.611124 302.638152 
L 155.549101 302.533793 
L 155.549101 303.64 
L -0.823034 303.64 
L -0.823034 301.657176 
L -1 301.657176 
L -1 301.657176 
" style="fill:none;stroke:#2ca02c;stroke-linecap:square;stroke-width:1.5;"/>
   </g>
   <g id="patch_210">
    <path d="M 38.27 303.64 
L 38.27 21.72 
" style="fill:none;stroke:#000000;stroke-linecap:square;stroke-linejoin:miter;stroke-width:0.8;"/>
   </g>
   <g id="patch_211">
    <path d="M 446.57502 303.64 
L 446.57502 21.72 
" style="fill:none;stroke:#000000;stroke-linecap:square;stroke-linejoin:miter;stroke-width:0.8;"/>
   </g>
   <g id="patch_212">
    <path d="M 38.27 303.64 
L 446.57502 303.64 
" style="fill:none;stroke:#000000;stroke-linecap:square;stroke-linejoin:miter;stroke-width:0.8;"/>
   </g>
   <g id="patch_213">
    <path d="M 38.27 21.72 
L 446.57502 21.72 
" style="fill:none;stroke:#000000;stroke-linecap:square;stroke-linejoin:miter;stroke-width:0.8;"/>
   </g>
   <g id="legend_1">
    <g id="patch_214">
     <path d="M 45.27 73.754375 
L 241.491875 73.754375 
Q 243.491875 73.754375 243.491875 71.754375 
L 243.491875 28.72 
Q 243.491875 26.72 241.491875 26.72 
L 45.27 26.72 
Q 43.27 26.72 43.27 28.72 
L 43.27 71.754375 
Q 43.27 73.754375 45.27 73.754375 
z
" style="fill:#ffffff;opacity:0.8;stroke:#cccccc;stroke-linejoin:miter;"/>
    </g>
    <g id="patch_215">
     <path d="M 47.27 38.318438 
L 67.27 38.318438 
L 67.27 31.318438 
L 47.27 31.318438 
z
" style="fill:#1f77b4;opacity:0.3;"/>
    </g>
    <g id="text_18">
     <!-- collaboration neuroscience -->
     <defs>
      <path d="M 9.421875 75.984375 
L 18.40625 75.984375 
L 18.40625 0 
L 9.421875 0 
z
" id="DejaVuSans-6c"/>
      <path d="M 48.6875 27.296875 
Q 48.6875 37.203125 44.609375 42.84375 
Q 40.53125 48.484375 33.40625 48.484375 
Q 26.265625 48.484375 22.1875 42.84375 
Q 18.109375 37.203125 18.109375 27.296875 
Q 18.109375 17.390625 22.1875 11.75 
Q 26.265625 6.109375 33.40625 6.109375 
Q 40.53125 6.109375 44.609375 11.75 
Q 48.6875 17.390625 48.6875 27.296875 
z
M 18.109375 46.390625 
Q 20.953125 51.265625 25.265625 53.625 
Q 29.59375 56 35.59375 56 
Q 45.5625 56 51.78125 48.09375 
Q 58.015625 40.1875 58.015625 27.296875 
Q 58.015625 14.40625 51.78125 6.484375 
Q 45.5625 -1.421875 35.59375 -1.421875 
Q 29.59375 -1.421875 25.265625 0.953125 
Q 20.953125 3.328125 18.109375 8.203125 
L 18.109375 0 
L 9.078125 0 
L 9.078125 75.984375 
L 18.109375 75.984375 
z
" id="DejaVuSans-62"/>
      <path id="DejaVuSans-20"/>
      <path d="M 8.5 21.578125 
L 8.5 54.6875 
L 17.484375 54.6875 
L 17.484375 21.921875 
Q 17.484375 14.15625 20.5 10.265625 
Q 23.53125 6.390625 29.59375 6.390625 
Q 36.859375 6.390625 41.078125 11.03125 
Q 45.3125 15.671875 45.3125 23.6875 
L 45.3125 54.6875 
L 54.296875 54.6875 
L 54.296875 0 
L 45.3125 0 
L 45.3125 8.40625 
Q 42.046875 3.421875 37.71875 1 
Q 33.40625 -1.421875 27.6875 -1.421875 
Q 18.265625 -1.421875 13.375 4.4375 
Q 8.5 10.296875 8.5 21.578125 
z
M 31.109375 56 
z
" id="DejaVuSans-75"/>
      <path d="M 44.28125 53.078125 
L 44.28125 44.578125 
Q 40.484375 46.53125 36.375 47.5 
Q 32.28125 48.484375 27.875 48.484375 
Q 21.1875 48.484375 17.84375 46.4375 
Q 14.5 44.390625 14.5 40.28125 
Q 14.5 37.15625 16.890625 35.375 
Q 19.28125 33.59375 26.515625 31.984375 
L 29.59375 31.296875 
Q 39.15625 29.25 43.1875 25.515625 
Q 47.21875 21.78125 47.21875 15.09375 
Q 47.21875 7.46875 41.1875 3.015625 
Q 35.15625 -1.421875 24.609375 -1.421875 
Q 20.21875 -1.421875 15.453125 -0.5625 
Q 10.6875 0.296875 5.421875 2 
L 5.421875 11.28125 
Q 10.40625 8.6875 15.234375 7.390625 
Q 20.0625 6.109375 24.8125 6.109375 
Q 31.15625 6.109375 34.5625 8.28125 
Q 37.984375 10.453125 37.984375 14.40625 
Q 37.984375 18.0625 35.515625 20.015625 
Q 33.0625 21.96875 24.703125 23.78125 
L 21.578125 24.515625 
Q 13.234375 26.265625 9.515625 29.90625 
Q 5.8125 33.546875 5.8125 39.890625 
Q 5.8125 47.609375 11.28125 51.796875 
Q 16.75 56 26.8125 56 
Q 31.78125 56 36.171875 55.265625 
Q 40.578125 54.546875 44.28125 53.078125 
z
" id="DejaVuSans-73"/>
     </defs>
     <g transform="translate(75.27 38.318438)scale(0.1 -0.1)">
      <use xlink:href="#DejaVuSans-63"/>
      <use x="54.980469" xlink:href="#DejaVuSans-6f"/>
      <use x="116.162109" xlink:href="#DejaVuSans-6c"/>
      <use x="143.945312" xlink:href="#DejaVuSans-6c"/>
      <use x="171.728516" xlink:href="#DejaVuSans-61"/>
      <use x="233.007812" xlink:href="#DejaVuSans-62"/>
      <use x="296.484375" xlink:href="#DejaVuSans-6f"/>
      <use x="357.666016" xlink:href="#DejaVuSans-72"/>
      <use x="398.779297" xlink:href="#DejaVuSans-61"/>
      <use x="460.058594" xlink:href="#DejaVuSans-74"/>
      <use x="499.267578" xlink:href="#DejaVuSans-69"/>
      <use x="527.050781" xlink:href="#DejaVuSans-6f"/>
      <use x="588.232422" xlink:href="#DejaVuSans-6e"/>
      <use x="651.611328" xlink:href="#DejaVuSans-20"/>
      <use x="683.398438" xlink:href="#DejaVuSans-6e"/>
      <use x="746.777344" xlink:href="#DejaVuSans-65"/>
      <use x="808.300781" xlink:href="#DejaVuSans-75"/>
      <use x="871.679688" xlink:href="#DejaVuSans-72"/>
      <use x="912.761719" xlink:href="#DejaVuSans-6f"/>
      <use x="973.943359" xlink:href="#DejaVuSans-73"/>
      <use x="1026.042969" xlink:href="#DejaVuSans-63"/>
      <use x="1081.023438" xlink:href="#DejaVuSans-69"/>
      <use x="1108.806641" xlink:href="#DejaVuSans-65"/>
      <use x="1170.330078" xlink:href="#DejaVuSans-6e"/>
      <use x="1233.708984" xlink:href="#DejaVuSans-63"/>
      <use x="1288.689453" xlink:href="#DejaVuSans-65"/>
     </g>
    </g>
    <g id="patch_216">
     <path d="M 47.27 52.996563 
L 67.27 52.996563 
L 67.27 45.996563 
L 47.27 45.996563 
z
" style="fill:#ff7f0e;opacity:0.3;"/>
    </g>
    <g id="text_19">
     <!-- reproducibility (downscaled x75) -->
     <defs>
      <path d="M 18.109375 8.203125 
L 18.109375 -20.796875 
L 9.078125 -20.796875 
L 9.078125 54.6875 
L 18.109375 54.6875 
L 18.109375 46.390625 
Q 20.953125 51.265625 25.265625 53.625 
Q 29.59375 56 35.59375 56 
Q 45.5625 56 51.78125 48.09375 
Q 58.015625 40.1875 58.015625 27.296875 
Q 58.015625 14.40625 51.78125 6.484375 
Q 45.5625 -1.421875 35.59375 -1.421875 
Q 29.59375 -1.421875 25.265625 0.953125 
Q 20.953125 3.328125 18.109375 8.203125 
z
M 48.6875 27.296875 
Q 48.6875 37.203125 44.609375 42.84375 
Q 40.53125 48.484375 33.40625 48.484375 
Q 26.265625 48.484375 22.1875 42.84375 
Q 18.109375 37.203125 18.109375 27.296875 
Q 18.109375 17.390625 22.1875 11.75 
Q 26.265625 6.109375 33.40625 6.109375 
Q 40.53125 6.109375 44.609375 11.75 
Q 48.6875 17.390625 48.6875 27.296875 
z
" id="DejaVuSans-70"/>
      <path d="M 45.40625 46.390625 
L 45.40625 75.984375 
L 54.390625 75.984375 
L 54.390625 0 
L 45.40625 0 
L 45.40625 8.203125 
Q 42.578125 3.328125 38.25 0.953125 
Q 33.9375 -1.421875 27.875 -1.421875 
Q 17.96875 -1.421875 11.734375 6.484375 
Q 5.515625 14.40625 5.515625 27.296875 
Q 5.515625 40.1875 11.734375 48.09375 
Q 17.96875 56 27.875 56 
Q 33.9375 56 38.25 53.625 
Q 42.578125 51.265625 45.40625 46.390625 
z
M 14.796875 27.296875 
Q 14.796875 17.390625 18.875 11.75 
Q 22.953125 6.109375 30.078125 6.109375 
Q 37.203125 6.109375 41.296875 11.75 
Q 45.40625 17.390625 45.40625 27.296875 
Q 45.40625 37.203125 41.296875 42.84375 
Q 37.203125 48.484375 30.078125 48.484375 
Q 22.953125 48.484375 18.875 42.84375 
Q 14.796875 37.203125 14.796875 27.296875 
z
" id="DejaVuSans-64"/>
      <path d="M 31 75.875 
Q 24.46875 64.65625 21.28125 53.65625 
Q 18.109375 42.671875 18.109375 31.390625 
Q 18.109375 20.125 21.3125 9.0625 
Q 24.515625 -2 31 -13.1875 
L 23.1875 -13.1875 
Q 15.875 -1.703125 12.234375 9.375 
Q 8.59375 20.453125 8.59375 31.390625 
Q 8.59375 42.28125 12.203125 53.3125 
Q 15.828125 64.359375 23.1875 75.875 
z
" id="DejaVuSans-28"/>
      <path d="M 4.203125 54.6875 
L 13.1875 54.6875 
L 24.421875 12.015625 
L 35.59375 54.6875 
L 46.1875 54.6875 
L 57.421875 12.015625 
L 68.609375 54.6875 
L 77.59375 54.6875 
L 63.28125 0 
L 52.6875 0 
L 40.921875 44.828125 
L 29.109375 0 
L 18.5 0 
z
" id="DejaVuSans-77"/>
      <path d="M 54.890625 54.6875 
L 35.109375 28.078125 
L 55.90625 0 
L 45.3125 0 
L 29.390625 21.484375 
L 13.484375 0 
L 2.875 0 
L 24.125 28.609375 
L 4.6875 54.6875 
L 15.28125 54.6875 
L 29.78125 35.203125 
L 44.28125 54.6875 
z
" id="DejaVuSans-78"/>
      <path d="M 8.015625 75.875 
L 15.828125 75.875 
Q 23.140625 64.359375 26.78125 53.3125 
Q 30.421875 42.28125 30.421875 31.390625 
Q 30.421875 20.453125 26.78125 9.375 
Q 23.140625 -1.703125 15.828125 -13.1875 
L 8.015625 -13.1875 
Q 14.5 -2 17.703125 9.0625 
Q 20.90625 20.125 20.90625 31.390625 
Q 20.90625 42.671875 17.703125 53.65625 
Q 14.5 64.65625 8.015625 75.875 
z
" id="DejaVuSans-29"/>
     </defs>
     <g transform="translate(75.27 52.996563)scale(0.1 -0.1)">
      <use xlink:href="#DejaVuSans-72"/>
      <use x="41.082031" xlink:href="#DejaVuSans-65"/>
      <use x="102.605469" xlink:href="#DejaVuSans-70"/>
      <use x="166.082031" xlink:href="#DejaVuSans-72"/>
      <use x="207.164062" xlink:href="#DejaVuSans-6f"/>
      <use x="268.345703" xlink:href="#DejaVuSans-64"/>
      <use x="331.822266" xlink:href="#DejaVuSans-75"/>
      <use x="395.201172" xlink:href="#DejaVuSans-63"/>
      <use x="450.181641" xlink:href="#DejaVuSans-69"/>
      <use x="477.964844" xlink:href="#DejaVuSans-62"/>
      <use x="541.441406" xlink:href="#DejaVuSans-69"/>
      <use x="569.224609" xlink:href="#DejaVuSans-6c"/>
      <use x="597.007812" xlink:href="#DejaVuSans-69"/>
      <use x="624.791016" xlink:href="#DejaVuSans-74"/>
      <use x="664" xlink:href="#DejaVuSans-79"/>
      <use x="723.179688" xlink:href="#DejaVuSans-20"/>
      <use x="754.966797" xlink:href="#DejaVuSans-28"/>
      <use x="793.980469" xlink:href="#DejaVuSans-64"/>
      <use x="857.457031" xlink:href="#DejaVuSans-6f"/>
      <use x="918.638672" xlink:href="#DejaVuSans-77"/>
      <use x="1000.425781" xlink:href="#DejaVuSans-6e"/>
      <use x="1063.804688" xlink:href="#DejaVuSans-73"/>
      <use x="1115.904297" xlink:href="#DejaVuSans-63"/>
      <use x="1170.884766" xlink:href="#DejaVuSans-61"/>
      <use x="1232.164062" xlink:href="#DejaVuSans-6c"/>
      <use x="1259.947266" xlink:href="#DejaVuSans-65"/>
      <use x="1321.470703" xlink:href="#DejaVuSans-64"/>
      <use x="1384.947266" xlink:href="#DejaVuSans-20"/>
      <use x="1416.734375" xlink:href="#DejaVuSans-78"/>
      <use x="1475.914062" xlink:href="#DejaVuSans-37"/>
      <use x="1539.537109" xlink:href="#DejaVuSans-35"/>
      <use x="1603.160156" xlink:href="#DejaVuSans-29"/>
     </g>
    </g>
    <g id="patch_217">
     <path d="M 47.27 67.674688 
L 67.27 67.674688 
L 67.27 60.674688 
L 47.27 60.674688 
z
" style="fill:#2ca02c;opacity:0.3;"/>
    </g>
    <g id="text_20">
     <!-- reproducibility neuroscience -->
     <g transform="translate(75.27 67.674688)scale(0.1 -0.1)">
      <use xlink:href="#DejaVuSans-72"/>
      <use x="41.082031" xlink:href="#DejaVuSans-65"/>
      <use x="102.605469" xlink:href="#DejaVuSans-70"/>
      <use x="166.082031" xlink:href="#DejaVuSans-72"/>
      <use x="207.164062" xlink:href="#DejaVuSans-6f"/>
      <use x="268.345703" xlink:href="#DejaVuSans-64"/>
      <use x="331.822266" xlink:href="#DejaVuSans-75"/>
      <use x="395.201172" xlink:href="#DejaVuSans-63"/>
      <use x="450.181641" xlink:href="#DejaVuSans-69"/>
      <use x="477.964844" xlink:href="#DejaVuSans-62"/>
      <use x="541.441406" xlink:href="#DejaVuSans-69"/>
      <use x="569.224609" xlink:href="#DejaVuSans-6c"/>
      <use x="597.007812" xlink:href="#DejaVuSans-69"/>
      <use x="624.791016" xlink:href="#DejaVuSans-74"/>
      <use x="664" xlink:href="#DejaVuSans-79"/>
      <use x="723.179688" xlink:href="#DejaVuSans-20"/>
      <use x="754.966797" xlink:href="#DejaVuSans-6e"/>
      <use x="818.345703" xlink:href="#DejaVuSans-65"/>
      <use x="879.869141" xlink:href="#DejaVuSans-75"/>
      <use x="943.248047" xlink:href="#DejaVuSans-72"/>
      <use x="984.330078" xlink:href="#DejaVuSans-6f"/>
      <use x="1045.511719" xlink:href="#DejaVuSans-73"/>
      <use x="1097.611328" xlink:href="#DejaVuSans-63"/>
      <use x="1152.591797" xlink:href="#DejaVuSans-69"/>
      <use x="1180.375" xlink:href="#DejaVuSans-65"/>
      <use x="1241.898438" xlink:href="#DejaVuSans-6e"/>
      <use x="1305.277344" xlink:href="#DejaVuSans-63"/>
      <use x="1360.257812" xlink:href="#DejaVuSans-65"/>
     </g>
    </g>
   </g>
  </g>
 </g>
 <defs>
  <clipPath id="pb6dd3a40aa">
   <rect height="281.92" width="408.30502" x="38.27" y="21.72"/>
  </clipPath>
 </defs>
</svg>
