<?xml version="1.0" encoding="UTF-8" standalone="no"?>
<!DOCTYPE svg PUBLIC "-//W3C//DTD SVG 1.1//EN"
 "http://www.w3.org/Graphics/SVG/1.1/DTD/svg11.dtd">
<!-- Generated by graphviz version 2.40.1 (20161225.0304)
 -->
<!-- Title: snakemake_dag Pages: 1 -->
<svg width="1484pt" height="121pt"
 viewBox="0.00 0.00 1483.50 121.00" xmlns="http://www.w3.org/2000/svg" xmlns:xlink="http://www.w3.org/1999/xlink">
<g id="graph0" class="graph" transform="scale(1 1) rotate(0) translate(4 117)">
<title>snakemake_dag</title>
<polygon fill="#ffffff" stroke="transparent" points="-4,4 -4,-117 1479.5,-117 1479.5,4 -4,4"/>
<!-- 0 -->
<g id="node1" class="node">
<title>0</title>
<path fill="none" stroke="#c6d856" stroke-width="2" d="M843.5,-36C843.5,-36 715.5,-36 715.5,-36 709.5,-36 703.5,-30 703.5,-24 703.5,-24 703.5,-12 703.5,-12 703.5,-6 709.5,0 715.5,0 715.5,0 843.5,0 843.5,0 849.5,0 855.5,-6 855.5,-12 855.5,-12 855.5,-24 855.5,-24 855.5,-30 849.5,-36 843.5,-36"/>
<text text-anchor="middle" x="779.5" y="-15.5" font-family="sans" font-size="10.00" fill="#000000">run_all_preprocessing_apps</text>
</g>
<!-- 1 -->
<g id="node2" class="node">
<title>1</title>
<path fill="none" stroke="#afd856" stroke-width="2" d="M185,-113C185,-113 12,-113 12,-113 6,-113 0,-107 0,-101 0,-101 0,-84 0,-84 0,-78 6,-72 12,-72 12,-72 185,-72 185,-72 191,-72 197,-78 197,-84 197,-84 197,-101 197,-101 197,-107 191,-113 185,-113"/>
<text text-anchor="middle" x="98.5" y="-101" font-family="sans" font-size="10.00" fill="#000000">run_metadata_app</text>
<text text-anchor="middle" x="98.5" y="-90" font-family="sans" font-size="10.00" fill="#000000">app: app_create_channel_descriptors</text>
<text text-anchor="middle" x="98.5" y="-79" font-family="sans" font-size="10.00" fill="#000000">session: y180116&#45;land&#45;001</text>
</g>
<!-- 1&#45;&gt;0 -->
<g id="edge1" class="edge">
<title>1&#45;&gt;0</title>
<path fill="none" stroke="#c0c0c0" stroke-width="2" d="M197.0252,-73.4046C200.2176,-72.9119 203.3822,-72.4418 206.5,-72 378.2264,-47.6646 580.5128,-31.5038 692.965,-23.6203"/>
<polygon fill="#c0c0c0" stroke="#c0c0c0" stroke-width="2" points="693.4975,-27.0918 703.2305,-22.9062 693.0117,-20.1087 693.4975,-27.0918"/>
</g>
<!-- 2 -->
<g id="node3" class="node">
<title>2</title>
<path fill="none" stroke="#afd856" stroke-width="2" d="M351.5,-113C351.5,-113 227.5,-113 227.5,-113 221.5,-113 215.5,-107 215.5,-101 215.5,-101 215.5,-84 215.5,-84 215.5,-78 221.5,-72 227.5,-72 227.5,-72 351.5,-72 351.5,-72 357.5,-72 363.5,-78 363.5,-84 363.5,-84 363.5,-101 363.5,-101 363.5,-107 357.5,-113 351.5,-113"/>
<text text-anchor="middle" x="289.5" y="-101" font-family="sans" font-size="10.00" fill="#000000">run_metadata_app</text>
<text text-anchor="middle" x="289.5" y="-90" font-family="sans" font-size="10.00" fill="#000000">app: app_overview_plot</text>
<text text-anchor="middle" x="289.5" y="-79" font-family="sans" font-size="10.00" fill="#000000">session: y180116&#45;land&#45;001</text>
</g>
<!-- 2&#45;&gt;0 -->
<g id="edge2" class="edge">
<title>2&#45;&gt;0</title>
<path fill="none" stroke="#c0c0c0" stroke-width="2" d="M363.6229,-73.7631C366.6156,-73.1428 369.5832,-72.552 372.5,-72 482.424,-51.1984 610.5471,-35.6056 693.234,-26.6537"/>
<polygon fill="#c0c0c0" stroke="#c0c0c0" stroke-width="2" points="693.7697,-30.1164 703.3387,-25.5683 693.022,-23.1564 693.7697,-30.1164"/>
</g>
<!-- 3 -->
<g id="node4" class="node">
<title>3</title>
<path fill="none" stroke="#afd856" stroke-width="2" d="M517.5,-113C517.5,-113 393.5,-113 393.5,-113 387.5,-113 381.5,-107 381.5,-101 381.5,-101 381.5,-84 381.5,-84 381.5,-78 387.5,-72 393.5,-72 393.5,-72 517.5,-72 517.5,-72 523.5,-72 529.5,-78 529.5,-84 529.5,-84 529.5,-101 529.5,-101 529.5,-107 523.5,-113 517.5,-113"/>
<text text-anchor="middle" x="455.5" y="-101" font-family="sans" font-size="10.00" fill="#000000">run_metadata_app</text>
<text text-anchor="middle" x="455.5" y="-90" font-family="sans" font-size="10.00" fill="#000000">app: app_all_files_exist</text>
<text text-anchor="middle" x="455.5" y="-79" font-family="sans" font-size="10.00" fill="#000000">session: y180116&#45;land&#45;001</text>
</g>
<!-- 3&#45;&gt;0 -->
<g id="edge3" class="edge">
<title>3&#45;&gt;0</title>
<path fill="none" stroke="#c0c0c0" stroke-width="2" d="M529.6924,-74.0907C532.6659,-73.3797 535.6105,-72.6805 538.5,-72 589.8255,-59.9129 647.4535,-46.9774 693.4849,-36.7978"/>
<polygon fill="#c0c0c0" stroke="#c0c0c0" stroke-width="2" points="694.4133,-40.1772 703.4232,-34.603 692.9037,-33.3419 694.4133,-40.1772"/>
</g>
<!-- 4 -->
<g id="node5" class="node">
<title>4</title>
<path fill="none" stroke="#afd856" stroke-width="2" d="M777.5,-113C777.5,-113 559.5,-113 559.5,-113 553.5,-113 547.5,-107 547.5,-101 547.5,-101 547.5,-84 547.5,-84 547.5,-78 553.5,-72 559.5,-72 559.5,-72 777.5,-72 777.5,-72 783.5,-72 789.5,-78 789.5,-84 789.5,-84 789.5,-101 789.5,-101 789.5,-107 783.5,-113 777.5,-113"/>
<text text-anchor="middle" x="668.5" y="-101" font-family="sans" font-size="10.00" fill="#000000">run_metadata_app</text>
<text text-anchor="middle" x="668.5" y="-90" font-family="sans" font-size="10.00" fill="#000000">app: app_synchrofact_complexity_distribution</text>
<text text-anchor="middle" x="668.5" y="-79" font-family="sans" font-size="10.00" fill="#000000">session: y180116&#45;land&#45;001</text>
</g>
<!-- 4&#45;&gt;0 -->
<g id="edge4" class="edge">
<title>4&#45;&gt;0</title>
<path fill="none" stroke="#c0c0c0" stroke-width="2" d="M699.1251,-71.9453C712.9418,-62.6719 729.3519,-51.658 743.7306,-42.0074"/>
<polygon fill="#c0c0c0" stroke="#c0c0c0" stroke-width="2" points="746.0269,-44.6814 752.3796,-36.2024 742.1259,-38.8692 746.0269,-44.6814"/>
</g>
<!-- 5 -->
<g id="node6" class="node">
<title>5</title>
<path fill="none" stroke="#afd856" stroke-width="2" d="M963,-113C963,-113 820,-113 820,-113 814,-113 808,-107 808,-101 808,-101 808,-84 808,-84 808,-78 814,-72 820,-72 820,-72 963,-72 963,-72 969,-72 975,-78 975,-84 975,-84 975,-101 975,-101 975,-107 969,-113 963,-113"/>
<text text-anchor="middle" x="891.5" y="-101" font-family="sans" font-size="10.00" fill="#000000">run_metadata_app</text>
<text text-anchor="middle" x="891.5" y="-90" font-family="sans" font-size="10.00" fill="#000000">app: app_subject_performance</text>
<text text-anchor="middle" x="891.5" y="-79" font-family="sans" font-size="10.00" fill="#000000">session: y180116&#45;land&#45;001</text>
</g>
<!-- 5&#45;&gt;0 -->
<g id="edge5" class="edge">
<title>5&#45;&gt;0</title>
<path fill="none" stroke="#c0c0c0" stroke-width="2" d="M860.599,-71.9453C846.6578,-62.6719 830.0999,-51.658 815.5916,-42.0074"/>
<polygon fill="#c0c0c0" stroke="#c0c0c0" stroke-width="2" points="817.1294,-38.8267 806.8647,-36.2024 813.2525,-44.6551 817.1294,-38.8267"/>
</g>
<!-- 6 -->
<g id="node7" class="node">
<title>6</title>
<path fill="none" stroke="#afd856" stroke-width="2" d="M1129.5,-113C1129.5,-113 1005.5,-113 1005.5,-113 999.5,-113 993.5,-107 993.5,-101 993.5,-101 993.5,-84 993.5,-84 993.5,-78 999.5,-72 1005.5,-72 1005.5,-72 1129.5,-72 1129.5,-72 1135.5,-72 1141.5,-78 1141.5,-84 1141.5,-84 1141.5,-101 1141.5,-101 1141.5,-107 1135.5,-113 1129.5,-113"/>
<text text-anchor="middle" x="1067.5" y="-101" font-family="sans" font-size="10.00" fill="#000000">run_metadata_app</text>
<text text-anchor="middle" x="1067.5" y="-90" font-family="sans" font-size="10.00" fill="#000000">app: app_event_check</text>
<text text-anchor="middle" x="1067.5" y="-79" font-family="sans" font-size="10.00" fill="#000000">session: y180116&#45;land&#45;001</text>
</g>
<!-- 6&#45;&gt;0 -->
<g id="edge6" class="edge">
<title>6&#45;&gt;0</title>
<path fill="none" stroke="#c0c0c0" stroke-width="2" d="M993.3328,-73.3144C952.2903,-62.6975 901.2616,-49.4974 859.3473,-38.6549"/>
<polygon fill="#c0c0c0" stroke="#c0c0c0" stroke-width="2" points="860.0101,-35.2113 849.4522,-36.0953 858.257,-41.9882 860.0101,-35.2113"/>
</g>
<!-- 7 -->
<g id="node8" class="node">
<title>7</title>
<path fill="none" stroke="#afd856" stroke-width="2" d="M1295.5,-113C1295.5,-113 1171.5,-113 1171.5,-113 1165.5,-113 1159.5,-107 1159.5,-101 1159.5,-101 1159.5,-84 1159.5,-84 1159.5,-78 1165.5,-72 1171.5,-72 1171.5,-72 1295.5,-72 1295.5,-72 1301.5,-72 1307.5,-78 1307.5,-84 1307.5,-84 1307.5,-101 1307.5,-101 1307.5,-107 1301.5,-113 1295.5,-113"/>
<text text-anchor="middle" x="1233.5" y="-101" font-family="sans" font-size="10.00" fill="#000000">run_metadata_app</text>
<text text-anchor="middle" x="1233.5" y="-90" font-family="sans" font-size="10.00" fill="#000000">app: app_gap_detection</text>
<text text-anchor="middle" x="1233.5" y="-79" font-family="sans" font-size="10.00" fill="#000000">session: y180116&#45;land&#45;001</text>
</g>
<!-- 7&#45;&gt;0 -->
<g id="edge7" class="edge">
<title>7&#45;&gt;0</title>
<path fill="none" stroke="#c0c0c0" stroke-width="2" d="M1159.3681,-73.81C1156.3779,-73.1767 1153.4132,-72.5704 1150.5,-72 1053.4545,-52.9999 940.9271,-37.5326 865.4742,-28.0968"/>
<polygon fill="#c0c0c0" stroke="#c0c0c0" stroke-width="2" points="865.8954,-24.6223 855.5402,-26.8626 865.0323,-31.5689 865.8954,-24.6223"/>
</g>
<!-- 8 -->
<g id="node9" class="node">
<title>8</title>
<path fill="none" stroke="#afd856" stroke-width="2" d="M1463.5,-113C1463.5,-113 1337.5,-113 1337.5,-113 1331.5,-113 1325.5,-107 1325.5,-101 1325.5,-101 1325.5,-84 1325.5,-84 1325.5,-78 1331.5,-72 1337.5,-72 1337.5,-72 1463.5,-72 1463.5,-72 1469.5,-72 1475.5,-78 1475.5,-84 1475.5,-84 1475.5,-101 1475.5,-101 1475.5,-107 1469.5,-113 1463.5,-113"/>
<text text-anchor="middle" x="1400.5" y="-101" font-family="sans" font-size="10.00" fill="#000000">run_metadata_app</text>
<text text-anchor="middle" x="1400.5" y="-90" font-family="sans" font-size="10.00" fill="#000000">app: app_is_session_sorted</text>
<text text-anchor="middle" x="1400.5" y="-79" font-family="sans" font-size="10.00" fill="#000000">session: y180116&#45;land&#45;001</text>
</g>
<!-- 8&#45;&gt;0 -->
<g id="edge8" class="edge">
<title>8&#45;&gt;0</title>
<path fill="none" stroke="#c0c0c0" stroke-width="2" d="M1325.0475,-73.5612C1322.1677,-73.0053 1319.3111,-72.482 1316.5,-72 1158.5927,-44.9274 972.0643,-29.9294 865.5899,-22.9536"/>
<polygon fill="#c0c0c0" stroke="#c0c0c0" stroke-width="2" points="865.7446,-19.4564 855.5395,-22.3034 865.2926,-26.4418 865.7446,-19.4564"/>
</g>
</g>
</svg>
