<?xml version="1.0" encoding="UTF-8" standalone="no"?>
<!DOCTYPE svg PUBLIC "-//W3C//DTD SVG 1.1//EN"
 "http://www.w3.org/Graphics/SVG/1.1/DTD/svg11.dtd">
<!-- Generated by graphviz version 2.40.1 (20161225.0304)
 -->
<!-- Title: snakemake_dag Pages: 1 -->
<svg width="6706pt" height="630pt"
 viewBox="0.00 0.00 6705.50 630.00" xmlns="http://www.w3.org/2000/svg" xmlns:xlink="http://www.w3.org/1999/xlink">
<g id="graph0" class="graph" transform="scale(1 1) rotate(0) translate(4 626)">
<title>snakemake_dag</title>
<polygon fill="#ffffff" stroke="transparent" points="-4,4 -4,-626 6701.5,-626 6701.5,4 -4,4"/>
<!-- 0 -->
<g id="node1" class="node">
<title>0</title>
<path fill="none" stroke="#568ad8" stroke-width="2" d="M688,-36C688,-36 658,-36 658,-36 652,-36 646,-30 646,-24 646,-24 646,-12 646,-12 646,-6 652,0 658,0 658,0 688,0 688,0 694,0 700,-6 700,-12 700,-12 700,-24 700,-24 700,-30 694,-36 688,-36"/>
<text text-anchor="middle" x="673" y="-15.5" font-family="sans" font-size="10.00" fill="#000000">all</text>
</g>
<!-- 1 -->
<g id="node2" class="node">
<title>1</title>
<path fill="none" stroke="#97d856" stroke-width="2" d="M655,-108C655,-108 599,-108 599,-108 593,-108 587,-102 587,-96 587,-96 587,-84 587,-84 587,-78 593,-72 599,-72 599,-72 655,-72 655,-72 661,-72 667,-78 667,-84 667,-84 667,-96 667,-96 667,-102 661,-108 655,-108"/>
<text text-anchor="middle" x="627" y="-87.5" font-family="sans" font-size="10.00" fill="#000000">create_small</text>
</g>
<!-- 1&#45;&gt;0 -->
<g id="edge1" class="edge">
<title>1&#45;&gt;0</title>
<path fill="none" stroke="#c0c0c0" stroke-width="2" d="M638.6077,-71.8314C643.7978,-63.7079 650.0232,-53.9637 655.7425,-45.0118"/>
<polygon fill="#c0c0c0" stroke="#c0c0c0" stroke-width="2" points="658.8015,-46.7246 661.236,-36.4133 652.9026,-42.9559 658.8015,-46.7246"/>
</g>
<!-- 2 -->
<g id="node3" class="node">
<title>2</title>
<path fill="none" stroke="#d8d356" stroke-width="2" d="M741,-108C741,-108 697,-108 697,-108 691,-108 685,-102 685,-96 685,-96 685,-84 685,-84 685,-78 691,-72 697,-72 697,-72 741,-72 741,-72 747,-72 753,-78 753,-84 753,-84 753,-96 753,-96 753,-102 747,-108 741,-108"/>
<text text-anchor="middle" x="719" y="-87.5" font-family="sans" font-size="10.00" fill="#000000">create_full</text>
</g>
<!-- 2&#45;&gt;0 -->
<g id="edge2" class="edge">
<title>2&#45;&gt;0</title>
<path fill="none" stroke="#c0c0c0" stroke-width="2" d="M707.3923,-71.8314C702.2022,-63.7079 695.9768,-53.9637 690.2575,-45.0118"/>
<polygon fill="#c0c0c0" stroke="#c0c0c0" stroke-width="2" points="693.0974,-42.9559 684.764,-36.4133 687.1985,-46.7246 693.0974,-42.9559"/>
</g>
<!-- 3 -->
<g id="node4" class="node">
<title>3</title>
<path fill="none" stroke="#afd856" stroke-width="2" d="M717.5,-252C717.5,-252 628.5,-252 628.5,-252 622.5,-252 616.5,-246 616.5,-240 616.5,-240 616.5,-228 616.5,-228 616.5,-222 622.5,-216 628.5,-216 628.5,-216 717.5,-216 717.5,-216 723.5,-216 729.5,-222 729.5,-228 729.5,-228 729.5,-240 729.5,-240 729.5,-246 723.5,-252 717.5,-252"/>
<text text-anchor="middle" x="673" y="-231.5" font-family="sans" font-size="10.00" fill="#000000">integrate_metadata</text>
</g>
<!-- 3&#45;&gt;1 -->
<g id="edge3" class="edge">
<title>3&#45;&gt;1</title>
<path fill="none" stroke="#c0c0c0" stroke-width="2" d="M647.9572,-215.8695C637.188,-206.5148 625.7654,-194.105 620,-180 611.9821,-160.3843 614.3869,-136.382 618.441,-118.0993"/>
<polygon fill="#c0c0c0" stroke="#c0c0c0" stroke-width="2" points="621.8524,-118.884 620.8794,-108.3339 615.0609,-117.1881 621.8524,-118.884"/>
</g>
<!-- 3&#45;&gt;2 -->
<g id="edge5" class="edge">
<title>3&#45;&gt;2</title>
<path fill="none" stroke="#c0c0c0" stroke-width="2" d="M697.5801,-215.7772C708.1482,-206.4022 719.3543,-194.0021 725,-180 732.9181,-160.362 730.798,-136.361 727.0346,-118.0844"/>
<polygon fill="#c0c0c0" stroke="#c0c0c0" stroke-width="2" points="730.4383,-117.2681 724.7606,-108.323 723.6208,-118.8563 730.4383,-117.2681"/>
</g>
<!-- 4 -->
<g id="node5" class="node">
<title>4</title>
<path fill="none" stroke="#56d0d8" stroke-width="2" d="M704.5,-180C704.5,-180 641.5,-180 641.5,-180 635.5,-180 629.5,-174 629.5,-168 629.5,-168 629.5,-156 629.5,-156 629.5,-150 635.5,-144 641.5,-144 641.5,-144 704.5,-144 704.5,-144 710.5,-144 716.5,-150 716.5,-156 716.5,-156 716.5,-168 716.5,-168 716.5,-174 710.5,-180 704.5,-180"/>
<text text-anchor="middle" x="673" y="-159.5" font-family="sans" font-size="10.00" fill="#000000">link_metadata</text>
</g>
<!-- 3&#45;&gt;4 -->
<g id="edge9" class="edge">
<title>3&#45;&gt;4</title>
<path fill="none" stroke="#c0c0c0" stroke-width="2" d="M673,-215.8314C673,-208.131 673,-198.9743 673,-190.4166"/>
<polygon fill="#c0c0c0" stroke="#c0c0c0" stroke-width="2" points="676.5001,-190.4132 673,-180.4133 669.5001,-190.4133 676.5001,-190.4132"/>
</g>
<!-- 4&#45;&gt;1 -->
<g id="edge4" class="edge">
<title>4&#45;&gt;1</title>
<path fill="none" stroke="#c0c0c0" stroke-width="2" d="M661.3923,-143.8314C656.2022,-135.7079 649.9768,-125.9637 644.2575,-117.0118"/>
<polygon fill="#c0c0c0" stroke="#c0c0c0" stroke-width="2" points="647.0974,-114.9559 638.764,-108.4133 641.1985,-118.7246 647.0974,-114.9559"/>
</g>
<!-- 4&#45;&gt;2 -->
<g id="edge6" class="edge">
<title>4&#45;&gt;2</title>
<path fill="none" stroke="#c0c0c0" stroke-width="2" d="M684.6077,-143.8314C689.7978,-135.7079 696.0232,-125.9637 701.7425,-117.0118"/>
<polygon fill="#c0c0c0" stroke="#c0c0c0" stroke-width="2" points="704.8015,-118.7246 707.236,-108.4133 698.9026,-114.9559 704.8015,-118.7246"/>
</g>
<!-- 5 -->
<g id="node6" class="node">
<title>5</title>
<path fill="none" stroke="#78d856" stroke-width="2" d="M5848,-622C5848,-622 5724,-622 5724,-622 5718,-622 5712,-616 5712,-610 5712,-610 5712,-598 5712,-598 5712,-592 5718,-586 5724,-586 5724,-586 5848,-586 5848,-586 5854,-586 5860,-592 5860,-598 5860,-598 5860,-610 5860,-610 5860,-616 5854,-622 5848,-622"/>
<text text-anchor="middle" x="5786" y="-607" font-family="sans" font-size="10.00" fill="#000000">data_to_nix</text>
<text text-anchor="middle" x="5786" y="-596" font-family="sans" font-size="10.00" fill="#000000">session: y180116&#45;land&#45;001</text>
</g>
<!-- 5&#45;&gt;3 -->
<g id="edge7" class="edge">
<title>5&#45;&gt;3</title>
<path fill="none" stroke="#c0c0c0" stroke-width="2" d="M5711.8672,-603.7352C5047.7821,-601.3119 144.4632,-582.3318 78,-550 28.0976,-525.7244 0,-507.9937 0,-452.5 0,-452.5 0,-452.5 0,-378 0,-316.4164 436.4739,-260.6314 606.4143,-241.2455"/>
<polygon fill="#c0c0c0" stroke="#c0c0c0" stroke-width="2" points="606.9475,-244.7075 616.4895,-240.1032 606.1588,-237.7521 606.9475,-244.7075"/>
</g>
<!-- 35 -->
<g id="node36" class="node">
<title>35</title>
<path fill="none" stroke="#56d892" stroke-width="2" d="M5767,-547.5C5767,-547.5 5625,-547.5 5625,-547.5 5619,-547.5 5613,-541.5 5613,-535.5 5613,-535.5 5613,-523.5 5613,-523.5 5613,-517.5 5619,-511.5 5625,-511.5 5625,-511.5 5767,-511.5 5767,-511.5 5773,-511.5 5779,-517.5 5779,-523.5 5779,-523.5 5779,-535.5 5779,-535.5 5779,-541.5 5773,-547.5 5767,-547.5"/>
<text text-anchor="middle" x="5696" y="-532.5" font-family="sans" font-size="10.00" fill="#000000">run_data_app</text>
<text text-anchor="middle" x="5696" y="-521.5" font-family="sans" font-size="10.00" fill="#000000">app: app_extract_hand_events</text>
</g>
<!-- 5&#45;&gt;35 -->
<g id="edge87" class="edge">
<title>5&#45;&gt;35</title>
<path fill="none" stroke="#c0c0c0" stroke-width="2" d="M5764.2135,-585.9656C5752.6912,-576.4277 5738.3729,-564.5753 5725.8337,-554.1956"/>
<polygon fill="#c0c0c0" stroke="#c0c0c0" stroke-width="2" points="5727.8328,-551.307 5717.8978,-547.6265 5723.3692,-556.6992 5727.8328,-551.307"/>
</g>
<!-- 36 -->
<g id="node37" class="node">
<title>36</title>
<path fill="none" stroke="#56d892" stroke-width="2" d="M6003,-547.5C6003,-547.5 5867,-547.5 5867,-547.5 5861,-547.5 5855,-541.5 5855,-535.5 5855,-535.5 5855,-523.5 5855,-523.5 5855,-517.5 5861,-511.5 5867,-511.5 5867,-511.5 6003,-511.5 6003,-511.5 6009,-511.5 6015,-517.5 6015,-523.5 6015,-523.5 6015,-535.5 6015,-535.5 6015,-541.5 6009,-547.5 6003,-547.5"/>
<text text-anchor="middle" x="5935" y="-532.5" font-family="sans" font-size="10.00" fill="#000000">run_data_app</text>
<text text-anchor="middle" x="5935" y="-521.5" font-family="sans" font-size="10.00" fill="#000000">app: app_extract_eye_events</text>
</g>
<!-- 5&#45;&gt;36 -->
<g id="edge88" class="edge">
<title>5&#45;&gt;36</title>
<path fill="none" stroke="#c0c0c0" stroke-width="2" d="M5822.0687,-585.9656C5842.4162,-575.7919 5868.0306,-562.9847 5889.7191,-552.1405"/>
<polygon fill="#c0c0c0" stroke="#c0c0c0" stroke-width="2" points="5891.368,-555.2292 5898.747,-547.6265 5888.2374,-548.9682 5891.368,-555.2292"/>
</g>
<!-- 43 -->
<g id="node44" class="node">
<title>43</title>
<path fill="none" stroke="#56d892" stroke-width="2" d="M6265.5,-547.5C6265.5,-547.5 6134.5,-547.5 6134.5,-547.5 6128.5,-547.5 6122.5,-541.5 6122.5,-535.5 6122.5,-535.5 6122.5,-523.5 6122.5,-523.5 6122.5,-517.5 6128.5,-511.5 6134.5,-511.5 6134.5,-511.5 6265.5,-511.5 6265.5,-511.5 6271.5,-511.5 6277.5,-517.5 6277.5,-523.5 6277.5,-523.5 6277.5,-535.5 6277.5,-535.5 6277.5,-541.5 6271.5,-547.5 6265.5,-547.5"/>
<text text-anchor="middle" x="6200" y="-532.5" font-family="sans" font-size="10.00" fill="#000000">run_data_app</text>
<text text-anchor="middle" x="6200" y="-521.5" font-family="sans" font-size="10.00" fill="#000000">app: app_saccade_detection</text>
</g>
<!-- 5&#45;&gt;43 -->
<g id="edge89" class="edge">
<title>5&#45;&gt;43</title>
<path fill="none" stroke="#c0c0c0" stroke-width="2" d="M5860.0149,-590.6809C5930.7974,-577.9435 6037.5559,-558.7321 6112.5129,-545.2435"/>
<polygon fill="#c0c0c0" stroke="#c0c0c0" stroke-width="2" points="6113.1887,-548.6782 6122.4107,-543.4623 6111.9488,-541.7888 6113.1887,-548.6782"/>
</g>
<!-- 44 -->
<g id="node45" class="node">
<title>44</title>
<path fill="none" stroke="#56d892" stroke-width="2" d="M6558,-547.5C6558,-547.5 6410,-547.5 6410,-547.5 6404,-547.5 6398,-541.5 6398,-535.5 6398,-535.5 6398,-523.5 6398,-523.5 6398,-517.5 6404,-511.5 6410,-511.5 6410,-511.5 6558,-511.5 6558,-511.5 6564,-511.5 6570,-517.5 6570,-523.5 6570,-523.5 6570,-535.5 6570,-535.5 6570,-541.5 6564,-547.5 6558,-547.5"/>
<text text-anchor="middle" x="6484" y="-532.5" font-family="sans" font-size="10.00" fill="#000000">run_data_app</text>
<text text-anchor="middle" x="6484" y="-521.5" font-family="sans" font-size="10.00" fill="#000000">app: app_synchrofact_detection</text>
</g>
<!-- 5&#45;&gt;44 -->
<g id="edge90" class="edge">
<title>5&#45;&gt;44</title>
<path fill="none" stroke="#c0c0c0" stroke-width="2" d="M5860.0374,-596.0977C5987.113,-582.5345 6246.639,-554.8344 6387.6363,-539.7852"/>
<polygon fill="#c0c0c0" stroke="#c0c0c0" stroke-width="2" points="6388.423,-543.2212 6397.9951,-538.6796 6387.6801,-536.2608 6388.423,-543.2212"/>
</g>
<!-- 45 -->
<g id="node46" class="node">
<title>45</title>
<path fill="none" stroke="#56d892" stroke-width="2" d="M5505.5,-547.5C5505.5,-547.5 5328.5,-547.5 5328.5,-547.5 5322.5,-547.5 5316.5,-541.5 5316.5,-535.5 5316.5,-535.5 5316.5,-523.5 5316.5,-523.5 5316.5,-517.5 5322.5,-511.5 5328.5,-511.5 5328.5,-511.5 5505.5,-511.5 5505.5,-511.5 5511.5,-511.5 5517.5,-517.5 5517.5,-523.5 5517.5,-523.5 5517.5,-535.5 5517.5,-535.5 5517.5,-541.5 5511.5,-547.5 5505.5,-547.5"/>
<text text-anchor="middle" x="5417" y="-532.5" font-family="sans" font-size="10.00" fill="#000000">run_data_app</text>
<text text-anchor="middle" x="5417" y="-521.5" font-family="sans" font-size="10.00" fill="#000000">app: app_cross_talk_detection_in_ns6</text>
</g>
<!-- 5&#45;&gt;45 -->
<g id="edge91" class="edge">
<title>5&#45;&gt;45</title>
<path fill="none" stroke="#c0c0c0" stroke-width="2" d="M5711.7712,-589.0134C5655.6517,-577.6831 5578.0326,-562.012 5516.5303,-549.5949"/>
<polygon fill="#c0c0c0" stroke="#c0c0c0" stroke-width="2" points="5516.9101,-546.101 5506.4152,-547.5527 5515.5247,-552.9625 5516.9101,-546.101"/>
</g>
<!-- 6 -->
<g id="node7" class="node">
<title>6</title>
<path fill="none" stroke="#56d8a9" stroke-width="2" d="M1437.5,-324C1437.5,-324 1256.5,-324 1256.5,-324 1250.5,-324 1244.5,-318 1244.5,-312 1244.5,-312 1244.5,-300 1244.5,-300 1244.5,-294 1250.5,-288 1256.5,-288 1256.5,-288 1437.5,-288 1437.5,-288 1443.5,-288 1449.5,-294 1449.5,-300 1449.5,-300 1449.5,-312 1449.5,-312 1449.5,-318 1443.5,-324 1437.5,-324"/>
<text text-anchor="middle" x="1347" y="-303.5" font-family="sans" font-size="10.00" fill="#000000">integrate_descriptors_and_app_results</text>
</g>
<!-- 6&#45;&gt;3 -->
<g id="edge8" class="edge">
<title>6&#45;&gt;3</title>
<path fill="none" stroke="#c0c0c0" stroke-width="2" d="M1244.2673,-295.0256C1104.4382,-280.0884 858.1097,-253.7743 739.9315,-241.1499"/>
<polygon fill="#c0c0c0" stroke="#c0c0c0" stroke-width="2" points="740.2459,-237.6637 729.9307,-240.0816 739.5023,-244.6241 740.2459,-237.6637"/>
</g>
<!-- 7 -->
<g id="node8" class="node">
<title>7</title>
<path fill="none" stroke="#d85656" stroke-width="2" d="M4528,-396C4528,-396 4430,-396 4430,-396 4424,-396 4418,-390 4418,-384 4418,-384 4418,-372 4418,-372 4418,-366 4424,-360 4430,-360 4430,-360 4528,-360 4528,-360 4534,-360 4540,-366 4540,-372 4540,-372 4540,-384 4540,-384 4540,-390 4534,-396 4528,-396"/>
<text text-anchor="middle" x="4479" y="-375.5" font-family="sans" font-size="10.00" fill="#000000">integrate_app_results</text>
</g>
<!-- 7&#45;&gt;6 -->
<g id="edge10" class="edge">
<title>7&#45;&gt;6</title>
<path fill="none" stroke="#c0c0c0" stroke-width="2" d="M4417.8415,-376.5941C4035.0251,-367.7937 1968.4183,-320.2855 1460.0306,-308.5984"/>
<polygon fill="#c0c0c0" stroke="#c0c0c0" stroke-width="2" points="1459.8333,-305.093 1449.7555,-308.3622 1459.6724,-312.0912 1459.8333,-305.093"/>
</g>
<!-- 8 -->
<g id="node9" class="node">
<title>8</title>
<path fill="none" stroke="#d88556" stroke-width="2" stroke-dasharray="5,2" d="M1409,-396C1409,-396 1285,-396 1285,-396 1279,-396 1273,-390 1273,-384 1273,-384 1273,-372 1273,-372 1273,-366 1279,-360 1285,-360 1285,-360 1409,-360 1409,-360 1415,-360 1421,-366 1421,-372 1421,-372 1421,-384 1421,-384 1421,-390 1415,-396 1409,-396"/>
<text text-anchor="middle" x="1347" y="-381" font-family="sans" font-size="10.00" fill="#000000">integrate_descriptors</text>
<text text-anchor="middle" x="1347" y="-370" font-family="sans" font-size="10.00" fill="#000000">session: y180116&#45;land&#45;001</text>
</g>
<!-- 8&#45;&gt;6 -->
<g id="edge11" class="edge">
<title>8&#45;&gt;6</title>
<path fill="none" stroke="#c0c0c0" stroke-width="2" d="M1347,-359.8314C1347,-352.131 1347,-342.9743 1347,-334.4166"/>
<polygon fill="#c0c0c0" stroke="#c0c0c0" stroke-width="2" points="1350.5001,-334.4132 1347,-324.4133 1343.5001,-334.4133 1350.5001,-334.4132"/>
</g>
<!-- 9 -->
<g id="node10" class="node">
<title>9</title>
<path fill="none" stroke="#d86e56" stroke-width="2" d="M4606.5,-473C4606.5,-473 4351.5,-473 4351.5,-473 4345.5,-473 4339.5,-467 4339.5,-461 4339.5,-461 4339.5,-444 4339.5,-444 4339.5,-438 4345.5,-432 4351.5,-432 4351.5,-432 4606.5,-432 4606.5,-432 4612.5,-432 4618.5,-438 4618.5,-444 4618.5,-444 4618.5,-461 4618.5,-461 4618.5,-467 4612.5,-473 4606.5,-473"/>
<text text-anchor="middle" x="4479" y="-461" font-family="sans" font-size="10.00" fill="#000000">csv_to_odml</text>
<text text-anchor="middle" x="4479" y="-450" font-family="sans" font-size="10.00" fill="#000000">filename: app_event_check</text>
<text text-anchor="middle" x="4479" y="-439" font-family="sans" font-size="10.00" fill="#000000">folder: /home/julia/tmp/y180116&#45;land&#45;001/app_results</text>
</g>
<!-- 9&#45;&gt;7 -->
<g id="edge12" class="edge">
<title>9&#45;&gt;7</title>
<path fill="none" stroke="#c0c0c0" stroke-width="2" d="M4479,-431.7476C4479,-423.8767 4479,-414.7743 4479,-406.3232"/>
<polygon fill="#c0c0c0" stroke="#c0c0c0" stroke-width="2" points="4482.5001,-406.1086 4479,-396.1087 4475.5001,-406.1087 4482.5001,-406.1086"/>
</g>
<!-- 10 -->
<g id="node11" class="node">
<title>10</title>
<path fill="none" stroke="#d86e56" stroke-width="2" d="M4903.5,-473C4903.5,-473 4648.5,-473 4648.5,-473 4642.5,-473 4636.5,-467 4636.5,-461 4636.5,-461 4636.5,-444 4636.5,-444 4636.5,-438 4642.5,-432 4648.5,-432 4648.5,-432 4903.5,-432 4903.5,-432 4909.5,-432 4915.5,-438 4915.5,-444 4915.5,-444 4915.5,-461 4915.5,-461 4915.5,-467 4909.5,-473 4903.5,-473"/>
<text text-anchor="middle" x="4776" y="-461" font-family="sans" font-size="10.00" fill="#000000">csv_to_odml</text>
<text text-anchor="middle" x="4776" y="-450" font-family="sans" font-size="10.00" fill="#000000">filename: app_subject_performance</text>
<text text-anchor="middle" x="4776" y="-439" font-family="sans" font-size="10.00" fill="#000000">folder: /home/julia/tmp/y180116&#45;land&#45;001/app_results</text>
</g>
<!-- 10&#45;&gt;7 -->
<g id="edge13" class="edge">
<title>10&#45;&gt;7</title>
<path fill="none" stroke="#c0c0c0" stroke-width="2" d="M4694.0572,-431.9453C4648.9777,-420.6375 4593.5807,-406.7416 4550.3014,-395.8854"/>
<polygon fill="#c0c0c0" stroke="#c0c0c0" stroke-width="2" points="4550.97,-392.4447 4540.4189,-393.4064 4549.2669,-399.2344 4550.97,-392.4447"/>
</g>
<!-- 11 -->
<g id="node12" class="node">
<title>11</title>
<path fill="none" stroke="#d86e56" stroke-width="2" d="M5794.5,-473C5794.5,-473 5539.5,-473 5539.5,-473 5533.5,-473 5527.5,-467 5527.5,-461 5527.5,-461 5527.5,-444 5527.5,-444 5527.5,-438 5533.5,-432 5539.5,-432 5539.5,-432 5794.5,-432 5794.5,-432 5800.5,-432 5806.5,-438 5806.5,-444 5806.5,-444 5806.5,-461 5806.5,-461 5806.5,-467 5800.5,-473 5794.5,-473"/>
<text text-anchor="middle" x="5667" y="-461" font-family="sans" font-size="10.00" fill="#000000">csv_to_odml</text>
<text text-anchor="middle" x="5667" y="-450" font-family="sans" font-size="10.00" fill="#000000">filename: app_extract_hand_events</text>
<text text-anchor="middle" x="5667" y="-439" font-family="sans" font-size="10.00" fill="#000000">folder: /home/julia/tmp/y180116&#45;land&#45;001/app_results</text>
</g>
<!-- 11&#45;&gt;7 -->
<g id="edge14" class="edge">
<title>11&#45;&gt;7</title>
<path fill="none" stroke="#c0c0c0" stroke-width="2" d="M5527.2073,-432.8116C5524.4495,-432.5288 5521.7115,-432.2577 5519,-432 5155.8291,-397.4836 4719.0648,-383.8311 4550.3323,-379.5961"/>
<polygon fill="#c0c0c0" stroke="#c0c0c0" stroke-width="2" points="4550.1732,-376.0912 4540.0896,-379.3424 4549.9998,-383.089 4550.1732,-376.0912"/>
</g>
<!-- 12 -->
<g id="node13" class="node">
<title>12</title>
<path fill="none" stroke="#d86e56" stroke-width="2" d="M6091.5,-473C6091.5,-473 5836.5,-473 5836.5,-473 5830.5,-473 5824.5,-467 5824.5,-461 5824.5,-461 5824.5,-444 5824.5,-444 5824.5,-438 5830.5,-432 5836.5,-432 5836.5,-432 6091.5,-432 6091.5,-432 6097.5,-432 6103.5,-438 6103.5,-444 6103.5,-444 6103.5,-461 6103.5,-461 6103.5,-467 6097.5,-473 6091.5,-473"/>
<text text-anchor="middle" x="5964" y="-461" font-family="sans" font-size="10.00" fill="#000000">csv_to_odml</text>
<text text-anchor="middle" x="5964" y="-450" font-family="sans" font-size="10.00" fill="#000000">filename: app_extract_eye_events</text>
<text text-anchor="middle" x="5964" y="-439" font-family="sans" font-size="10.00" fill="#000000">folder: /home/julia/tmp/y180116&#45;land&#45;001/app_results</text>
</g>
<!-- 12&#45;&gt;7 -->
<g id="edge15" class="edge">
<title>12&#45;&gt;7</title>
<path fill="none" stroke="#c0c0c0" stroke-width="2" d="M5824.2113,-432.7686C5821.4522,-432.4988 5818.7129,-432.2421 5816,-432 5333.5568,-388.9477 4750.0918,-380.2035 4550.1803,-378.4408"/>
<polygon fill="#c0c0c0" stroke="#c0c0c0" stroke-width="2" points="4550.1325,-374.9404 4540.1031,-378.3551 4550.0729,-381.9401 4550.1325,-374.9404"/>
</g>
<!-- 13 -->
<g id="node14" class="node">
<title>13</title>
<path fill="none" stroke="#d86e56" stroke-width="2" d="M5200.5,-473C5200.5,-473 4945.5,-473 4945.5,-473 4939.5,-473 4933.5,-467 4933.5,-461 4933.5,-461 4933.5,-444 4933.5,-444 4933.5,-438 4939.5,-432 4945.5,-432 4945.5,-432 5200.5,-432 5200.5,-432 5206.5,-432 5212.5,-438 5212.5,-444 5212.5,-444 5212.5,-461 5212.5,-461 5212.5,-467 5206.5,-473 5200.5,-473"/>
<text text-anchor="middle" x="5073" y="-461" font-family="sans" font-size="10.00" fill="#000000">csv_to_odml</text>
<text text-anchor="middle" x="5073" y="-450" font-family="sans" font-size="10.00" fill="#000000">filename: app_all_files_exist</text>
<text text-anchor="middle" x="5073" y="-439" font-family="sans" font-size="10.00" fill="#000000">folder: /home/julia/tmp/y180116&#45;land&#45;001/app_results</text>
</g>
<!-- 13&#45;&gt;7 -->
<g id="edge16" class="edge">
<title>13&#45;&gt;7</title>
<path fill="none" stroke="#c0c0c0" stroke-width="2" d="M4933.1785,-433.0678C4930.4295,-432.7068 4927.701,-432.3506 4925,-432 4792.7514,-414.8361 4638.2069,-396.5112 4550.1424,-386.2326"/>
<polygon fill="#c0c0c0" stroke="#c0c0c0" stroke-width="2" points="4550.3382,-382.7318 4540.0001,-385.0501 4549.5275,-389.6847 4550.3382,-382.7318"/>
</g>
<!-- 14 -->
<g id="node15" class="node">
<title>14</title>
<path fill="none" stroke="#d86e56" stroke-width="2" d="M3121.5,-473C3121.5,-473 2866.5,-473 2866.5,-473 2860.5,-473 2854.5,-467 2854.5,-461 2854.5,-461 2854.5,-444 2854.5,-444 2854.5,-438 2860.5,-432 2866.5,-432 2866.5,-432 3121.5,-432 3121.5,-432 3127.5,-432 3133.5,-438 3133.5,-444 3133.5,-444 3133.5,-461 3133.5,-461 3133.5,-467 3127.5,-473 3121.5,-473"/>
<text text-anchor="middle" x="2994" y="-461" font-family="sans" font-size="10.00" fill="#000000">csv_to_odml</text>
<text text-anchor="middle" x="2994" y="-450" font-family="sans" font-size="10.00" fill="#000000">filename: app_synchrofact_complexity_distribution</text>
<text text-anchor="middle" x="2994" y="-439" font-family="sans" font-size="10.00" fill="#000000">folder: /home/julia/tmp/y180116&#45;land&#45;001/app_results</text>
</g>
<!-- 14&#45;&gt;7 -->
<g id="edge17" class="edge">
<title>14&#45;&gt;7</title>
<path fill="none" stroke="#c0c0c0" stroke-width="2" d="M3133.5424,-432.8862C3136.723,-432.5733 3139.8789,-432.2771 3143,-432 3625.1018,-389.1924 4208.1182,-380.2944 4407.875,-378.4661"/>
<polygon fill="#c0c0c0" stroke="#c0c0c0" stroke-width="2" points="4407.9758,-381.9654 4417.9444,-378.377 4407.9138,-374.9657 4407.9758,-381.9654"/>
</g>
<!-- 15 -->
<g id="node16" class="node">
<title>15</title>
<path fill="none" stroke="#d86e56" stroke-width="2" d="M3418.5,-473C3418.5,-473 3163.5,-473 3163.5,-473 3157.5,-473 3151.5,-467 3151.5,-461 3151.5,-461 3151.5,-444 3151.5,-444 3151.5,-438 3157.5,-432 3163.5,-432 3163.5,-432 3418.5,-432 3418.5,-432 3424.5,-432 3430.5,-438 3430.5,-444 3430.5,-444 3430.5,-461 3430.5,-461 3430.5,-467 3424.5,-473 3418.5,-473"/>
<text text-anchor="middle" x="3291" y="-461" font-family="sans" font-size="10.00" fill="#000000">csv_to_odml</text>
<text text-anchor="middle" x="3291" y="-450" font-family="sans" font-size="10.00" fill="#000000">filename: app_create_channel_descriptors</text>
<text text-anchor="middle" x="3291" y="-439" font-family="sans" font-size="10.00" fill="#000000">folder: /home/julia/tmp/y180116&#45;land&#45;001/app_results</text>
</g>
<!-- 15&#45;&gt;7 -->
<g id="edge18" class="edge">
<title>15&#45;&gt;7</title>
<path fill="none" stroke="#c0c0c0" stroke-width="2" d="M3430.5469,-432.9352C3433.7261,-432.6076 3436.8805,-432.2951 3440,-432 3802.8375,-397.6732 4239.1727,-383.9114 4407.7384,-379.6216"/>
<polygon fill="#c0c0c0" stroke="#c0c0c0" stroke-width="2" points="4408.0621,-383.1147 4417.971,-379.3645 4407.8862,-376.1169 4408.0621,-383.1147"/>
</g>
<!-- 16 -->
<g id="node17" class="node">
<title>16</title>
<path fill="none" stroke="#d86e56" stroke-width="2" d="M3715.5,-473C3715.5,-473 3460.5,-473 3460.5,-473 3454.5,-473 3448.5,-467 3448.5,-461 3448.5,-461 3448.5,-444 3448.5,-444 3448.5,-438 3454.5,-432 3460.5,-432 3460.5,-432 3715.5,-432 3715.5,-432 3721.5,-432 3727.5,-438 3727.5,-444 3727.5,-444 3727.5,-461 3727.5,-461 3727.5,-467 3721.5,-473 3715.5,-473"/>
<text text-anchor="middle" x="3588" y="-461" font-family="sans" font-size="10.00" fill="#000000">csv_to_odml</text>
<text text-anchor="middle" x="3588" y="-450" font-family="sans" font-size="10.00" fill="#000000">filename: app_overview_plot</text>
<text text-anchor="middle" x="3588" y="-439" font-family="sans" font-size="10.00" fill="#000000">folder: /home/julia/tmp/y180116&#45;land&#45;001/app_results</text>
</g>
<!-- 16&#45;&gt;7 -->
<g id="edge19" class="edge">
<title>16&#45;&gt;7</title>
<path fill="none" stroke="#c0c0c0" stroke-width="2" d="M3727.5557,-433.0233C3730.7322,-432.6692 3733.8837,-432.3274 3737,-432 3982.6884,-406.1853 4275.4456,-388.8013 4407.7913,-381.6603"/>
<polygon fill="#c0c0c0" stroke="#c0c0c0" stroke-width="2" points="4408.0065,-385.1539 4417.8046,-381.1231 4407.6315,-378.164 4408.0065,-385.1539"/>
</g>
<!-- 17 -->
<g id="node18" class="node">
<title>17</title>
<path fill="none" stroke="#d86e56" stroke-width="2" d="M4012.5,-473C4012.5,-473 3757.5,-473 3757.5,-473 3751.5,-473 3745.5,-467 3745.5,-461 3745.5,-461 3745.5,-444 3745.5,-444 3745.5,-438 3751.5,-432 3757.5,-432 3757.5,-432 4012.5,-432 4012.5,-432 4018.5,-432 4024.5,-438 4024.5,-444 4024.5,-444 4024.5,-461 4024.5,-461 4024.5,-467 4018.5,-473 4012.5,-473"/>
<text text-anchor="middle" x="3885" y="-461" font-family="sans" font-size="10.00" fill="#000000">csv_to_odml</text>
<text text-anchor="middle" x="3885" y="-450" font-family="sans" font-size="10.00" fill="#000000">filename: app_is_session_sorted</text>
<text text-anchor="middle" x="3885" y="-439" font-family="sans" font-size="10.00" fill="#000000">folder: /home/julia/tmp/y180116&#45;land&#45;001/app_results</text>
</g>
<!-- 17&#45;&gt;7 -->
<g id="edge20" class="edge">
<title>17&#45;&gt;7</title>
<path fill="none" stroke="#c0c0c0" stroke-width="2" d="M4024.5796,-433.2273C4027.749,-432.8119 4030.8925,-432.4023 4034,-432 4165.7763,-414.9405 4319.7228,-396.6162 4407.6492,-386.3027"/>
<polygon fill="#c0c0c0" stroke="#c0c0c0" stroke-width="2" points="4408.2526,-389.756 4417.7773,-385.1159 4407.4379,-382.8036 4408.2526,-389.756"/>
</g>
<!-- 18 -->
<g id="node19" class="node">
<title>18</title>
<path fill="none" stroke="#d86e56" stroke-width="2" d="M4309.5,-473C4309.5,-473 4054.5,-473 4054.5,-473 4048.5,-473 4042.5,-467 4042.5,-461 4042.5,-461 4042.5,-444 4042.5,-444 4042.5,-438 4048.5,-432 4054.5,-432 4054.5,-432 4309.5,-432 4309.5,-432 4315.5,-432 4321.5,-438 4321.5,-444 4321.5,-444 4321.5,-461 4321.5,-461 4321.5,-467 4315.5,-473 4309.5,-473"/>
<text text-anchor="middle" x="4182" y="-461" font-family="sans" font-size="10.00" fill="#000000">csv_to_odml</text>
<text text-anchor="middle" x="4182" y="-450" font-family="sans" font-size="10.00" fill="#000000">filename: app_gap_detection</text>
<text text-anchor="middle" x="4182" y="-439" font-family="sans" font-size="10.00" fill="#000000">folder: /home/julia/tmp/y180116&#45;land&#45;001/app_results</text>
</g>
<!-- 18&#45;&gt;7 -->
<g id="edge21" class="edge">
<title>18&#45;&gt;7</title>
<path fill="none" stroke="#c0c0c0" stroke-width="2" d="M4263.9428,-431.9453C4309.0223,-420.6375 4364.4193,-406.7416 4407.6986,-395.8854"/>
<polygon fill="#c0c0c0" stroke="#c0c0c0" stroke-width="2" points="4408.7331,-399.2344 4417.5811,-393.4064 4407.03,-392.4447 4408.7331,-399.2344"/>
</g>
<!-- 19 -->
<g id="node20" class="node">
<title>19</title>
<path fill="none" stroke="#d86e56" stroke-width="2" d="M6388.5,-473C6388.5,-473 6133.5,-473 6133.5,-473 6127.5,-473 6121.5,-467 6121.5,-461 6121.5,-461 6121.5,-444 6121.5,-444 6121.5,-438 6127.5,-432 6133.5,-432 6133.5,-432 6388.5,-432 6388.5,-432 6394.5,-432 6400.5,-438 6400.5,-444 6400.5,-444 6400.5,-461 6400.5,-461 6400.5,-467 6394.5,-473 6388.5,-473"/>
<text text-anchor="middle" x="6261" y="-461" font-family="sans" font-size="10.00" fill="#000000">csv_to_odml</text>
<text text-anchor="middle" x="6261" y="-450" font-family="sans" font-size="10.00" fill="#000000">filename: app_saccade_detection</text>
<text text-anchor="middle" x="6261" y="-439" font-family="sans" font-size="10.00" fill="#000000">folder: /home/julia/tmp/y180116&#45;land&#45;001/app_results</text>
</g>
<!-- 19&#45;&gt;7 -->
<g id="edge22" class="edge">
<title>19&#45;&gt;7</title>
<path fill="none" stroke="#c0c0c0" stroke-width="2" d="M6121.2137,-432.7411C6118.4539,-432.4797 6115.7138,-432.2321 6113,-432 5802.7253,-405.4577 4823.8612,-384.743 4550.5171,-379.3662"/>
<polygon fill="#c0c0c0" stroke="#c0c0c0" stroke-width="2" points="4550.3923,-375.8632 4540.3255,-379.1664 4550.255,-382.8619 4550.3923,-375.8632"/>
</g>
<!-- 20 -->
<g id="node21" class="node">
<title>20</title>
<path fill="none" stroke="#d86e56" stroke-width="2" d="M6685.5,-473C6685.5,-473 6430.5,-473 6430.5,-473 6424.5,-473 6418.5,-467 6418.5,-461 6418.5,-461 6418.5,-444 6418.5,-444 6418.5,-438 6424.5,-432 6430.5,-432 6430.5,-432 6685.5,-432 6685.5,-432 6691.5,-432 6697.5,-438 6697.5,-444 6697.5,-444 6697.5,-461 6697.5,-461 6697.5,-467 6691.5,-473 6685.5,-473"/>
<text text-anchor="middle" x="6558" y="-461" font-family="sans" font-size="10.00" fill="#000000">csv_to_odml</text>
<text text-anchor="middle" x="6558" y="-450" font-family="sans" font-size="10.00" fill="#000000">filename: app_synchrofact_detection</text>
<text text-anchor="middle" x="6558" y="-439" font-family="sans" font-size="10.00" fill="#000000">folder: /home/julia/tmp/y180116&#45;land&#45;001/app_results</text>
</g>
<!-- 20&#45;&gt;7 -->
<g id="edge23" class="edge">
<title>20&#45;&gt;7</title>
<path fill="none" stroke="#c0c0c0" stroke-width="2" d="M6418.2153,-432.7221C6415.455,-432.4665 6412.7143,-432.2253 6410,-432 6038.1965,-401.145 4854.1387,-383.1344 4550.4985,-378.9477"/>
<polygon fill="#c0c0c0" stroke="#c0c0c0" stroke-width="2" points="4550.1184,-375.4422 4540.0713,-378.8046 4550.0223,-382.4415 4550.1184,-375.4422"/>
</g>
<!-- 21 -->
<g id="node22" class="node">
<title>21</title>
<path fill="none" stroke="#d8a456" stroke-width="2" d="M2824,-470.5C2824,-470.5 2696,-470.5 2696,-470.5 2690,-470.5 2684,-464.5 2684,-458.5 2684,-458.5 2684,-446.5 2684,-446.5 2684,-440.5 2690,-434.5 2696,-434.5 2696,-434.5 2824,-434.5 2824,-434.5 2830,-434.5 2836,-440.5 2836,-446.5 2836,-446.5 2836,-458.5 2836,-458.5 2836,-464.5 2830,-470.5 2824,-470.5"/>
<text text-anchor="middle" x="2760" y="-450" font-family="sans" font-size="10.00" fill="#000000">run_all_preprocessing_apps</text>
</g>
<!-- 21&#45;&gt;7 -->
<g id="edge24" class="edge">
<title>21&#45;&gt;7</title>
<path fill="none" stroke="#c0c0c0" stroke-width="2" d="M2830.6536,-434.4692C2835.8251,-433.5155 2840.98,-432.6743 2846,-432 3154.447,-390.5663 4133.8819,-380.4883 4407.4264,-378.4545"/>
<polygon fill="#c0c0c0" stroke="#c0c0c0" stroke-width="2" points="4407.6514,-381.953 4417.6255,-378.38 4407.6002,-374.9532 4407.6514,-381.953"/>
</g>
<!-- 22 -->
<g id="node23" class="node">
<title>22</title>
<path fill="none" stroke="#d86e56" stroke-width="2" d="M5497.5,-473C5497.5,-473 5242.5,-473 5242.5,-473 5236.5,-473 5230.5,-467 5230.5,-461 5230.5,-461 5230.5,-444 5230.5,-444 5230.5,-438 5236.5,-432 5242.5,-432 5242.5,-432 5497.5,-432 5497.5,-432 5503.5,-432 5509.5,-438 5509.5,-444 5509.5,-444 5509.5,-461 5509.5,-461 5509.5,-467 5503.5,-473 5497.5,-473"/>
<text text-anchor="middle" x="5370" y="-461" font-family="sans" font-size="10.00" fill="#000000">csv_to_odml</text>
<text text-anchor="middle" x="5370" y="-450" font-family="sans" font-size="10.00" fill="#000000">filename: app_cross_talk_detection_in_ns6</text>
<text text-anchor="middle" x="5370" y="-439" font-family="sans" font-size="10.00" fill="#000000">folder: /home/julia/tmp/y180116&#45;land&#45;001/app_results</text>
</g>
<!-- 22&#45;&gt;7 -->
<g id="edge25" class="edge">
<title>22&#45;&gt;7</title>
<path fill="none" stroke="#c0c0c0" stroke-width="2" d="M5230.1995,-432.8889C5227.4441,-432.5825 5224.7086,-432.2857 5222,-432 4975.9928,-406.0505 4682.835,-388.7331 4550.3071,-381.6345"/>
<polygon fill="#c0c0c0" stroke="#c0c0c0" stroke-width="2" points="4550.4519,-378.1373 4540.2799,-381.1005 4550.0796,-385.1274 4550.4519,-378.1373"/>
</g>
<!-- 23 -->
<g id="node24" class="node">
<title>23</title>
<path fill="none" stroke="#d86e56" stroke-width="2" stroke-dasharray="5,2" d="M588.5,-473C588.5,-473 335.5,-473 335.5,-473 329.5,-473 323.5,-467 323.5,-461 323.5,-461 323.5,-444 323.5,-444 323.5,-438 329.5,-432 335.5,-432 335.5,-432 588.5,-432 588.5,-432 594.5,-432 600.5,-438 600.5,-444 600.5,-444 600.5,-461 600.5,-461 600.5,-467 594.5,-473 588.5,-473"/>
<text text-anchor="middle" x="462" y="-461" font-family="sans" font-size="10.00" fill="#000000">csv_to_odml</text>
<text text-anchor="middle" x="462" y="-450" font-family="sans" font-size="10.00" fill="#000000">filename: descriptor_eyelink</text>
<text text-anchor="middle" x="462" y="-439" font-family="sans" font-size="10.00" fill="#000000">folder: /home/julia/tmp/y180116&#45;land&#45;001/descriptors</text>
</g>
<!-- 23&#45;&gt;8 -->
<g id="edge26" class="edge">
<title>23&#45;&gt;8</title>
<path fill="none" stroke="#c0c0c0" stroke-width="2" d="M600.8555,-432.8889C603.5924,-432.5825 606.3095,-432.2857 609,-432 845.3302,-406.9022 1125.4862,-389.8785 1262.7144,-382.3659"/>
<polygon fill="#c0c0c0" stroke="#c0c0c0" stroke-width="2" points="1262.9504,-385.8583 1272.7453,-381.8197 1262.5698,-378.8686 1262.9504,-385.8583"/>
</g>
<!-- 24 -->
<g id="node25" class="node">
<title>24</title>
<path fill="none" stroke="#d86e56" stroke-width="2" stroke-dasharray="5,2" d="M883.5,-473C883.5,-473 630.5,-473 630.5,-473 624.5,-473 618.5,-467 618.5,-461 618.5,-461 618.5,-444 618.5,-444 618.5,-438 624.5,-432 630.5,-432 630.5,-432 883.5,-432 883.5,-432 889.5,-432 895.5,-438 895.5,-444 895.5,-444 895.5,-461 895.5,-461 895.5,-467 889.5,-473 883.5,-473"/>
<text text-anchor="middle" x="757" y="-461" font-family="sans" font-size="10.00" fill="#000000">csv_to_odml</text>
<text text-anchor="middle" x="757" y="-450" font-family="sans" font-size="10.00" fill="#000000">filename: descriptor_analog_communication</text>
<text text-anchor="middle" x="757" y="-439" font-family="sans" font-size="10.00" fill="#000000">folder: /home/julia/tmp/y180116&#45;land&#45;001/descriptors</text>
</g>
<!-- 24&#45;&gt;8 -->
<g id="edge27" class="edge">
<title>24&#45;&gt;8</title>
<path fill="none" stroke="#c0c0c0" stroke-width="2" d="M895.8766,-433.0678C898.6072,-432.7068 901.3172,-432.3506 904,-432 1028.8328,-415.6886 1173.6684,-398.3287 1262.8235,-387.8226"/>
<polygon fill="#c0c0c0" stroke="#c0c0c0" stroke-width="2" points="1263.3568,-391.284 1272.879,-386.6389 1262.5384,-384.332 1263.3568,-391.284"/>
</g>
<!-- 25 -->
<g id="node26" class="node">
<title>25</title>
<path fill="none" stroke="#d86e56" stroke-width="2" stroke-dasharray="5,2" d="M1178.5,-473C1178.5,-473 925.5,-473 925.5,-473 919.5,-473 913.5,-467 913.5,-461 913.5,-461 913.5,-444 913.5,-444 913.5,-438 919.5,-432 925.5,-432 925.5,-432 1178.5,-432 1178.5,-432 1184.5,-432 1190.5,-438 1190.5,-444 1190.5,-444 1190.5,-461 1190.5,-461 1190.5,-467 1184.5,-473 1178.5,-473"/>
<text text-anchor="middle" x="1052" y="-461" font-family="sans" font-size="10.00" fill="#000000">csv_to_odml</text>
<text text-anchor="middle" x="1052" y="-450" font-family="sans" font-size="10.00" fill="#000000">filename: descriptor_subject</text>
<text text-anchor="middle" x="1052" y="-439" font-family="sans" font-size="10.00" fill="#000000">folder: /home/julia/tmp/y180116&#45;land&#45;001/descriptors</text>
</g>
<!-- 25&#45;&gt;8 -->
<g id="edge28" class="edge">
<title>25&#45;&gt;8</title>
<path fill="none" stroke="#c0c0c0" stroke-width="2" d="M1133.391,-431.9453C1174.5992,-421.5385 1224.4873,-408.9396 1265.6849,-398.5355"/>
<polygon fill="#c0c0c0" stroke="#c0c0c0" stroke-width="2" points="1266.5781,-401.9199 1275.4167,-396.0778 1264.8641,-395.133 1266.5781,-401.9199"/>
</g>
<!-- 26 -->
<g id="node27" class="node">
<title>26</title>
<path fill="none" stroke="#d86e56" stroke-width="2" stroke-dasharray="5,2" d="M1473.5,-473C1473.5,-473 1220.5,-473 1220.5,-473 1214.5,-473 1208.5,-467 1208.5,-461 1208.5,-461 1208.5,-444 1208.5,-444 1208.5,-438 1214.5,-432 1220.5,-432 1220.5,-432 1473.5,-432 1473.5,-432 1479.5,-432 1485.5,-438 1485.5,-444 1485.5,-444 1485.5,-461 1485.5,-461 1485.5,-467 1479.5,-473 1473.5,-473"/>
<text text-anchor="middle" x="1347" y="-461" font-family="sans" font-size="10.00" fill="#000000">csv_to_odml</text>
<text text-anchor="middle" x="1347" y="-450" font-family="sans" font-size="10.00" fill="#000000">filename: descriptor_session</text>
<text text-anchor="middle" x="1347" y="-439" font-family="sans" font-size="10.00" fill="#000000">folder: /home/julia/tmp/y180116&#45;land&#45;001/descriptors</text>
</g>
<!-- 26&#45;&gt;8 -->
<g id="edge29" class="edge">
<title>26&#45;&gt;8</title>
<path fill="none" stroke="#c0c0c0" stroke-width="2" d="M1347,-431.7476C1347,-423.8767 1347,-414.7743 1347,-406.3232"/>
<polygon fill="#c0c0c0" stroke="#c0c0c0" stroke-width="2" points="1350.5001,-406.1086 1347,-396.1087 1343.5001,-406.1087 1350.5001,-406.1086"/>
</g>
<!-- 27 -->
<g id="node28" class="node">
<title>27</title>
<path fill="none" stroke="#d86e56" stroke-width="2" stroke-dasharray="5,2" d="M1768.5,-473C1768.5,-473 1515.5,-473 1515.5,-473 1509.5,-473 1503.5,-467 1503.5,-461 1503.5,-461 1503.5,-444 1503.5,-444 1503.5,-438 1509.5,-432 1515.5,-432 1515.5,-432 1768.5,-432 1768.5,-432 1774.5,-432 1780.5,-438 1780.5,-444 1780.5,-444 1780.5,-461 1780.5,-461 1780.5,-467 1774.5,-473 1768.5,-473"/>
<text text-anchor="middle" x="1642" y="-461" font-family="sans" font-size="10.00" fill="#000000">csv_to_odml</text>
<text text-anchor="middle" x="1642" y="-450" font-family="sans" font-size="10.00" fill="#000000">filename: descriptor_digital_communication</text>
<text text-anchor="middle" x="1642" y="-439" font-family="sans" font-size="10.00" fill="#000000">folder: /home/julia/tmp/y180116&#45;land&#45;001/descriptors</text>
</g>
<!-- 27&#45;&gt;8 -->
<g id="edge30" class="edge">
<title>27&#45;&gt;8</title>
<path fill="none" stroke="#c0c0c0" stroke-width="2" d="M1560.609,-431.9453C1519.4008,-421.5385 1469.5127,-408.9396 1428.3151,-398.5355"/>
<polygon fill="#c0c0c0" stroke="#c0c0c0" stroke-width="2" points="1429.1359,-395.133 1418.5833,-396.0778 1427.4219,-401.9199 1429.1359,-395.133"/>
</g>
<!-- 28 -->
<g id="node29" class="node">
<title>28</title>
<path fill="none" stroke="#d86e56" stroke-width="2" stroke-dasharray="5,2" d="M2063.5,-473C2063.5,-473 1810.5,-473 1810.5,-473 1804.5,-473 1798.5,-467 1798.5,-461 1798.5,-461 1798.5,-444 1798.5,-444 1798.5,-438 1804.5,-432 1810.5,-432 1810.5,-432 2063.5,-432 2063.5,-432 2069.5,-432 2075.5,-438 2075.5,-444 2075.5,-444 2075.5,-461 2075.5,-461 2075.5,-467 2069.5,-473 2063.5,-473"/>
<text text-anchor="middle" x="1937" y="-461" font-family="sans" font-size="10.00" fill="#000000">csv_to_odml</text>
<text text-anchor="middle" x="1937" y="-450" font-family="sans" font-size="10.00" fill="#000000">filename: descriptor_blackrock</text>
<text text-anchor="middle" x="1937" y="-439" font-family="sans" font-size="10.00" fill="#000000">folder: /home/julia/tmp/y180116&#45;land&#45;001/descriptors</text>
</g>
<!-- 28&#45;&gt;8 -->
<g id="edge31" class="edge">
<title>28&#45;&gt;8</title>
<path fill="none" stroke="#c0c0c0" stroke-width="2" d="M1798.1234,-433.0678C1795.3928,-432.7068 1792.6828,-432.3506 1790,-432 1665.1672,-415.6886 1520.3316,-398.3287 1431.1765,-387.8226"/>
<polygon fill="#c0c0c0" stroke="#c0c0c0" stroke-width="2" points="1431.4616,-384.332 1421.121,-386.6389 1430.6432,-391.284 1431.4616,-384.332"/>
</g>
<!-- 29 -->
<g id="node30" class="node">
<title>29</title>
<path fill="none" stroke="#d86e56" stroke-width="2" stroke-dasharray="5,2" d="M2358.5,-473C2358.5,-473 2105.5,-473 2105.5,-473 2099.5,-473 2093.5,-467 2093.5,-461 2093.5,-461 2093.5,-444 2093.5,-444 2093.5,-438 2099.5,-432 2105.5,-432 2105.5,-432 2358.5,-432 2358.5,-432 2364.5,-432 2370.5,-438 2370.5,-444 2370.5,-444 2370.5,-461 2370.5,-461 2370.5,-467 2364.5,-473 2358.5,-473"/>
<text text-anchor="middle" x="2232" y="-461" font-family="sans" font-size="10.00" fill="#000000">csv_to_odml</text>
<text text-anchor="middle" x="2232" y="-450" font-family="sans" font-size="10.00" fill="#000000">filename: descriptor_codes_global</text>
<text text-anchor="middle" x="2232" y="-439" font-family="sans" font-size="10.00" fill="#000000">folder: /home/julia/tmp/y180116&#45;land&#45;001/descriptors</text>
</g>
<!-- 29&#45;&gt;8 -->
<g id="edge32" class="edge">
<title>29&#45;&gt;8</title>
<path fill="none" stroke="#c0c0c0" stroke-width="2" d="M2093.1445,-432.8889C2090.4076,-432.5825 2087.6905,-432.2857 2085,-432 1848.6698,-406.9022 1568.5138,-389.8785 1431.2856,-382.3659"/>
<polygon fill="#c0c0c0" stroke="#c0c0c0" stroke-width="2" points="1431.4302,-378.8686 1421.2547,-381.8197 1431.0496,-385.8583 1431.4302,-378.8686"/>
</g>
<!-- 30 -->
<g id="node31" class="node">
<title>30</title>
<path fill="none" stroke="#d86e56" stroke-width="2" stroke-dasharray="5,2" d="M2653.5,-473C2653.5,-473 2400.5,-473 2400.5,-473 2394.5,-473 2388.5,-467 2388.5,-461 2388.5,-461 2388.5,-444 2388.5,-444 2388.5,-438 2394.5,-432 2400.5,-432 2400.5,-432 2653.5,-432 2653.5,-432 2659.5,-432 2665.5,-438 2665.5,-444 2665.5,-444 2665.5,-461 2665.5,-461 2665.5,-467 2659.5,-473 2653.5,-473"/>
<text text-anchor="middle" x="2527" y="-461" font-family="sans" font-size="10.00" fill="#000000">csv_to_odml</text>
<text text-anchor="middle" x="2527" y="-450" font-family="sans" font-size="10.00" fill="#000000">filename: descriptor_codes_landing</text>
<text text-anchor="middle" x="2527" y="-439" font-family="sans" font-size="10.00" fill="#000000">folder: /home/julia/tmp/y180116&#45;land&#45;001/descriptors</text>
</g>
<!-- 30&#45;&gt;8 -->
<g id="edge33" class="edge">
<title>30&#45;&gt;8</title>
<path fill="none" stroke="#c0c0c0" stroke-width="2" d="M2388.1523,-432.8116C2385.413,-432.5288 2382.6933,-432.2577 2380,-432 2028.5695,-398.3733 1607.731,-384.5482 1431.3136,-379.9421"/>
<polygon fill="#c0c0c0" stroke="#c0c0c0" stroke-width="2" points="1431.1512,-376.4369 1421.0642,-379.6778 1430.9706,-383.4345 1431.1512,-376.4369"/>
</g>
<!-- 31 -->
<g id="node32" class="node">
<title>31</title>
<path fill="none" stroke="#d86e56" stroke-width="2" stroke-dasharray="5,2" d="M293.5,-473C293.5,-473 40.5,-473 40.5,-473 34.5,-473 28.5,-467 28.5,-461 28.5,-461 28.5,-444 28.5,-444 28.5,-438 34.5,-432 40.5,-432 40.5,-432 293.5,-432 293.5,-432 299.5,-432 305.5,-438 305.5,-444 305.5,-444 305.5,-461 305.5,-461 305.5,-467 299.5,-473 293.5,-473"/>
<text text-anchor="middle" x="167" y="-461" font-family="sans" font-size="10.00" fill="#000000">csv_to_odml</text>
<text text-anchor="middle" x="167" y="-450" font-family="sans" font-size="10.00" fill="#000000">filename: descriptor_kinarm</text>
<text text-anchor="middle" x="167" y="-439" font-family="sans" font-size="10.00" fill="#000000">folder: /home/julia/tmp/y180116&#45;land&#45;001/descriptors</text>
</g>
<!-- 31&#45;&gt;8 -->
<g id="edge34" class="edge">
<title>31&#45;&gt;8</title>
<path fill="none" stroke="#c0c0c0" stroke-width="2" d="M305.8477,-432.8116C308.587,-432.5288 311.3067,-432.2577 314,-432 665.4305,-398.3733 1086.269,-384.5482 1262.6864,-379.9421"/>
<polygon fill="#c0c0c0" stroke="#c0c0c0" stroke-width="2" points="1263.0294,-383.4345 1272.9358,-379.6778 1262.8488,-376.4369 1263.0294,-383.4345"/>
</g>
<!-- 32 -->
<g id="node33" class="node">
<title>32</title>
<path fill="none" stroke="#d8bc56" stroke-width="2" d="M4203,-550C4203,-550 4079,-550 4079,-550 4073,-550 4067,-544 4067,-538 4067,-538 4067,-521 4067,-521 4067,-515 4073,-509 4079,-509 4079,-509 4203,-509 4203,-509 4209,-509 4215,-515 4215,-521 4215,-521 4215,-538 4215,-538 4215,-544 4209,-550 4203,-550"/>
<text text-anchor="middle" x="4141" y="-538" font-family="sans" font-size="10.00" fill="#000000">run_metadata_app</text>
<text text-anchor="middle" x="4141" y="-527" font-family="sans" font-size="10.00" fill="#000000">app: app_event_check</text>
<text text-anchor="middle" x="4141" y="-516" font-family="sans" font-size="10.00" fill="#000000">session: y180116&#45;land&#45;001</text>
</g>
<!-- 32&#45;&gt;9 -->
<g id="edge35" class="edge">
<title>32&#45;&gt;9</title>
<path fill="none" stroke="#c0c0c0" stroke-width="2" d="M4215.1755,-512.602C4263.1893,-501.664 4326.301,-487.2865 4378.7578,-475.3362"/>
<polygon fill="#c0c0c0" stroke="#c0c0c0" stroke-width="2" points="4379.7877,-478.6914 4388.7605,-473.0575 4378.2328,-471.8662 4379.7877,-478.6914"/>
</g>
<!-- 32&#45;&gt;21 -->
<g id="edge60" class="edge">
<title>32&#45;&gt;21</title>
<path fill="none" stroke="#c0c0c0" stroke-width="2" d="M4066.9879,-515.3082C4051.5148,-512.8065 4035.2651,-510.5199 4020,-509 3500.5455,-457.2787 3363.4591,-541.8779 2846,-473 2844.2741,-472.7703 2842.5323,-472.5206 2840.7793,-472.2533"/>
<polygon fill="#c0c0c0" stroke="#c0c0c0" stroke-width="2" points="2841.0947,-468.7572 2830.6518,-470.5445 2839.93,-475.6596 2841.0947,-468.7572"/>
</g>
<!-- 33 -->
<g id="node34" class="node">
<title>33</title>
<path fill="none" stroke="#56a2d8" stroke-width="2" d="M4920.5,-547.5C4920.5,-547.5 4631.5,-547.5 4631.5,-547.5 4625.5,-547.5 4619.5,-541.5 4619.5,-535.5 4619.5,-535.5 4619.5,-523.5 4619.5,-523.5 4619.5,-517.5 4625.5,-511.5 4631.5,-511.5 4631.5,-511.5 4920.5,-511.5 4920.5,-511.5 4926.5,-511.5 4932.5,-517.5 4932.5,-523.5 4932.5,-523.5 4932.5,-535.5 4932.5,-535.5 4932.5,-541.5 4926.5,-547.5 4920.5,-547.5"/>
<text text-anchor="middle" x="4776" y="-532.5" font-family="sans" font-size="10.00" fill="#000000">add_odML_style_sheet</text>
<text text-anchor="middle" x="4776" y="-521.5" font-family="sans" font-size="10.00" fill="#000000">folder: /home/julia/tmp/y180116&#45;land&#45;001/app_results/odMLs</text>
</g>
<!-- 33&#45;&gt;9 -->
<g id="edge36" class="edge">
<title>33&#45;&gt;9</title>
<path fill="none" stroke="#c0c0c0" stroke-width="2" d="M4706.3667,-511.4469C4665.0825,-500.7436 4612.342,-487.0701 4568.0517,-475.5875"/>
<polygon fill="#c0c0c0" stroke="#c0c0c0" stroke-width="2" points="4568.7146,-472.1437 4558.1562,-473.022 4566.9578,-478.9197 4568.7146,-472.1437"/>
</g>
<!-- 33&#45;&gt;10 -->
<g id="edge38" class="edge">
<title>33&#45;&gt;10</title>
<path fill="none" stroke="#c0c0c0" stroke-width="2" d="M4776,-511.2521C4776,-502.9156 4776,-492.808 4776,-483.3438"/>
<polygon fill="#c0c0c0" stroke="#c0c0c0" stroke-width="2" points="4779.5001,-483.0603 4776,-473.0603 4772.5001,-483.0603 4779.5001,-483.0603"/>
</g>
<!-- 33&#45;&gt;11 -->
<g id="edge39" class="edge">
<title>33&#45;&gt;11</title>
<path fill="none" stroke="#c0c0c0" stroke-width="2" d="M4932.8038,-520.3968C5080.9279,-511.142 5309.543,-495.1687 5517.0219,-473.1836"/>
<polygon fill="#c0c0c0" stroke="#c0c0c0" stroke-width="2" points="5517.6257,-476.6391 5527.1982,-472.0986 5516.8835,-469.6786 5517.6257,-476.6391"/>
</g>
<!-- 33&#45;&gt;12 -->
<g id="edge42" class="edge">
<title>33&#45;&gt;12</title>
<path fill="none" stroke="#c0c0c0" stroke-width="2" d="M4932.6958,-522.5933C5175.3077,-511.6324 5632.0504,-489.8628 5814.1748,-473.1233"/>
<polygon fill="#c0c0c0" stroke="#c0c0c0" stroke-width="2" points="5814.5783,-476.6009 5824.2064,-472.1794 5813.9225,-469.6317 5814.5783,-476.6009"/>
</g>
<!-- 33&#45;&gt;13 -->
<g id="edge44" class="edge">
<title>33&#45;&gt;13</title>
<path fill="none" stroke="#c0c0c0" stroke-width="2" d="M4845.6333,-511.4469C4886.9175,-500.7436 4939.658,-487.0701 4983.9483,-475.5875"/>
<polygon fill="#c0c0c0" stroke="#c0c0c0" stroke-width="2" points="4985.0422,-478.9197 4993.8438,-473.022 4983.2854,-472.1437 4985.0422,-478.9197"/>
</g>
<!-- 33&#45;&gt;14 -->
<g id="edge45" class="edge">
<title>33&#45;&gt;14</title>
<path fill="none" stroke="#c0c0c0" stroke-width="2" d="M4634.2673,-511.4611C4624.3726,-510.5243 4614.5433,-509.688 4605,-509 3960.0315,-462.5037 3792.5741,-524.7337 3143.6083,-472.99"/>
<polygon fill="#c0c0c0" stroke="#c0c0c0" stroke-width="2" points="3143.7849,-469.493 3133.5367,-472.1809 3143.2243,-476.4705 3143.7849,-469.493"/>
</g>
<!-- 33&#45;&gt;15 -->
<g id="edge47" class="edge">
<title>33&#45;&gt;15</title>
<path fill="none" stroke="#c0c0c0" stroke-width="2" d="M4633.7985,-511.4852C4624.0617,-510.5498 4614.392,-509.7067 4605,-509 4091.8404,-470.3878 3957.9667,-515.7583 3440.8831,-473.0168"/>
<polygon fill="#c0c0c0" stroke="#c0c0c0" stroke-width="2" points="3440.7952,-469.4974 3430.5389,-472.1542 3440.2134,-476.4732 3440.7952,-469.4974"/>
</g>
<!-- 33&#45;&gt;16 -->
<g id="edge50" class="edge">
<title>33&#45;&gt;16</title>
<path fill="none" stroke="#c0c0c0" stroke-width="2" d="M4632.3994,-511.4626C4623.1349,-510.5532 4613.9411,-509.7203 4605,-509 4223.4259,-478.262 4123.2835,-506.855 3737.5794,-472.9987"/>
<polygon fill="#c0c0c0" stroke="#c0c0c0" stroke-width="2" points="3737.8127,-469.5057 3727.5428,-472.1093 3737.1948,-476.4784 3737.8127,-469.5057"/>
</g>
<!-- 33&#45;&gt;17 -->
<g id="edge52" class="edge">
<title>33&#45;&gt;17</title>
<path fill="none" stroke="#c0c0c0" stroke-width="2" d="M4630.5292,-511.4953C4621.8964,-510.6025 4613.3373,-509.762 4605,-509 4355.1121,-486.1623 4288.7555,-498.0234 4034.8299,-473.0391"/>
<polygon fill="#c0c0c0" stroke="#c0c0c0" stroke-width="2" points="4034.8485,-469.5238 4024.5514,-472.0179 4034.1564,-476.4895 4034.8485,-469.5238"/>
</g>
<!-- 33&#45;&gt;18 -->
<g id="edge54" class="edge">
<title>33&#45;&gt;18</title>
<path fill="none" stroke="#c0c0c0" stroke-width="2" d="M4631.1523,-511.497C4546.7512,-500.9132 4437.9877,-487.1147 4331.5441,-473.0657"/>
<polygon fill="#c0c0c0" stroke="#c0c0c0" stroke-width="2" points="4331.955,-469.5897 4321.5826,-471.7493 4331.0379,-476.5293 4331.955,-469.5897"/>
</g>
<!-- 33&#45;&gt;19 -->
<g id="edge55" class="edge">
<title>33&#45;&gt;19</title>
<path fill="none" stroke="#c0c0c0" stroke-width="2" d="M4932.5958,-523.2827C5260.4839,-510.2117 5997.7702,-480.5246 6110.9634,-472.9942"/>
<polygon fill="#c0c0c0" stroke="#c0c0c0" stroke-width="2" points="6111.5009,-476.4637 6121.2106,-472.2245 6110.9765,-469.4834 6111.5009,-476.4637"/>
</g>
<!-- 33&#45;&gt;20 -->
<g id="edge58" class="edge">
<title>33&#45;&gt;20</title>
<path fill="none" stroke="#c0c0c0" stroke-width="2" d="M4932.5387,-523.2268C5038.5124,-519.0392 5181.6825,-513.497 5308,-509 5794.3811,-491.6846 5920.0238,-514.3609 6408.0841,-473.121"/>
<polygon fill="#c0c0c0" stroke="#c0c0c0" stroke-width="2" points="6408.546,-476.5944 6418.2138,-472.2603 6407.9533,-469.6196 6408.546,-476.5944"/>
</g>
<!-- 33&#45;&gt;22 -->
<g id="edge68" class="edge">
<title>33&#45;&gt;22</title>
<path fill="none" stroke="#c0c0c0" stroke-width="2" d="M4921.6834,-511.4785C5006.1247,-500.9281 5114.7685,-487.176 5220.0034,-473.2589"/>
<polygon fill="#c0c0c0" stroke="#c0c0c0" stroke-width="2" points="5220.7219,-476.6944 5230.1758,-471.9116 5219.8028,-469.755 5220.7219,-476.6944"/>
</g>
<!-- 34 -->
<g id="node35" class="node">
<title>34</title>
<path fill="none" stroke="#d8bc56" stroke-width="2" d="M4407.5,-550C4407.5,-550 4264.5,-550 4264.5,-550 4258.5,-550 4252.5,-544 4252.5,-538 4252.5,-538 4252.5,-521 4252.5,-521 4252.5,-515 4258.5,-509 4264.5,-509 4264.5,-509 4407.5,-509 4407.5,-509 4413.5,-509 4419.5,-515 4419.5,-521 4419.5,-521 4419.5,-538 4419.5,-538 4419.5,-544 4413.5,-550 4407.5,-550"/>
<text text-anchor="middle" x="4336" y="-538" font-family="sans" font-size="10.00" fill="#000000">run_metadata_app</text>
<text text-anchor="middle" x="4336" y="-527" font-family="sans" font-size="10.00" fill="#000000">app: app_subject_performance</text>
<text text-anchor="middle" x="4336" y="-516" font-family="sans" font-size="10.00" fill="#000000">session: y180116&#45;land&#45;001</text>
</g>
<!-- 34&#45;&gt;10 -->
<g id="edge37" class="edge">
<title>34&#45;&gt;10</title>
<path fill="none" stroke="#c0c0c0" stroke-width="2" d="M4419.717,-512.6171C4426.2373,-511.3697 4432.7231,-510.1505 4439,-509 4504.2236,-497.0446 4576.7377,-484.7579 4637.7412,-474.7084"/>
<polygon fill="#c0c0c0" stroke="#c0c0c0" stroke-width="2" points="4638.5195,-478.1275 4647.8191,-473.0513 4637.3837,-471.2203 4638.5195,-478.1275"/>
</g>
<!-- 34&#45;&gt;21 -->
<g id="edge63" class="edge">
<title>34&#45;&gt;21</title>
<path fill="none" stroke="#c0c0c0" stroke-width="2" d="M4252.417,-512.74C4242.8638,-511.2594 4233.2409,-509.9606 4224,-509 3614.6299,-445.6576 3453.4788,-552.4585 2846,-473 2844.2736,-472.7742 2842.5313,-472.5281 2840.7779,-472.2641"/>
<polygon fill="#c0c0c0" stroke="#c0c0c0" stroke-width="2" points="2841.0886,-468.7675 2830.6483,-470.5705 2839.9342,-475.6717 2841.0886,-468.7675"/>
</g>
<!-- 35&#45;&gt;11 -->
<g id="edge40" class="edge">
<title>35&#45;&gt;11</title>
<path fill="none" stroke="#c0c0c0" stroke-width="2" d="M5689.1274,-511.2521C5685.8864,-502.6466 5681.9347,-492.1541 5678.2723,-482.4299"/>
<polygon fill="#c0c0c0" stroke="#c0c0c0" stroke-width="2" points="5681.5435,-481.185 5674.7435,-473.0603 5674.9927,-483.6522 5681.5435,-481.185"/>
</g>
<!-- 36&#45;&gt;12 -->
<g id="edge41" class="edge">
<title>36&#45;&gt;12</title>
<path fill="none" stroke="#c0c0c0" stroke-width="2" d="M5941.8726,-511.2521C5945.1136,-502.6466 5949.0653,-492.1541 5952.7277,-482.4299"/>
<polygon fill="#c0c0c0" stroke="#c0c0c0" stroke-width="2" points="5956.0073,-483.6522 5956.2565,-473.0603 5949.4565,-481.185 5956.0073,-483.6522"/>
</g>
<!-- 37 -->
<g id="node38" class="node">
<title>37</title>
<path fill="none" stroke="#d8bc56" stroke-width="2" d="M4584,-550C4584,-550 4460,-550 4460,-550 4454,-550 4448,-544 4448,-538 4448,-538 4448,-521 4448,-521 4448,-515 4454,-509 4460,-509 4460,-509 4584,-509 4584,-509 4590,-509 4596,-515 4596,-521 4596,-521 4596,-538 4596,-538 4596,-544 4590,-550 4584,-550"/>
<text text-anchor="middle" x="4522" y="-538" font-family="sans" font-size="10.00" fill="#000000">run_metadata_app</text>
<text text-anchor="middle" x="4522" y="-527" font-family="sans" font-size="10.00" fill="#000000">app: app_all_files_exist</text>
<text text-anchor="middle" x="4522" y="-516" font-family="sans" font-size="10.00" fill="#000000">session: y180116&#45;land&#45;001</text>
</g>
<!-- 37&#45;&gt;13 -->
<g id="edge43" class="edge">
<title>37&#45;&gt;13</title>
<path fill="none" stroke="#c0c0c0" stroke-width="2" d="M4596.1746,-511.7592C4601.1796,-510.7647 4606.1557,-509.8329 4611,-509 4746.1938,-485.7555 4783.8888,-490.3988 4922.9884,-473.2303"/>
<polygon fill="#c0c0c0" stroke="#c0c0c0" stroke-width="2" points="4923.6931,-476.6696 4933.1815,-471.9558 4922.8245,-469.7237 4923.6931,-476.6696"/>
</g>
<!-- 37&#45;&gt;21 -->
<g id="edge59" class="edge">
<title>37&#45;&gt;21</title>
<path fill="none" stroke="#c0c0c0" stroke-width="2" d="M4447.8548,-511.8108C4441.5033,-510.7053 4435.1556,-509.7413 4429,-509 3730.3107,-424.8595 3543.9469,-563.0919 2846,-473 2844.0591,-472.7495 2842.0982,-472.473 2840.1242,-472.1739"/>
<polygon fill="#c0c0c0" stroke="#c0c0c0" stroke-width="2" points="2840.6169,-468.7077 2830.1755,-470.504 2839.4581,-475.6112 2840.6169,-468.7077"/>
</g>
<!-- 38 -->
<g id="node39" class="node">
<title>38</title>
<path fill="none" stroke="#d8bc56" stroke-width="2" d="M2988,-550C2988,-550 2770,-550 2770,-550 2764,-550 2758,-544 2758,-538 2758,-538 2758,-521 2758,-521 2758,-515 2764,-509 2770,-509 2770,-509 2988,-509 2988,-509 2994,-509 3000,-515 3000,-521 3000,-521 3000,-538 3000,-538 3000,-544 2994,-550 2988,-550"/>
<text text-anchor="middle" x="2879" y="-538" font-family="sans" font-size="10.00" fill="#000000">run_metadata_app</text>
<text text-anchor="middle" x="2879" y="-527" font-family="sans" font-size="10.00" fill="#000000">app: app_synchrofact_complexity_distribution</text>
<text text-anchor="middle" x="2879" y="-516" font-family="sans" font-size="10.00" fill="#000000">session: y180116&#45;land&#45;001</text>
</g>
<!-- 38&#45;&gt;14 -->
<g id="edge46" class="edge">
<title>38&#45;&gt;14</title>
<path fill="none" stroke="#c0c0c0" stroke-width="2" d="M2909.8179,-508.8654C2923.6108,-499.6302 2940.0357,-488.6326 2954.6997,-478.8141"/>
<polygon fill="#c0c0c0" stroke="#c0c0c0" stroke-width="2" points="2956.735,-481.6635 2963.097,-473.1915 2952.8404,-475.847 2956.735,-481.6635"/>
</g>
<!-- 38&#45;&gt;21 -->
<g id="edge64" class="edge">
<title>38&#45;&gt;21</title>
<path fill="none" stroke="#c0c0c0" stroke-width="2" d="M2847.1102,-508.8654C2831.5423,-498.7921 2812.7343,-486.6222 2796.5847,-476.1725"/>
<polygon fill="#c0c0c0" stroke="#c0c0c0" stroke-width="2" points="2798.2208,-473.0623 2787.9237,-470.5683 2794.418,-478.9393 2798.2208,-473.0623"/>
</g>
<!-- 39 -->
<g id="node40" class="node">
<title>39</title>
<path fill="none" stroke="#d8bc56" stroke-width="2" d="M3348.5,-550C3348.5,-550 3175.5,-550 3175.5,-550 3169.5,-550 3163.5,-544 3163.5,-538 3163.5,-538 3163.5,-521 3163.5,-521 3163.5,-515 3169.5,-509 3175.5,-509 3175.5,-509 3348.5,-509 3348.5,-509 3354.5,-509 3360.5,-515 3360.5,-521 3360.5,-521 3360.5,-538 3360.5,-538 3360.5,-544 3354.5,-550 3348.5,-550"/>
<text text-anchor="middle" x="3262" y="-538" font-family="sans" font-size="10.00" fill="#000000">run_metadata_app</text>
<text text-anchor="middle" x="3262" y="-527" font-family="sans" font-size="10.00" fill="#000000">app: app_create_channel_descriptors</text>
<text text-anchor="middle" x="3262" y="-516" font-family="sans" font-size="10.00" fill="#000000">session: y180116&#45;land&#45;001</text>
</g>
<!-- 39&#45;&gt;15 -->
<g id="edge48" class="edge">
<title>39&#45;&gt;15</title>
<path fill="none" stroke="#c0c0c0" stroke-width="2" d="M3269.7715,-508.8654C3272.7946,-500.8385 3276.3191,-491.4803 3279.6177,-482.7221"/>
<polygon fill="#c0c0c0" stroke="#c0c0c0" stroke-width="2" points="3282.9579,-483.7835 3283.2071,-473.1915 3276.4071,-481.3162 3282.9579,-483.7835"/>
</g>
<!-- 39&#45;&gt;21 -->
<g id="edge65" class="edge">
<title>39&#45;&gt;21</title>
<path fill="none" stroke="#c0c0c0" stroke-width="2" d="M3163.2189,-518.8749C3078.6521,-509.1134 2953.8307,-493.1234 2846,-473 2845.2362,-472.8574 2844.4689,-472.7125 2843.6986,-472.5654"/>
<polygon fill="#c0c0c0" stroke="#c0c0c0" stroke-width="2" points="2844.0442,-469.0653 2833.5523,-470.5389 2842.6732,-475.9298 2844.0442,-469.0653"/>
</g>
<!-- 40 -->
<g id="node41" class="node">
<title>40</title>
<path fill="none" stroke="#d8bc56" stroke-width="2" d="M3583,-550C3583,-550 3459,-550 3459,-550 3453,-550 3447,-544 3447,-538 3447,-538 3447,-521 3447,-521 3447,-515 3453,-509 3459,-509 3459,-509 3583,-509 3583,-509 3589,-509 3595,-515 3595,-521 3595,-521 3595,-538 3595,-538 3595,-544 3589,-550 3583,-550"/>
<text text-anchor="middle" x="3521" y="-538" font-family="sans" font-size="10.00" fill="#000000">run_metadata_app</text>
<text text-anchor="middle" x="3521" y="-527" font-family="sans" font-size="10.00" fill="#000000">app: app_overview_plot</text>
<text text-anchor="middle" x="3521" y="-516" font-family="sans" font-size="10.00" fill="#000000">session: y180116&#45;land&#45;001</text>
</g>
<!-- 40&#45;&gt;16 -->
<g id="edge49" class="edge">
<title>40&#45;&gt;16</title>
<path fill="none" stroke="#c0c0c0" stroke-width="2" d="M3538.9548,-508.8654C3546.4649,-500.2343 3555.3144,-490.064 3563.4141,-480.7554"/>
<polygon fill="#c0c0c0" stroke="#c0c0c0" stroke-width="2" points="3566.0718,-483.033 3569.9957,-473.1915 3560.791,-478.438 3566.0718,-483.033"/>
</g>
<!-- 40&#45;&gt;21 -->
<g id="edge62" class="edge">
<title>40&#45;&gt;21</title>
<path fill="none" stroke="#c0c0c0" stroke-width="2" d="M3446.6173,-518.4036C3422.2433,-515.0346 3395.0029,-511.5533 3370,-509 3137.7699,-485.285 3076.7711,-508.1845 2846,-473 2844.5301,-472.7759 2843.0482,-472.5394 2841.5575,-472.2917"/>
<polygon fill="#c0c0c0" stroke="#c0c0c0" stroke-width="2" points="2842.0824,-468.8301 2831.6215,-470.509 2840.8462,-475.7201 2842.0824,-468.8301"/>
</g>
<!-- 41 -->
<g id="node42" class="node">
<title>41</title>
<path fill="none" stroke="#d8bc56" stroke-width="2" d="M3756,-550C3756,-550 3630,-550 3630,-550 3624,-550 3618,-544 3618,-538 3618,-538 3618,-521 3618,-521 3618,-515 3624,-509 3630,-509 3630,-509 3756,-509 3756,-509 3762,-509 3768,-515 3768,-521 3768,-521 3768,-538 3768,-538 3768,-544 3762,-550 3756,-550"/>
<text text-anchor="middle" x="3693" y="-538" font-family="sans" font-size="10.00" fill="#000000">run_metadata_app</text>
<text text-anchor="middle" x="3693" y="-527" font-family="sans" font-size="10.00" fill="#000000">app: app_is_session_sorted</text>
<text text-anchor="middle" x="3693" y="-516" font-family="sans" font-size="10.00" fill="#000000">session: y180116&#45;land&#45;001</text>
</g>
<!-- 41&#45;&gt;17 -->
<g id="edge51" class="edge">
<title>41&#45;&gt;17</title>
<path fill="none" stroke="#c0c0c0" stroke-width="2" d="M3744.2003,-508.9666C3768.8358,-499.0867 3798.5453,-487.1719 3824.3114,-476.8386"/>
<polygon fill="#c0c0c0" stroke="#c0c0c0" stroke-width="2" points="3825.6305,-480.0807 3833.6091,-473.1099 3823.0249,-473.5837 3825.6305,-480.0807"/>
</g>
<!-- 41&#45;&gt;21 -->
<g id="edge61" class="edge">
<title>41&#45;&gt;21</title>
<path fill="none" stroke="#c0c0c0" stroke-width="2" d="M3617.9124,-511.2101C3613.2205,-510.3761 3608.5552,-509.6276 3604,-509 3269.888,-462.9643 3179.9343,-520.3078 2846,-473 2844.4803,-472.7847 2842.9481,-472.5549 2841.4067,-472.3122"/>
<polygon fill="#c0c0c0" stroke="#c0c0c0" stroke-width="2" points="2841.5848,-468.7912 2831.1348,-470.5367 2840.3925,-475.6889 2841.5848,-468.7912"/>
</g>
<!-- 42 -->
<g id="node43" class="node">
<title>42</title>
<path fill="none" stroke="#d8bc56" stroke-width="2" d="M3999,-550C3999,-550 3875,-550 3875,-550 3869,-550 3863,-544 3863,-538 3863,-538 3863,-521 3863,-521 3863,-515 3869,-509 3875,-509 3875,-509 3999,-509 3999,-509 4005,-509 4011,-515 4011,-521 4011,-521 4011,-538 4011,-538 4011,-544 4005,-550 3999,-550"/>
<text text-anchor="middle" x="3937" y="-538" font-family="sans" font-size="10.00" fill="#000000">run_metadata_app</text>
<text text-anchor="middle" x="3937" y="-527" font-family="sans" font-size="10.00" fill="#000000">app: app_gap_detection</text>
<text text-anchor="middle" x="3937" y="-516" font-family="sans" font-size="10.00" fill="#000000">session: y180116&#45;land&#45;001</text>
</g>
<!-- 42&#45;&gt;18 -->
<g id="edge53" class="edge">
<title>42&#45;&gt;18</title>
<path fill="none" stroke="#c0c0c0" stroke-width="2" d="M4002.3337,-508.9666C4034.4591,-498.87 4073.346,-486.6484 4106.7146,-476.1611"/>
<polygon fill="#c0c0c0" stroke="#c0c0c0" stroke-width="2" points="4107.9326,-479.4472 4116.4231,-473.1099 4105.8338,-472.7692 4107.9326,-479.4472"/>
</g>
<!-- 42&#45;&gt;21 -->
<g id="edge66" class="edge">
<title>42&#45;&gt;21</title>
<path fill="none" stroke="#c0c0c0" stroke-width="2" d="M3862.6612,-518.5816C3835.7326,-514.9954 3805.0479,-511.3345 3777,-509 3364.3399,-474.6538 3256.245,-529.2765 2846,-473 2844.4794,-472.7914 2842.9463,-472.5678 2841.4041,-472.3307"/>
<polygon fill="#c0c0c0" stroke="#c0c0c0" stroke-width="2" points="2841.5727,-468.8094 2831.1279,-470.5859 2840.4009,-475.7106 2841.5727,-468.8094"/>
</g>
<!-- 43&#45;&gt;19 -->
<g id="edge56" class="edge">
<title>43&#45;&gt;19</title>
<path fill="none" stroke="#c0c0c0" stroke-width="2" d="M6214.4561,-511.2521C6221.6285,-502.1984 6230.4556,-491.056 6238.4877,-480.9172"/>
<polygon fill="#c0c0c0" stroke="#c0c0c0" stroke-width="2" points="6241.2457,-483.0721 6244.712,-473.0603 6235.7589,-478.7253 6241.2457,-483.0721"/>
</g>
<!-- 44&#45;&gt;20 -->
<g id="edge57" class="edge">
<title>44&#45;&gt;20</title>
<path fill="none" stroke="#c0c0c0" stroke-width="2" d="M6501.537,-511.2521C6510.4102,-502.0192 6521.3711,-490.6139 6531.2677,-480.3161"/>
<polygon fill="#c0c0c0" stroke="#c0c0c0" stroke-width="2" points="6533.8351,-482.6957 6538.2408,-473.0603 6528.788,-477.8452 6533.8351,-482.6957"/>
</g>
<!-- 45&#45;&gt;22 -->
<g id="edge67" class="edge">
<title>45&#45;&gt;22</title>
<path fill="none" stroke="#c0c0c0" stroke-width="2" d="M5405.8617,-511.2521C5400.4996,-502.4674 5393.9371,-491.7161 5387.8986,-481.8232"/>
<polygon fill="#c0c0c0" stroke="#c0c0c0" stroke-width="2" points="5390.7473,-479.7723 5382.5498,-473.0603 5384.7724,-483.4194 5390.7473,-479.7723"/>
</g>
<!-- 46 -->
<g id="node47" class="node">
<title>46</title>
<path fill="none" stroke="#56d87b" stroke-width="2" stroke-dasharray="5,2" d="M530.5,-550C530.5,-550 393.5,-550 393.5,-550 387.5,-550 381.5,-544 381.5,-538 381.5,-538 381.5,-521 381.5,-521 381.5,-515 387.5,-509 393.5,-509 393.5,-509 530.5,-509 530.5,-509 536.5,-509 542.5,-515 542.5,-521 542.5,-521 542.5,-538 542.5,-538 542.5,-544 536.5,-550 530.5,-550"/>
<text text-anchor="middle" x="462" y="-538" font-family="sans" font-size="10.00" fill="#000000">copy_descriptors</text>
<text text-anchor="middle" x="462" y="-527" font-family="sans" font-size="10.00" fill="#000000">descriptor: descriptor_eyelink</text>
<text text-anchor="middle" x="462" y="-516" font-family="sans" font-size="10.00" fill="#000000">session: y180116&#45;land&#45;001</text>
</g>
<!-- 46&#45;&gt;23 -->
<g id="edge69" class="edge">
<title>46&#45;&gt;23</title>
<path fill="none" stroke="#c0c0c0" stroke-width="2" d="M462,-508.8654C462,-501.0111 462,-491.8822 462,-483.2879"/>
<polygon fill="#c0c0c0" stroke="#c0c0c0" stroke-width="2" points="465.5001,-483.1915 462,-473.1915 458.5001,-483.1916 465.5001,-483.1915"/>
</g>
<!-- 47 -->
<g id="node48" class="node">
<title>47</title>
<path fill="none" stroke="#56a2d8" stroke-width="2" stroke-dasharray="5,2" d="M1559.5,-547.5C1559.5,-547.5 1272.5,-547.5 1272.5,-547.5 1266.5,-547.5 1260.5,-541.5 1260.5,-535.5 1260.5,-535.5 1260.5,-523.5 1260.5,-523.5 1260.5,-517.5 1266.5,-511.5 1272.5,-511.5 1272.5,-511.5 1559.5,-511.5 1559.5,-511.5 1565.5,-511.5 1571.5,-517.5 1571.5,-523.5 1571.5,-523.5 1571.5,-535.5 1571.5,-535.5 1571.5,-541.5 1565.5,-547.5 1559.5,-547.5"/>
<text text-anchor="middle" x="1416" y="-532.5" font-family="sans" font-size="10.00" fill="#000000">add_odML_style_sheet</text>
<text text-anchor="middle" x="1416" y="-521.5" font-family="sans" font-size="10.00" fill="#000000">folder: /home/julia/tmp/y180116&#45;land&#45;001/descriptors/odMLs</text>
</g>
<!-- 47&#45;&gt;23 -->
<g id="edge70" class="edge">
<title>47&#45;&gt;23</title>
<path fill="none" stroke="#c0c0c0" stroke-width="2" d="M1276.0922,-511.4539C1267.608,-510.5655 1259.1937,-509.7379 1251,-509 969.7058,-483.6681 895.1688,-500.3579 611.0453,-473.1604"/>
<polygon fill="#c0c0c0" stroke="#c0c0c0" stroke-width="2" points="611.1395,-469.6533 600.849,-472.1743 610.4656,-476.6208 611.1395,-469.6533"/>
</g>
<!-- 47&#45;&gt;24 -->
<g id="edge72" class="edge">
<title>47&#45;&gt;24</title>
<path fill="none" stroke="#c0c0c0" stroke-width="2" d="M1272.4828,-511.4922C1265.2197,-510.6363 1258.0267,-509.8009 1251,-509 1100.2572,-491.818 1059.6471,-491.7072 906.1448,-473.2418"/>
<polygon fill="#c0c0c0" stroke="#c0c0c0" stroke-width="2" points="906.2163,-469.725 895.8683,-471.9986 905.3755,-476.6743 906.2163,-469.725"/>
</g>
<!-- 47&#45;&gt;25 -->
<g id="edge74" class="edge">
<title>47&#45;&gt;25</title>
<path fill="none" stroke="#c0c0c0" stroke-width="2" d="M1330.6582,-511.4469C1279.423,-500.6087 1213.7907,-486.725 1159.0931,-475.1543"/>
<polygon fill="#c0c0c0" stroke="#c0c0c0" stroke-width="2" points="1159.5209,-471.6674 1149.013,-473.022 1158.0722,-478.5159 1159.5209,-471.6674"/>
</g>
<!-- 47&#45;&gt;26 -->
<g id="edge76" class="edge">
<title>47&#45;&gt;26</title>
<path fill="none" stroke="#c0c0c0" stroke-width="2" d="M1399.648,-511.2521C1391.4546,-502.1088 1381.3523,-490.8352 1372.1951,-480.6163"/>
<polygon fill="#c0c0c0" stroke="#c0c0c0" stroke-width="2" points="1374.7044,-478.1719 1365.4242,-473.0603 1369.4912,-482.8434 1374.7044,-478.1719"/>
</g>
<!-- 47&#45;&gt;27 -->
<g id="edge78" class="edge">
<title>47&#45;&gt;27</title>
<path fill="none" stroke="#c0c0c0" stroke-width="2" d="M1468.987,-511.4469C1499.7419,-500.9685 1538.852,-487.6433 1572.1043,-476.314"/>
<polygon fill="#c0c0c0" stroke="#c0c0c0" stroke-width="2" points="1573.4297,-479.5601 1581.7666,-473.022 1571.1722,-472.9341 1573.4297,-479.5601"/>
</g>
<!-- 47&#45;&gt;28 -->
<g id="edge80" class="edge">
<title>47&#45;&gt;28</title>
<path fill="none" stroke="#c0c0c0" stroke-width="2" d="M1537.8224,-511.4955C1612.6601,-500.4351 1709.0511,-486.1892 1788.3637,-474.4674"/>
<polygon fill="#c0c0c0" stroke="#c0c0c0" stroke-width="2" points="1789.0627,-477.9022 1798.4435,-472.9776 1788.0392,-470.9774 1789.0627,-477.9022"/>
</g>
<!-- 47&#45;&gt;29 -->
<g id="edge82" class="edge">
<title>47&#45;&gt;29</title>
<path fill="none" stroke="#c0c0c0" stroke-width="2" d="M1557.2602,-511.4565C1565.2871,-510.5848 1573.2431,-509.7584 1581,-509 1801.231,-487.4685 1859.9543,-496.2541 2083.0839,-473.1684"/>
<polygon fill="#c0c0c0" stroke="#c0c0c0" stroke-width="2" points="2083.563,-476.6375 2093.1452,-472.1175 2082.8357,-469.6754 2083.563,-476.6375"/>
</g>
<!-- 47&#45;&gt;30 -->
<g id="edge84" class="edge">
<title>47&#45;&gt;30</title>
<path fill="none" stroke="#c0c0c0" stroke-width="2" d="M1554.5579,-511.4838C1563.4984,-510.5692 1572.3709,-509.7293 1581,-509 1931.9224,-479.3408 2024.3175,-505.0971 2378.1457,-473.1285"/>
<polygon fill="#c0c0c0" stroke="#c0c0c0" stroke-width="2" points="2378.5143,-476.6095 2388.1548,-472.2151 2377.8781,-469.6384 2378.5143,-476.6095"/>
</g>
<!-- 47&#45;&gt;31 -->
<g id="edge86" class="edge">
<title>47&#45;&gt;31</title>
<path fill="none" stroke="#c0c0c0" stroke-width="2" d="M1277.8948,-511.4619C1268.8017,-510.546 1259.7753,-509.7124 1251,-509 838.9615,-475.5495 730.8574,-509.2746 316.0122,-473.1342"/>
<polygon fill="#c0c0c0" stroke="#c0c0c0" stroke-width="2" points="316.1112,-469.6295 305.8429,-472.2397 315.4977,-476.6026 316.1112,-469.6295"/>
</g>
<!-- 48 -->
<g id="node49" class="node">
<title>48</title>
<path fill="none" stroke="#56d87b" stroke-width="2" stroke-dasharray="5,2" d="M864.5,-550C864.5,-550 649.5,-550 649.5,-550 643.5,-550 637.5,-544 637.5,-538 637.5,-538 637.5,-521 637.5,-521 637.5,-515 643.5,-509 649.5,-509 649.5,-509 864.5,-509 864.5,-509 870.5,-509 876.5,-515 876.5,-521 876.5,-521 876.5,-538 876.5,-538 876.5,-544 870.5,-550 864.5,-550"/>
<text text-anchor="middle" x="757" y="-538" font-family="sans" font-size="10.00" fill="#000000">copy_descriptors</text>
<text text-anchor="middle" x="757" y="-527" font-family="sans" font-size="10.00" fill="#000000">descriptor: descriptor_analog_communication</text>
<text text-anchor="middle" x="757" y="-516" font-family="sans" font-size="10.00" fill="#000000">session: y180116&#45;land&#45;001</text>
</g>
<!-- 48&#45;&gt;24 -->
<g id="edge71" class="edge">
<title>48&#45;&gt;24</title>
<path fill="none" stroke="#c0c0c0" stroke-width="2" d="M757,-508.8654C757,-501.0111 757,-491.8822 757,-483.2879"/>
<polygon fill="#c0c0c0" stroke="#c0c0c0" stroke-width="2" points="760.5001,-483.1915 757,-473.1915 753.5001,-483.1916 760.5001,-483.1915"/>
</g>
<!-- 49 -->
<g id="node50" class="node">
<title>49</title>
<path fill="none" stroke="#56d87b" stroke-width="2" stroke-dasharray="5,2" d="M1049.5,-550C1049.5,-550 912.5,-550 912.5,-550 906.5,-550 900.5,-544 900.5,-538 900.5,-538 900.5,-521 900.5,-521 900.5,-515 906.5,-509 912.5,-509 912.5,-509 1049.5,-509 1049.5,-509 1055.5,-509 1061.5,-515 1061.5,-521 1061.5,-521 1061.5,-538 1061.5,-538 1061.5,-544 1055.5,-550 1049.5,-550"/>
<text text-anchor="middle" x="981" y="-538" font-family="sans" font-size="10.00" fill="#000000">copy_descriptors</text>
<text text-anchor="middle" x="981" y="-527" font-family="sans" font-size="10.00" fill="#000000">descriptor: descriptor_subject</text>
<text text-anchor="middle" x="981" y="-516" font-family="sans" font-size="10.00" fill="#000000">session: y180116&#45;land&#45;001</text>
</g>
<!-- 49&#45;&gt;25 -->
<g id="edge73" class="edge">
<title>49&#45;&gt;25</title>
<path fill="none" stroke="#c0c0c0" stroke-width="2" d="M1000.0267,-508.8654C1007.9852,-500.2343 1017.363,-490.064 1025.9463,-480.7554"/>
<polygon fill="#c0c0c0" stroke="#c0c0c0" stroke-width="2" points="1028.715,-482.9159 1032.9208,-473.1915 1023.5688,-478.1707 1028.715,-482.9159"/>
</g>
<!-- 50 -->
<g id="node51" class="node">
<title>50</title>
<path fill="none" stroke="#56d87b" stroke-width="2" stroke-dasharray="5,2" d="M1230,-550C1230,-550 1092,-550 1092,-550 1086,-550 1080,-544 1080,-538 1080,-538 1080,-521 1080,-521 1080,-515 1086,-509 1092,-509 1092,-509 1230,-509 1230,-509 1236,-509 1242,-515 1242,-521 1242,-521 1242,-538 1242,-538 1242,-544 1236,-550 1230,-550"/>
<text text-anchor="middle" x="1161" y="-538" font-family="sans" font-size="10.00" fill="#000000">copy_descriptors</text>
<text text-anchor="middle" x="1161" y="-527" font-family="sans" font-size="10.00" fill="#000000">descriptor: descriptor_session</text>
<text text-anchor="middle" x="1161" y="-516" font-family="sans" font-size="10.00" fill="#000000">session: y180116&#45;land&#45;001</text>
</g>
<!-- 50&#45;&gt;26 -->
<g id="edge75" class="edge">
<title>50&#45;&gt;26</title>
<path fill="none" stroke="#c0c0c0" stroke-width="2" d="M1210.8446,-508.8654C1234.6037,-499.0296 1263.1914,-487.195 1288.0247,-476.9145"/>
<polygon fill="#c0c0c0" stroke="#c0c0c0" stroke-width="2" points="1289.4398,-480.1168 1297.3406,-473.0579 1286.7623,-473.6491 1289.4398,-480.1168"/>
</g>
<!-- 51 -->
<g id="node52" class="node">
<title>51</title>
<path fill="none" stroke="#56d87b" stroke-width="2" stroke-dasharray="5,2" d="M1814.5,-550C1814.5,-550 1601.5,-550 1601.5,-550 1595.5,-550 1589.5,-544 1589.5,-538 1589.5,-538 1589.5,-521 1589.5,-521 1589.5,-515 1595.5,-509 1601.5,-509 1601.5,-509 1814.5,-509 1814.5,-509 1820.5,-509 1826.5,-515 1826.5,-521 1826.5,-521 1826.5,-538 1826.5,-538 1826.5,-544 1820.5,-550 1814.5,-550"/>
<text text-anchor="middle" x="1708" y="-538" font-family="sans" font-size="10.00" fill="#000000">copy_descriptors</text>
<text text-anchor="middle" x="1708" y="-527" font-family="sans" font-size="10.00" fill="#000000">descriptor: descriptor_digital_communication</text>
<text text-anchor="middle" x="1708" y="-516" font-family="sans" font-size="10.00" fill="#000000">session: y180116&#45;land&#45;001</text>
</g>
<!-- 51&#45;&gt;27 -->
<g id="edge77" class="edge">
<title>51&#45;&gt;27</title>
<path fill="none" stroke="#c0c0c0" stroke-width="2" d="M1690.3132,-508.8654C1682.9891,-500.3206 1674.372,-490.2673 1666.4585,-481.0349"/>
<polygon fill="#c0c0c0" stroke="#c0c0c0" stroke-width="2" points="1668.901,-478.5064 1659.7356,-473.1915 1663.5862,-483.0619 1668.901,-478.5064"/>
</g>
<!-- 52 -->
<g id="node53" class="node">
<title>52</title>
<path fill="none" stroke="#56d87b" stroke-width="2" stroke-dasharray="5,2" d="M2011.5,-550C2011.5,-550 1862.5,-550 1862.5,-550 1856.5,-550 1850.5,-544 1850.5,-538 1850.5,-538 1850.5,-521 1850.5,-521 1850.5,-515 1856.5,-509 1862.5,-509 1862.5,-509 2011.5,-509 2011.5,-509 2017.5,-509 2023.5,-515 2023.5,-521 2023.5,-521 2023.5,-538 2023.5,-538 2023.5,-544 2017.5,-550 2011.5,-550"/>
<text text-anchor="middle" x="1937" y="-538" font-family="sans" font-size="10.00" fill="#000000">copy_descriptors</text>
<text text-anchor="middle" x="1937" y="-527" font-family="sans" font-size="10.00" fill="#000000">descriptor: descriptor_blackrock</text>
<text text-anchor="middle" x="1937" y="-516" font-family="sans" font-size="10.00" fill="#000000">session: y180116&#45;land&#45;001</text>
</g>
<!-- 52&#45;&gt;28 -->
<g id="edge79" class="edge">
<title>52&#45;&gt;28</title>
<path fill="none" stroke="#c0c0c0" stroke-width="2" d="M1937,-508.8654C1937,-501.0111 1937,-491.8822 1937,-483.2879"/>
<polygon fill="#c0c0c0" stroke="#c0c0c0" stroke-width="2" points="1940.5001,-483.1915 1937,-473.1915 1933.5001,-483.1916 1940.5001,-483.1915"/>
</g>
<!-- 53 -->
<g id="node54" class="node">
<title>53</title>
<path fill="none" stroke="#56d87b" stroke-width="2" stroke-dasharray="5,2" d="M2314.5,-550C2314.5,-550 2149.5,-550 2149.5,-550 2143.5,-550 2137.5,-544 2137.5,-538 2137.5,-538 2137.5,-521 2137.5,-521 2137.5,-515 2143.5,-509 2149.5,-509 2149.5,-509 2314.5,-509 2314.5,-509 2320.5,-509 2326.5,-515 2326.5,-521 2326.5,-521 2326.5,-538 2326.5,-538 2326.5,-544 2320.5,-550 2314.5,-550"/>
<text text-anchor="middle" x="2232" y="-538" font-family="sans" font-size="10.00" fill="#000000">copy_descriptors</text>
<text text-anchor="middle" x="2232" y="-527" font-family="sans" font-size="10.00" fill="#000000">descriptor: descriptor_codes_global</text>
<text text-anchor="middle" x="2232" y="-516" font-family="sans" font-size="10.00" fill="#000000">session: y180116&#45;land&#45;001</text>
</g>
<!-- 53&#45;&gt;29 -->
<g id="edge81" class="edge">
<title>53&#45;&gt;29</title>
<path fill="none" stroke="#c0c0c0" stroke-width="2" d="M2232,-508.8654C2232,-501.0111 2232,-491.8822 2232,-483.2879"/>
<polygon fill="#c0c0c0" stroke="#c0c0c0" stroke-width="2" points="2235.5001,-483.1915 2232,-473.1915 2228.5001,-483.1916 2235.5001,-483.1915"/>
</g>
<!-- 54 -->
<g id="node55" class="node">
<title>54</title>
<path fill="none" stroke="#56d87b" stroke-width="2" stroke-dasharray="5,2" d="M2612.5,-550C2612.5,-550 2441.5,-550 2441.5,-550 2435.5,-550 2429.5,-544 2429.5,-538 2429.5,-538 2429.5,-521 2429.5,-521 2429.5,-515 2435.5,-509 2441.5,-509 2441.5,-509 2612.5,-509 2612.5,-509 2618.5,-509 2624.5,-515 2624.5,-521 2624.5,-521 2624.5,-538 2624.5,-538 2624.5,-544 2618.5,-550 2612.5,-550"/>
<text text-anchor="middle" x="2527" y="-538" font-family="sans" font-size="10.00" fill="#000000">copy_descriptors</text>
<text text-anchor="middle" x="2527" y="-527" font-family="sans" font-size="10.00" fill="#000000">descriptor: descriptor_codes_landing</text>
<text text-anchor="middle" x="2527" y="-516" font-family="sans" font-size="10.00" fill="#000000">session: y180116&#45;land&#45;001</text>
</g>
<!-- 54&#45;&gt;30 -->
<g id="edge83" class="edge">
<title>54&#45;&gt;30</title>
<path fill="none" stroke="#c0c0c0" stroke-width="2" d="M2527,-508.8654C2527,-501.0111 2527,-491.8822 2527,-483.2879"/>
<polygon fill="#c0c0c0" stroke="#c0c0c0" stroke-width="2" points="2530.5001,-483.1915 2527,-473.1915 2523.5001,-483.1916 2530.5001,-483.1915"/>
</g>
<!-- 55 -->
<g id="node56" class="node">
<title>55</title>
<path fill="none" stroke="#56d87b" stroke-width="2" stroke-dasharray="5,2" d="M235,-550C235,-550 99,-550 99,-550 93,-550 87,-544 87,-538 87,-538 87,-521 87,-521 87,-515 93,-509 99,-509 99,-509 235,-509 235,-509 241,-509 247,-515 247,-521 247,-521 247,-538 247,-538 247,-544 241,-550 235,-550"/>
<text text-anchor="middle" x="167" y="-538" font-family="sans" font-size="10.00" fill="#000000">copy_descriptors</text>
<text text-anchor="middle" x="167" y="-527" font-family="sans" font-size="10.00" fill="#000000">descriptor: descriptor_kinarm</text>
<text text-anchor="middle" x="167" y="-516" font-family="sans" font-size="10.00" fill="#000000">session: y180116&#45;land&#45;001</text>
</g>
<!-- 55&#45;&gt;31 -->
<g id="edge85" class="edge">
<title>55&#45;&gt;31</title>
<path fill="none" stroke="#c0c0c0" stroke-width="2" d="M167,-508.8654C167,-501.0111 167,-491.8822 167,-483.2879"/>
<polygon fill="#c0c0c0" stroke="#c0c0c0" stroke-width="2" points="170.5001,-483.1915 167,-473.1915 163.5001,-483.1916 170.5001,-483.1915"/>
</g>
</g>
</svg>
