<?xml version="1.0" encoding="UTF-8" standalone="no"?>
<!DOCTYPE svg PUBLIC "-//W3C//DTD SVG 1.1//EN"
 "http://www.w3.org/Graphics/SVG/1.1/DTD/svg11.dtd">
<!-- Generated by graphviz version 2.40.1 (20161225.0304)
 -->
<!-- Title: snakemake_dag Pages: 1 -->
<svg width="2645pt" height="270pt"
 viewBox="0.00 0.00 2645.00 270.00" xmlns="http://www.w3.org/2000/svg" xmlns:xlink="http://www.w3.org/1999/xlink">
<g id="graph0" class="graph" transform="scale(1 1) rotate(0) translate(4 266)">
<title>snakemake_dag</title>
<polygon fill="#ffffff" stroke="transparent" points="-4,4 -4,-266 2641,-266 2641,4 -4,4"/>
<!-- 0 -->
<g id="node1" class="node">
<title>0</title>
<path fill="none" stroke="#afd856" stroke-width="2" stroke-dasharray="5,2" d="M1350.5,-36C1350.5,-36 1286.5,-36 1286.5,-36 1280.5,-36 1274.5,-30 1274.5,-24 1274.5,-24 1274.5,-12 1274.5,-12 1274.5,-6 1280.5,0 1286.5,0 1286.5,0 1350.5,0 1350.5,0 1356.5,0 1362.5,-6 1362.5,-12 1362.5,-12 1362.5,-24 1362.5,-24 1362.5,-30 1356.5,-36 1350.5,-36"/>
<text text-anchor="middle" x="1318.5" y="-15.5" font-family="sans" font-size="10.00" fill="#000000">all_descriptors</text>
</g>
<!-- 1 -->
<g id="node2" class="node">
<title>1</title>
<path fill="none" stroke="#c6d856" stroke-width="2" stroke-dasharray="5,2" d="M1380.5,-108C1380.5,-108 1256.5,-108 1256.5,-108 1250.5,-108 1244.5,-102 1244.5,-96 1244.5,-96 1244.5,-84 1244.5,-84 1244.5,-78 1250.5,-72 1256.5,-72 1256.5,-72 1380.5,-72 1380.5,-72 1386.5,-72 1392.5,-78 1392.5,-84 1392.5,-84 1392.5,-96 1392.5,-96 1392.5,-102 1386.5,-108 1380.5,-108"/>
<text text-anchor="middle" x="1318.5" y="-93" font-family="sans" font-size="10.00" fill="#000000">integrate_descriptors</text>
<text text-anchor="middle" x="1318.5" y="-82" font-family="sans" font-size="10.00" fill="#000000">session: y180116&#45;land&#45;001</text>
</g>
<!-- 1&#45;&gt;0 -->
<g id="edge1" class="edge">
<title>1&#45;&gt;0</title>
<path fill="none" stroke="#c0c0c0" stroke-width="2" d="M1318.5,-71.8314C1318.5,-64.131 1318.5,-54.9743 1318.5,-46.4166"/>
<polygon fill="#c0c0c0" stroke="#c0c0c0" stroke-width="2" points="1322.0001,-46.4132 1318.5,-36.4133 1315.0001,-46.4133 1322.0001,-46.4132"/>
</g>
<!-- 2 -->
<g id="node3" class="node">
<title>2</title>
<path fill="none" stroke="#d8bc56" stroke-width="2" stroke-dasharray="5,2" d="M265,-185C265,-185 12,-185 12,-185 6,-185 0,-179 0,-173 0,-173 0,-156 0,-156 0,-150 6,-144 12,-144 12,-144 265,-144 265,-144 271,-144 277,-150 277,-156 277,-156 277,-173 277,-173 277,-179 271,-185 265,-185"/>
<text text-anchor="middle" x="138.5" y="-173" font-family="sans" font-size="10.00" fill="#000000">csv_to_odml</text>
<text text-anchor="middle" x="138.5" y="-162" font-family="sans" font-size="10.00" fill="#000000">filename: descriptor_codes_global</text>
<text text-anchor="middle" x="138.5" y="-151" font-family="sans" font-size="10.00" fill="#000000">folder: /home/julia/tmp/y180116&#45;land&#45;001/descriptors</text>
</g>
<!-- 2&#45;&gt;1 -->
<g id="edge2" class="edge">
<title>2&#45;&gt;1</title>
<path fill="none" stroke="#c0c0c0" stroke-width="2" d="M277.3477,-144.8116C280.087,-144.5288 282.8067,-144.2577 285.5,-144 636.9305,-110.3733 1057.769,-96.5482 1234.1864,-91.9421"/>
<polygon fill="#c0c0c0" stroke="#c0c0c0" stroke-width="2" points="1234.5294,-95.4345 1244.4358,-91.6778 1234.3488,-88.4369 1234.5294,-95.4345"/>
</g>
<!-- 3 -->
<g id="node4" class="node">
<title>3</title>
<path fill="none" stroke="#d8bc56" stroke-width="2" stroke-dasharray="5,2" d="M560,-185C560,-185 307,-185 307,-185 301,-185 295,-179 295,-173 295,-173 295,-156 295,-156 295,-150 301,-144 307,-144 307,-144 560,-144 560,-144 566,-144 572,-150 572,-156 572,-156 572,-173 572,-173 572,-179 566,-185 560,-185"/>
<text text-anchor="middle" x="433.5" y="-173" font-family="sans" font-size="10.00" fill="#000000">csv_to_odml</text>
<text text-anchor="middle" x="433.5" y="-162" font-family="sans" font-size="10.00" fill="#000000">filename: descriptor_eyelink</text>
<text text-anchor="middle" x="433.5" y="-151" font-family="sans" font-size="10.00" fill="#000000">folder: /home/julia/tmp/y180116&#45;land&#45;001/descriptors</text>
</g>
<!-- 3&#45;&gt;1 -->
<g id="edge3" class="edge">
<title>3&#45;&gt;1</title>
<path fill="none" stroke="#c0c0c0" stroke-width="2" d="M572.3555,-144.8889C575.0924,-144.5825 577.8095,-144.2857 580.5,-144 816.8302,-118.9022 1096.9862,-101.8785 1234.2144,-94.3659"/>
<polygon fill="#c0c0c0" stroke="#c0c0c0" stroke-width="2" points="1234.4504,-97.8583 1244.2453,-93.8197 1234.0698,-90.8686 1234.4504,-97.8583"/>
</g>
<!-- 4 -->
<g id="node5" class="node">
<title>4</title>
<path fill="none" stroke="#d8bc56" stroke-width="2" stroke-dasharray="5,2" d="M855,-185C855,-185 602,-185 602,-185 596,-185 590,-179 590,-173 590,-173 590,-156 590,-156 590,-150 596,-144 602,-144 602,-144 855,-144 855,-144 861,-144 867,-150 867,-156 867,-156 867,-173 867,-173 867,-179 861,-185 855,-185"/>
<text text-anchor="middle" x="728.5" y="-173" font-family="sans" font-size="10.00" fill="#000000">csv_to_odml</text>
<text text-anchor="middle" x="728.5" y="-162" font-family="sans" font-size="10.00" fill="#000000">filename: descriptor_kinarm</text>
<text text-anchor="middle" x="728.5" y="-151" font-family="sans" font-size="10.00" fill="#000000">folder: /home/julia/tmp/y180116&#45;land&#45;001/descriptors</text>
</g>
<!-- 4&#45;&gt;1 -->
<g id="edge4" class="edge">
<title>4&#45;&gt;1</title>
<path fill="none" stroke="#c0c0c0" stroke-width="2" d="M867.3766,-145.0678C870.1072,-144.7068 872.8172,-144.3506 875.5,-144 1000.3328,-127.6886 1145.1684,-110.3287 1234.3235,-99.8226"/>
<polygon fill="#c0c0c0" stroke="#c0c0c0" stroke-width="2" points="1234.8568,-103.284 1244.379,-98.6389 1234.0384,-96.332 1234.8568,-103.284"/>
</g>
<!-- 5 -->
<g id="node6" class="node">
<title>5</title>
<path fill="none" stroke="#d8bc56" stroke-width="2" stroke-dasharray="5,2" d="M1150,-185C1150,-185 897,-185 897,-185 891,-185 885,-179 885,-173 885,-173 885,-156 885,-156 885,-150 891,-144 897,-144 897,-144 1150,-144 1150,-144 1156,-144 1162,-150 1162,-156 1162,-156 1162,-173 1162,-173 1162,-179 1156,-185 1150,-185"/>
<text text-anchor="middle" x="1023.5" y="-173" font-family="sans" font-size="10.00" fill="#000000">csv_to_odml</text>
<text text-anchor="middle" x="1023.5" y="-162" font-family="sans" font-size="10.00" fill="#000000">filename: descriptor_subject</text>
<text text-anchor="middle" x="1023.5" y="-151" font-family="sans" font-size="10.00" fill="#000000">folder: /home/julia/tmp/y180116&#45;land&#45;001/descriptors</text>
</g>
<!-- 5&#45;&gt;1 -->
<g id="edge5" class="edge">
<title>5&#45;&gt;1</title>
<path fill="none" stroke="#c0c0c0" stroke-width="2" d="M1104.891,-143.9453C1146.0992,-133.5385 1195.9873,-120.9396 1237.1849,-110.5355"/>
<polygon fill="#c0c0c0" stroke="#c0c0c0" stroke-width="2" points="1238.0781,-113.9199 1246.9167,-108.0778 1236.3641,-107.133 1238.0781,-113.9199"/>
</g>
<!-- 6 -->
<g id="node7" class="node">
<title>6</title>
<path fill="none" stroke="#d8bc56" stroke-width="2" stroke-dasharray="5,2" d="M1445,-185C1445,-185 1192,-185 1192,-185 1186,-185 1180,-179 1180,-173 1180,-173 1180,-156 1180,-156 1180,-150 1186,-144 1192,-144 1192,-144 1445,-144 1445,-144 1451,-144 1457,-150 1457,-156 1457,-156 1457,-173 1457,-173 1457,-179 1451,-185 1445,-185"/>
<text text-anchor="middle" x="1318.5" y="-173" font-family="sans" font-size="10.00" fill="#000000">csv_to_odml</text>
<text text-anchor="middle" x="1318.5" y="-162" font-family="sans" font-size="10.00" fill="#000000">filename: descriptor_analog_communication</text>
<text text-anchor="middle" x="1318.5" y="-151" font-family="sans" font-size="10.00" fill="#000000">folder: /home/julia/tmp/y180116&#45;land&#45;001/descriptors</text>
</g>
<!-- 6&#45;&gt;1 -->
<g id="edge6" class="edge">
<title>6&#45;&gt;1</title>
<path fill="none" stroke="#c0c0c0" stroke-width="2" d="M1318.5,-143.7476C1318.5,-135.8767 1318.5,-126.7743 1318.5,-118.3232"/>
<polygon fill="#c0c0c0" stroke="#c0c0c0" stroke-width="2" points="1322.0001,-118.1086 1318.5,-108.1087 1315.0001,-118.1087 1322.0001,-118.1086"/>
</g>
<!-- 7 -->
<g id="node8" class="node">
<title>7</title>
<path fill="none" stroke="#d8bc56" stroke-width="2" stroke-dasharray="5,2" d="M1740,-185C1740,-185 1487,-185 1487,-185 1481,-185 1475,-179 1475,-173 1475,-173 1475,-156 1475,-156 1475,-150 1481,-144 1487,-144 1487,-144 1740,-144 1740,-144 1746,-144 1752,-150 1752,-156 1752,-156 1752,-173 1752,-173 1752,-179 1746,-185 1740,-185"/>
<text text-anchor="middle" x="1613.5" y="-173" font-family="sans" font-size="10.00" fill="#000000">csv_to_odml</text>
<text text-anchor="middle" x="1613.5" y="-162" font-family="sans" font-size="10.00" fill="#000000">filename: descriptor_digital_communication</text>
<text text-anchor="middle" x="1613.5" y="-151" font-family="sans" font-size="10.00" fill="#000000">folder: /home/julia/tmp/y180116&#45;land&#45;001/descriptors</text>
</g>
<!-- 7&#45;&gt;1 -->
<g id="edge7" class="edge">
<title>7&#45;&gt;1</title>
<path fill="none" stroke="#c0c0c0" stroke-width="2" d="M1532.109,-143.9453C1490.9008,-133.5385 1441.0127,-120.9396 1399.8151,-110.5355"/>
<polygon fill="#c0c0c0" stroke="#c0c0c0" stroke-width="2" points="1400.6359,-107.133 1390.0833,-108.0778 1398.9219,-113.9199 1400.6359,-107.133"/>
</g>
<!-- 8 -->
<g id="node9" class="node">
<title>8</title>
<path fill="none" stroke="#d8bc56" stroke-width="2" stroke-dasharray="5,2" d="M2035,-185C2035,-185 1782,-185 1782,-185 1776,-185 1770,-179 1770,-173 1770,-173 1770,-156 1770,-156 1770,-150 1776,-144 1782,-144 1782,-144 2035,-144 2035,-144 2041,-144 2047,-150 2047,-156 2047,-156 2047,-173 2047,-173 2047,-179 2041,-185 2035,-185"/>
<text text-anchor="middle" x="1908.5" y="-173" font-family="sans" font-size="10.00" fill="#000000">csv_to_odml</text>
<text text-anchor="middle" x="1908.5" y="-162" font-family="sans" font-size="10.00" fill="#000000">filename: descriptor_blackrock</text>
<text text-anchor="middle" x="1908.5" y="-151" font-family="sans" font-size="10.00" fill="#000000">folder: /home/julia/tmp/y180116&#45;land&#45;001/descriptors</text>
</g>
<!-- 8&#45;&gt;1 -->
<g id="edge8" class="edge">
<title>8&#45;&gt;1</title>
<path fill="none" stroke="#c0c0c0" stroke-width="2" d="M1769.8573,-145.2273C1766.7092,-144.8119 1763.5867,-144.4023 1760.5,-144 1636.1241,-127.7896 1491.8616,-110.4364 1402.8784,-99.9002"/>
<polygon fill="#c0c0c0" stroke="#c0c0c0" stroke-width="2" points="1403.1829,-96.4119 1392.8409,-98.7129 1402.3605,-103.3634 1403.1829,-96.4119"/>
</g>
<!-- 9 -->
<g id="node10" class="node">
<title>9</title>
<path fill="none" stroke="#d8bc56" stroke-width="2" stroke-dasharray="5,2" d="M2330,-185C2330,-185 2077,-185 2077,-185 2071,-185 2065,-179 2065,-173 2065,-173 2065,-156 2065,-156 2065,-150 2071,-144 2077,-144 2077,-144 2330,-144 2330,-144 2336,-144 2342,-150 2342,-156 2342,-156 2342,-173 2342,-173 2342,-179 2336,-185 2330,-185"/>
<text text-anchor="middle" x="2203.5" y="-173" font-family="sans" font-size="10.00" fill="#000000">csv_to_odml</text>
<text text-anchor="middle" x="2203.5" y="-162" font-family="sans" font-size="10.00" fill="#000000">filename: descriptor_session</text>
<text text-anchor="middle" x="2203.5" y="-151" font-family="sans" font-size="10.00" fill="#000000">folder: /home/julia/tmp/y180116&#45;land&#45;001/descriptors</text>
</g>
<!-- 9&#45;&gt;1 -->
<g id="edge9" class="edge">
<title>9&#45;&gt;1</title>
<path fill="none" stroke="#c0c0c0" stroke-width="2" d="M2064.8814,-145.0233C2061.726,-144.6692 2058.5955,-144.3274 2055.5,-144 1819.478,-119.0335 1539.707,-101.9514 1402.6686,-94.3962"/>
<polygon fill="#c0c0c0" stroke="#c0c0c0" stroke-width="2" points="1402.8282,-90.8997 1392.6516,-93.8469 1402.4449,-97.8892 1402.8282,-90.8997"/>
</g>
<!-- 10 -->
<g id="node11" class="node">
<title>10</title>
<path fill="none" stroke="#d8bc56" stroke-width="2" stroke-dasharray="5,2" d="M2625,-185C2625,-185 2372,-185 2372,-185 2366,-185 2360,-179 2360,-173 2360,-173 2360,-156 2360,-156 2360,-150 2366,-144 2372,-144 2372,-144 2625,-144 2625,-144 2631,-144 2637,-150 2637,-156 2637,-156 2637,-173 2637,-173 2637,-179 2631,-185 2625,-185"/>
<text text-anchor="middle" x="2498.5" y="-173" font-family="sans" font-size="10.00" fill="#000000">csv_to_odml</text>
<text text-anchor="middle" x="2498.5" y="-162" font-family="sans" font-size="10.00" fill="#000000">filename: descriptor_codes_landing</text>
<text text-anchor="middle" x="2498.5" y="-151" font-family="sans" font-size="10.00" fill="#000000">folder: /home/julia/tmp/y180116&#45;land&#45;001/descriptors</text>
</g>
<!-- 10&#45;&gt;1 -->
<g id="edge10" class="edge">
<title>10&#45;&gt;1</title>
<path fill="none" stroke="#c0c0c0" stroke-width="2" d="M2359.6523,-144.8116C2356.913,-144.5288 2354.1933,-144.2577 2351.5,-144 2000.0695,-110.3733 1579.231,-96.5482 1402.8136,-91.9421"/>
<polygon fill="#c0c0c0" stroke="#c0c0c0" stroke-width="2" points="1402.6512,-88.4369 1392.5642,-91.6778 1402.4706,-95.4345 1402.6512,-88.4369"/>
</g>
<!-- 11 -->
<g id="node12" class="node">
<title>11</title>
<path fill="none" stroke="#97d856" stroke-width="2" stroke-dasharray="5,2" d="M1292,-259.5C1292,-259.5 1005,-259.5 1005,-259.5 999,-259.5 993,-253.5 993,-247.5 993,-247.5 993,-235.5 993,-235.5 993,-229.5 999,-223.5 1005,-223.5 1005,-223.5 1292,-223.5 1292,-223.5 1298,-223.5 1304,-229.5 1304,-235.5 1304,-235.5 1304,-247.5 1304,-247.5 1304,-253.5 1298,-259.5 1292,-259.5"/>
<text text-anchor="middle" x="1148.5" y="-244.5" font-family="sans" font-size="10.00" fill="#000000">add_odML_style_sheet</text>
<text text-anchor="middle" x="1148.5" y="-233.5" font-family="sans" font-size="10.00" fill="#000000">folder: /home/julia/tmp/y180116&#45;land&#45;001/descriptors/odMLs</text>
</g>
<!-- 11&#45;&gt;2 -->
<g id="edge11" class="edge">
<title>11&#45;&gt;2</title>
<path fill="none" stroke="#c0c0c0" stroke-width="2" d="M1009.0428,-223.4565C1000.4062,-222.5614 991.8391,-221.7321 983.5,-221 677.3798,-194.1244 596.4633,-214.0421 287.4938,-185.1496"/>
<polygon fill="#c0c0c0" stroke="#c0c0c0" stroke-width="2" points="287.6323,-181.6471 277.3474,-184.1909 286.9738,-188.6161 287.6323,-181.6471"/>
</g>
<!-- 11&#45;&gt;3 -->
<g id="edge14" class="edge">
<title>11&#45;&gt;3</title>
<path fill="none" stroke="#c0c0c0" stroke-width="2" d="M1005.8865,-223.47C998.3175,-222.6105 990.8193,-221.7814 983.5,-221 807.9221,-202.2563 760.8493,-205.3053 582.3497,-185.1858"/>
<polygon fill="#c0c0c0" stroke="#c0c0c0" stroke-width="2" points="582.6932,-181.7024 572.362,-184.0515 581.9032,-188.6577 582.6932,-181.7024"/>
</g>
<!-- 11&#45;&gt;4 -->
<g id="edge15" class="edge">
<title>11&#45;&gt;4</title>
<path fill="none" stroke="#c0c0c0" stroke-width="2" d="M1050.2938,-223.4955C990.6934,-212.5688 914.1356,-198.5332 850.647,-186.8936"/>
<polygon fill="#c0c0c0" stroke="#c0c0c0" stroke-width="2" points="851.0416,-183.4077 840.5743,-185.047 849.7792,-190.2929 851.0416,-183.4077"/>
</g>
<!-- 11&#45;&gt;5 -->
<g id="edge18" class="edge">
<title>11&#45;&gt;5</title>
<path fill="none" stroke="#c0c0c0" stroke-width="2" d="M1119.1931,-223.4469C1103.3391,-213.6809 1083.471,-201.4421 1065.953,-190.651"/>
<polygon fill="#c0c0c0" stroke="#c0c0c0" stroke-width="2" points="1067.39,-187.4255 1057.0401,-185.1607 1063.7186,-193.3855 1067.39,-187.4255"/>
</g>
<!-- 11&#45;&gt;6 -->
<g id="edge19" class="edge">
<title>11&#45;&gt;6</title>
<path fill="none" stroke="#c0c0c0" stroke-width="2" d="M1188.3574,-223.4469C1210.8959,-213.2383 1239.3998,-200.3277 1263.9827,-189.1931"/>
<polygon fill="#c0c0c0" stroke="#c0c0c0" stroke-width="2" points="1265.5266,-192.3362 1273.1917,-185.022 1262.6385,-185.9598 1265.5266,-192.3362"/>
</g>
<!-- 11&#45;&gt;7 -->
<g id="edge21" class="edge">
<title>11&#45;&gt;7</title>
<path fill="none" stroke="#c0c0c0" stroke-width="2" d="M1257.2283,-223.4955C1323.486,-212.5238 1408.6728,-198.4176 1479.1328,-186.75"/>
<polygon fill="#c0c0c0" stroke="#c0c0c0" stroke-width="2" points="1480.1239,-190.1337 1489.4177,-185.047 1478.9802,-183.2277 1480.1239,-190.1337"/>
</g>
<!-- 11&#45;&gt;8 -->
<g id="edge23" class="edge">
<title>11&#45;&gt;8</title>
<path fill="none" stroke="#c0c0c0" stroke-width="2" d="M1289.3543,-223.4852C1297.1804,-222.6115 1304.9359,-221.7763 1312.5,-221 1507.9103,-200.9454 1560.2057,-206.5169 1759.65,-185.0572"/>
<polygon fill="#c0c0c0" stroke="#c0c0c0" stroke-width="2" points="1760.3143,-188.5057 1769.8782,-183.947 1759.5589,-181.5466 1760.3143,-188.5057"/>
</g>
<!-- 11&#45;&gt;9 -->
<g id="edge25" class="edge">
<title>11&#45;&gt;9</title>
<path fill="none" stroke="#c0c0c0" stroke-width="2" d="M1286.6641,-223.469C1295.3996,-222.5645 1304.0669,-221.7303 1312.5,-221 1638.4994,-192.7684 1724.5624,-215.2399 2054.5564,-185.0369"/>
<polygon fill="#c0c0c0" stroke="#c0c0c0" stroke-width="2" points="2055.2566,-188.4871 2064.8918,-184.0811 2054.6119,-181.5169 2055.2566,-188.4871"/>
</g>
<!-- 11&#45;&gt;10 -->
<g id="edge27" class="edge">
<title>11&#45;&gt;10</title>
<path fill="none" stroke="#c0c0c0" stroke-width="2" d="M1285.3193,-223.466C1294.5087,-222.5423 1303.633,-221.7064 1312.5,-221 1769.7222,-184.5764 1889.4285,-224.3719 2349.4206,-185.1352"/>
<polygon fill="#c0c0c0" stroke="#c0c0c0" stroke-width="2" points="2349.9954,-188.5988 2359.6583,-184.2537 2349.3949,-181.6246 2349.9954,-188.5988"/>
</g>
<!-- 12 -->
<g id="node13" class="node">
<title>12</title>
<path fill="none" stroke="#56d0d8" stroke-width="2" stroke-dasharray="5,2" d="M221,-262C221,-262 56,-262 56,-262 50,-262 44,-256 44,-250 44,-250 44,-233 44,-233 44,-227 50,-221 56,-221 56,-221 221,-221 221,-221 227,-221 233,-227 233,-233 233,-233 233,-250 233,-250 233,-256 227,-262 221,-262"/>
<text text-anchor="middle" x="138.5" y="-250" font-family="sans" font-size="10.00" fill="#000000">copy_descriptors</text>
<text text-anchor="middle" x="138.5" y="-239" font-family="sans" font-size="10.00" fill="#000000">descriptor: descriptor_codes_global</text>
<text text-anchor="middle" x="138.5" y="-228" font-family="sans" font-size="10.00" fill="#000000">session: y180116&#45;land&#45;001</text>
</g>
<!-- 12&#45;&gt;2 -->
<g id="edge12" class="edge">
<title>12&#45;&gt;2</title>
<path fill="none" stroke="#c0c0c0" stroke-width="2" d="M138.5,-220.8654C138.5,-213.0111 138.5,-203.8822 138.5,-195.2879"/>
<polygon fill="#c0c0c0" stroke="#c0c0c0" stroke-width="2" points="142.0001,-195.1915 138.5,-185.1915 135.0001,-195.1916 142.0001,-195.1915"/>
</g>
<!-- 13 -->
<g id="node14" class="node">
<title>13</title>
<path fill="none" stroke="#56d0d8" stroke-width="2" stroke-dasharray="5,2" d="M502,-262C502,-262 365,-262 365,-262 359,-262 353,-256 353,-250 353,-250 353,-233 353,-233 353,-227 359,-221 365,-221 365,-221 502,-221 502,-221 508,-221 514,-227 514,-233 514,-233 514,-250 514,-250 514,-256 508,-262 502,-262"/>
<text text-anchor="middle" x="433.5" y="-250" font-family="sans" font-size="10.00" fill="#000000">copy_descriptors</text>
<text text-anchor="middle" x="433.5" y="-239" font-family="sans" font-size="10.00" fill="#000000">descriptor: descriptor_eyelink</text>
<text text-anchor="middle" x="433.5" y="-228" font-family="sans" font-size="10.00" fill="#000000">session: y180116&#45;land&#45;001</text>
</g>
<!-- 13&#45;&gt;3 -->
<g id="edge13" class="edge">
<title>13&#45;&gt;3</title>
<path fill="none" stroke="#c0c0c0" stroke-width="2" d="M433.5,-220.8654C433.5,-213.0111 433.5,-203.8822 433.5,-195.2879"/>
<polygon fill="#c0c0c0" stroke="#c0c0c0" stroke-width="2" points="437.0001,-195.1915 433.5,-185.1915 430.0001,-195.1916 437.0001,-195.1915"/>
</g>
<!-- 14 -->
<g id="node15" class="node">
<title>14</title>
<path fill="none" stroke="#56d0d8" stroke-width="2" stroke-dasharray="5,2" d="M783.5,-262C783.5,-262 647.5,-262 647.5,-262 641.5,-262 635.5,-256 635.5,-250 635.5,-250 635.5,-233 635.5,-233 635.5,-227 641.5,-221 647.5,-221 647.5,-221 783.5,-221 783.5,-221 789.5,-221 795.5,-227 795.5,-233 795.5,-233 795.5,-250 795.5,-250 795.5,-256 789.5,-262 783.5,-262"/>
<text text-anchor="middle" x="715.5" y="-250" font-family="sans" font-size="10.00" fill="#000000">copy_descriptors</text>
<text text-anchor="middle" x="715.5" y="-239" font-family="sans" font-size="10.00" fill="#000000">descriptor: descriptor_kinarm</text>
<text text-anchor="middle" x="715.5" y="-228" font-family="sans" font-size="10.00" fill="#000000">session: y180116&#45;land&#45;001</text>
</g>
<!-- 14&#45;&gt;4 -->
<g id="edge16" class="edge">
<title>14&#45;&gt;4</title>
<path fill="none" stroke="#c0c0c0" stroke-width="2" d="M718.9838,-220.8654C720.3098,-213.0111 721.8511,-203.8822 723.302,-195.2879"/>
<polygon fill="#c0c0c0" stroke="#c0c0c0" stroke-width="2" points="726.7929,-195.6347 725.0066,-185.1915 719.8906,-194.4693 726.7929,-195.6347"/>
</g>
<!-- 15 -->
<g id="node16" class="node">
<title>15</title>
<path fill="none" stroke="#56d0d8" stroke-width="2" stroke-dasharray="5,2" d="M963,-262C963,-262 826,-262 826,-262 820,-262 814,-256 814,-250 814,-250 814,-233 814,-233 814,-227 820,-221 826,-221 826,-221 963,-221 963,-221 969,-221 975,-227 975,-233 975,-233 975,-250 975,-250 975,-256 969,-262 963,-262"/>
<text text-anchor="middle" x="894.5" y="-250" font-family="sans" font-size="10.00" fill="#000000">copy_descriptors</text>
<text text-anchor="middle" x="894.5" y="-239" font-family="sans" font-size="10.00" fill="#000000">descriptor: descriptor_subject</text>
<text text-anchor="middle" x="894.5" y="-228" font-family="sans" font-size="10.00" fill="#000000">session: y180116&#45;land&#45;001</text>
</g>
<!-- 15&#45;&gt;5 -->
<g id="edge17" class="edge">
<title>15&#45;&gt;5</title>
<path fill="none" stroke="#c0c0c0" stroke-width="2" d="M929.0696,-220.8654C944.6863,-211.5438 963.3107,-200.4269 979.876,-190.5391"/>
<polygon fill="#c0c0c0" stroke="#c0c0c0" stroke-width="2" points="982.0422,-193.3223 988.8349,-185.1915 978.4544,-187.3116 982.0422,-193.3223"/>
</g>
<!-- 16 -->
<g id="node17" class="node">
<title>16</title>
<path fill="none" stroke="#56d0d8" stroke-width="2" stroke-dasharray="5,2" d="M1549,-262C1549,-262 1334,-262 1334,-262 1328,-262 1322,-256 1322,-250 1322,-250 1322,-233 1322,-233 1322,-227 1328,-221 1334,-221 1334,-221 1549,-221 1549,-221 1555,-221 1561,-227 1561,-233 1561,-233 1561,-250 1561,-250 1561,-256 1555,-262 1549,-262"/>
<text text-anchor="middle" x="1441.5" y="-250" font-family="sans" font-size="10.00" fill="#000000">copy_descriptors</text>
<text text-anchor="middle" x="1441.5" y="-239" font-family="sans" font-size="10.00" fill="#000000">descriptor: descriptor_analog_communication</text>
<text text-anchor="middle" x="1441.5" y="-228" font-family="sans" font-size="10.00" fill="#000000">session: y180116&#45;land&#45;001</text>
</g>
<!-- 16&#45;&gt;6 -->
<g id="edge20" class="edge">
<title>16&#45;&gt;6</title>
<path fill="none" stroke="#c0c0c0" stroke-width="2" d="M1408.5383,-220.8654C1393.648,-211.5438 1375.8898,-200.4269 1360.095,-190.5391"/>
<polygon fill="#c0c0c0" stroke="#c0c0c0" stroke-width="2" points="1361.886,-187.5311 1351.5527,-185.1915 1358.1717,-193.4644 1361.886,-187.5311"/>
</g>
<!-- 17 -->
<g id="node18" class="node">
<title>17</title>
<path fill="none" stroke="#56d0d8" stroke-width="2" stroke-dasharray="5,2" d="M1804,-262C1804,-262 1591,-262 1591,-262 1585,-262 1579,-256 1579,-250 1579,-250 1579,-233 1579,-233 1579,-227 1585,-221 1591,-221 1591,-221 1804,-221 1804,-221 1810,-221 1816,-227 1816,-233 1816,-233 1816,-250 1816,-250 1816,-256 1810,-262 1804,-262"/>
<text text-anchor="middle" x="1697.5" y="-250" font-family="sans" font-size="10.00" fill="#000000">copy_descriptors</text>
<text text-anchor="middle" x="1697.5" y="-239" font-family="sans" font-size="10.00" fill="#000000">descriptor: descriptor_digital_communication</text>
<text text-anchor="middle" x="1697.5" y="-228" font-family="sans" font-size="10.00" fill="#000000">session: y180116&#45;land&#45;001</text>
</g>
<!-- 17&#45;&gt;7 -->
<g id="edge22" class="edge">
<title>17&#45;&gt;7</title>
<path fill="none" stroke="#c0c0c0" stroke-width="2" d="M1674.9895,-220.8654C1665.3855,-212.0617 1654.0345,-201.6566 1643.7159,-192.1979"/>
<polygon fill="#c0c0c0" stroke="#c0c0c0" stroke-width="2" points="1645.8092,-189.3688 1636.0726,-185.1915 1641.0791,-194.5289 1645.8092,-189.3688"/>
</g>
<!-- 18 -->
<g id="node19" class="node">
<title>18</title>
<path fill="none" stroke="#56d0d8" stroke-width="2" stroke-dasharray="5,2" d="M1995,-262C1995,-262 1846,-262 1846,-262 1840,-262 1834,-256 1834,-250 1834,-250 1834,-233 1834,-233 1834,-227 1840,-221 1846,-221 1846,-221 1995,-221 1995,-221 2001,-221 2007,-227 2007,-233 2007,-233 2007,-250 2007,-250 2007,-256 2001,-262 1995,-262"/>
<text text-anchor="middle" x="1920.5" y="-250" font-family="sans" font-size="10.00" fill="#000000">copy_descriptors</text>
<text text-anchor="middle" x="1920.5" y="-239" font-family="sans" font-size="10.00" fill="#000000">descriptor: descriptor_blackrock</text>
<text text-anchor="middle" x="1920.5" y="-228" font-family="sans" font-size="10.00" fill="#000000">session: y180116&#45;land&#45;001</text>
</g>
<!-- 18&#45;&gt;8 -->
<g id="edge24" class="edge">
<title>18&#45;&gt;8</title>
<path fill="none" stroke="#c0c0c0" stroke-width="2" d="M1917.2842,-220.8654C1916.0602,-213.0111 1914.6375,-203.8822 1913.2981,-195.2879"/>
<polygon fill="#c0c0c0" stroke="#c0c0c0" stroke-width="2" points="1916.7228,-194.5333 1911.7247,-185.1915 1909.8063,-195.6113 1916.7228,-194.5333"/>
</g>
<!-- 19 -->
<g id="node20" class="node">
<title>19</title>
<path fill="none" stroke="#56d0d8" stroke-width="2" stroke-dasharray="5,2" d="M2272.5,-262C2272.5,-262 2134.5,-262 2134.5,-262 2128.5,-262 2122.5,-256 2122.5,-250 2122.5,-250 2122.5,-233 2122.5,-233 2122.5,-227 2128.5,-221 2134.5,-221 2134.5,-221 2272.5,-221 2272.5,-221 2278.5,-221 2284.5,-227 2284.5,-233 2284.5,-233 2284.5,-250 2284.5,-250 2284.5,-256 2278.5,-262 2272.5,-262"/>
<text text-anchor="middle" x="2203.5" y="-250" font-family="sans" font-size="10.00" fill="#000000">copy_descriptors</text>
<text text-anchor="middle" x="2203.5" y="-239" font-family="sans" font-size="10.00" fill="#000000">descriptor: descriptor_session</text>
<text text-anchor="middle" x="2203.5" y="-228" font-family="sans" font-size="10.00" fill="#000000">session: y180116&#45;land&#45;001</text>
</g>
<!-- 19&#45;&gt;9 -->
<g id="edge26" class="edge">
<title>19&#45;&gt;9</title>
<path fill="none" stroke="#c0c0c0" stroke-width="2" d="M2203.5,-220.8654C2203.5,-213.0111 2203.5,-203.8822 2203.5,-195.2879"/>
<polygon fill="#c0c0c0" stroke="#c0c0c0" stroke-width="2" points="2207.0001,-195.1915 2203.5,-185.1915 2200.0001,-195.1916 2207.0001,-195.1915"/>
</g>
<!-- 20 -->
<g id="node21" class="node">
<title>20</title>
<path fill="none" stroke="#56d0d8" stroke-width="2" stroke-dasharray="5,2" d="M2584,-262C2584,-262 2413,-262 2413,-262 2407,-262 2401,-256 2401,-250 2401,-250 2401,-233 2401,-233 2401,-227 2407,-221 2413,-221 2413,-221 2584,-221 2584,-221 2590,-221 2596,-227 2596,-233 2596,-233 2596,-250 2596,-250 2596,-256 2590,-262 2584,-262"/>
<text text-anchor="middle" x="2498.5" y="-250" font-family="sans" font-size="10.00" fill="#000000">copy_descriptors</text>
<text text-anchor="middle" x="2498.5" y="-239" font-family="sans" font-size="10.00" fill="#000000">descriptor: descriptor_codes_landing</text>
<text text-anchor="middle" x="2498.5" y="-228" font-family="sans" font-size="10.00" fill="#000000">session: y180116&#45;land&#45;001</text>
</g>
<!-- 20&#45;&gt;10 -->
<g id="edge28" class="edge">
<title>20&#45;&gt;10</title>
<path fill="none" stroke="#c0c0c0" stroke-width="2" d="M2498.5,-220.8654C2498.5,-213.0111 2498.5,-203.8822 2498.5,-195.2879"/>
<polygon fill="#c0c0c0" stroke="#c0c0c0" stroke-width="2" points="2502.0001,-195.1915 2498.5,-185.1915 2495.0001,-195.1916 2502.0001,-195.1915"/>
</g>
</g>
</svg>
