<?xml version="1.0" encoding="UTF-8"?>
<svg xmlns="http://www.w3.org/2000/svg" xmlns:xlink="http://www.w3.org/1999/xlink" width="158.24556pt" height="75.412338pt" viewBox="0 0 158.24556 75.412338" version="1.1">
<g id="surface1">
<path style=" stroke:none;fill-rule:nonzero;fill:rgb(0.784302%,23.921204%,41.960144%);fill-opacity:1;" d="M 113.324219 50.046875 L 111.671875 50.046875 L 111.671875 49.972656 C 111.671875 49.371094 112.046875 49.070312 112.5 49.070312 C 112.949219 49.070312 113.324219 49.371094 113.324219 49.972656 Z M 112.5 48.320312 C 111.597656 48.320312 110.847656 48.996094 110.847656 50.121094 L 110.847656 50.648438 C 110.847656 51.695312 111.597656 52.371094 112.5 52.371094 C 113.097656 52.371094 113.773438 52.070312 114 51.320312 C 114 51.246094 114.074219 51.246094 114.074219 51.171875 C 114.074219 51.097656 114 51.023438 113.921875 51.023438 L 113.398438 51.023438 C 113.324219 51.023438 113.25 51.097656 113.25 51.097656 C 113.023438 51.472656 112.722656 51.546875 112.5 51.546875 C 112.046875 51.546875 111.671875 51.171875 111.671875 50.648438 L 111.671875 50.570312 L 114 50.570312 C 114.074219 50.570312 114.148438 50.496094 114.148438 50.421875 L 114.148438 50.046875 C 114.148438 48.996094 113.398438 48.320312 112.5 48.320312 Z M 109.5 48.398438 L 106.949219 48.398438 C 106.875 48.398438 106.796875 48.472656 106.796875 48.546875 L 106.796875 48.921875 C 106.796875 48.996094 106.875 49.070312 106.949219 49.070312 L 108.671875 49.070312 L 106.875 51.398438 C 106.796875 51.472656 106.722656 51.546875 106.722656 51.773438 L 106.722656 52.070312 C 106.722656 52.148438 106.796875 52.222656 106.875 52.222656 L 109.421875 52.222656 C 109.5 52.222656 109.574219 52.148438 109.574219 52.070312 L 109.574219 51.695312 C 109.574219 51.621094 109.5 51.546875 109.421875 51.546875 L 107.625 51.546875 L 109.5 49.222656 C 109.574219 49.148438 109.648438 49.070312 109.648438 48.921875 L 109.648438 48.546875 C 109.648438 48.472656 109.574219 48.398438 109.5 48.398438 Z M 107.25 41.722656 L 107.25 27.398438 C 107.25 27.023438 106.949219 26.722656 106.574219 26.722656 L 104.699219 26.722656 C 104.324219 26.722656 104.023438 27.023438 104.023438 27.398438 L 104.023438 41.722656 C 104.023438 42.097656 104.324219 42.398438 104.699219 42.398438 L 106.574219 42.398438 C 106.875 42.398438 107.25 42.097656 107.25 41.722656 Z M 101.023438 41.722656 L 101.023438 40.070312 C 101.023438 39.695312 100.722656 39.398438 100.347656 39.398438 L 94.347656 39.398438 L 94.347656 27.398438 C 94.347656 27.023438 94.046875 26.722656 93.671875 26.722656 L 91.796875 26.722656 C 91.421875 26.722656 91.125 27.023438 91.125 27.398438 L 91.125 41.722656 C 91.125 42.097656 91.421875 42.398438 91.796875 42.398438 L 100.347656 42.398438 C 100.722656 42.398438 101.023438 42.097656 101.023438 41.722656 Z M 103.347656 49.445312 C 103.347656 49.148438 103.648438 48.996094 103.949219 48.996094 C 104.472656 48.996094 104.625 49.296875 104.699219 49.445312 C 104.699219 49.523438 104.773438 49.597656 104.847656 49.597656 L 105.375 49.597656 C 105.449219 49.597656 105.523438 49.523438 105.523438 49.445312 C 105.523438 49.371094 105.523438 49.371094 105.523438 49.371094 C 105.375 48.921875 105 48.320312 104.097656 48.320312 C 103.347656 48.320312 102.597656 48.621094 102.597656 49.445312 C 102.597656 51.023438 104.773438 50.347656 104.773438 51.171875 C 104.773438 51.546875 104.472656 51.695312 104.023438 51.695312 C 103.5 51.695312 103.273438 51.398438 103.199219 51.171875 C 103.199219 51.097656 103.125 51.023438 103.046875 51.023438 L 102.597656 51.023438 C 102.523438 51.023438 102.449219 51.097656 102.449219 51.171875 C 102.449219 51.246094 102.449219 51.246094 102.449219 51.246094 C 102.523438 51.773438 103.046875 52.296875 103.949219 52.296875 C 104.773438 52.296875 105.449219 51.996094 105.449219 51.097656 C 105.523438 49.597656 103.347656 50.273438 103.347656 49.445312 Z M 99.898438 53.273438 L 99.296875 53.273438 C 98.773438 53.273438 98.546875 53.046875 98.546875 52.746094 C 98.546875 52.371094 98.699219 52.222656 99.296875 52.222656 L 99.898438 52.222656 C 100.421875 52.222656 100.648438 52.445312 100.648438 52.746094 C 100.648438 53.046875 100.421875 53.273438 99.898438 53.273438 Z M 99.523438 48.996094 L 99.75 48.996094 C 100.199219 48.996094 100.5 49.296875 100.5 49.671875 C 100.5 50.046875 100.199219 50.347656 99.75 50.347656 L 99.523438 50.347656 C 99.074219 50.347656 98.773438 50.046875 98.773438 49.671875 C 98.773438 49.222656 99.074219 48.996094 99.523438 48.996094 Z M 100.046875 51.546875 L 99.074219 51.546875 C 98.773438 51.546875 98.699219 51.472656 98.699219 51.246094 C 98.699219 51.097656 98.847656 50.945312 99 50.945312 L 99.75 50.945312 C 100.648438 50.945312 101.25 50.496094 101.25 49.597656 L 101.25 48.023438 C 101.25 47.945312 101.171875 47.871094 101.097656 47.871094 L 100.648438 47.871094 C 100.574219 47.871094 100.5 47.945312 100.5 48.023438 L 100.5 48.546875 C 100.273438 48.398438 99.972656 48.320312 99.671875 48.320312 L 99.449219 48.320312 C 98.546875 48.320312 97.949219 48.847656 97.949219 49.671875 C 97.949219 50.046875 98.097656 50.421875 98.472656 50.648438 C 98.097656 50.722656 97.949219 50.945312 97.949219 51.246094 C 97.949219 51.546875 98.097656 51.695312 98.324219 51.847656 C 97.949219 51.996094 97.796875 52.296875 97.796875 52.746094 C 97.796875 53.421875 98.25 53.945312 99.148438 53.945312 L 100.046875 53.945312 C 100.949219 53.945312 101.398438 53.421875 101.398438 52.746094 C 101.398438 52.070312 100.949219 51.546875 100.046875 51.546875 Z M 95.097656 48.320312 C 94.574219 48.320312 94.273438 48.546875 94.046875 48.847656 L 94.046875 48.546875 C 94.046875 48.472656 93.972656 48.398438 93.898438 48.398438 L 93.449219 48.398438 C 93.375 48.398438 93.296875 48.472656 93.296875 48.546875 L 93.296875 52.070312 C 93.296875 52.148438 93.375 52.222656 93.449219 52.222656 L 93.898438 52.222656 C 93.972656 52.222656 94.046875 52.148438 94.046875 52.070312 L 94.046875 49.972656 C 94.046875 49.371094 94.421875 48.996094 94.875 48.996094 C 95.324219 48.996094 95.699219 49.371094 95.699219 49.972656 L 95.699219 52.070312 C 95.699219 52.148438 95.773438 52.222656 95.847656 52.222656 L 96.296875 52.222656 C 96.375 52.222656 96.449219 52.148438 96.449219 52.070312 L 96.449219 50.046875 C 96.523438 48.996094 96 48.320312 95.097656 48.320312 Z M 136.875 26.648438 L 135 26.648438 C 134.625 26.648438 134.324219 26.945312 134.324219 27.320312 L 134.324219 32.945312 L 129 32.945312 L 129 27.320312 C 129 26.945312 128.699219 26.648438 128.324219 26.648438 L 126.449219 26.648438 C 126.074219 26.648438 125.773438 26.945312 125.773438 27.320312 L 125.773438 41.648438 C 125.773438 42.023438 126.074219 42.320312 126.449219 42.320312 L 128.324219 42.320312 C 128.699219 42.320312 129 42.023438 129 41.648438 L 129 35.945312 L 134.324219 35.945312 L 134.324219 41.648438 C 134.324219 42.023438 134.625 42.320312 135 42.320312 L 136.875 42.320312 C 137.25 42.320312 137.546875 42.023438 137.546875 41.648438 L 137.546875 27.398438 C 137.625 27.023438 137.25 26.648438 136.875 26.648438 Z M 117.449219 48.320312 C 116.921875 48.320312 116.625 48.546875 116.398438 48.847656 L 116.398438 48.546875 C 116.398438 48.472656 116.324219 48.398438 116.25 48.398438 L 115.796875 48.398438 C 115.722656 48.398438 115.648438 48.472656 115.648438 48.546875 L 115.648438 52.070312 C 115.648438 52.148438 115.722656 52.222656 115.796875 52.222656 L 116.25 52.222656 C 116.324219 52.222656 116.398438 52.148438 116.398438 52.070312 L 116.398438 49.972656 C 116.398438 49.371094 116.773438 48.996094 117.222656 48.996094 C 117.671875 48.996094 118.046875 49.371094 118.046875 49.972656 L 118.046875 52.070312 C 118.046875 52.148438 118.125 52.222656 118.199219 52.222656 L 118.648438 52.222656 C 118.722656 52.222656 118.796875 52.148438 118.796875 52.070312 L 118.796875 50.046875 C 118.875 48.996094 118.347656 48.320312 117.449219 48.320312 Z M 136.199219 48.320312 C 135.671875 48.320312 135.222656 48.546875 135 48.921875 C 134.773438 48.472656 134.324219 48.320312 133.875 48.320312 C 133.347656 48.320312 133.046875 48.546875 132.898438 48.847656 L 132.898438 48.621094 C 132.898438 48.546875 132.824219 48.472656 132.75 48.472656 L 132.148438 48.472656 C 132.074219 48.472656 132 48.546875 132 48.621094 L 132 52.148438 C 132 52.222656 132.074219 52.296875 132.148438 52.296875 L 132.597656 52.296875 C 132.671875 52.296875 132.75 52.222656 132.75 52.148438 L 132.75 50.195312 C 132.75 49.597656 132.898438 49.148438 133.5 49.148438 C 134.097656 49.148438 134.25 49.523438 134.25 50.195312 L 134.25 52.148438 C 134.25 52.222656 134.324219 52.296875 134.398438 52.296875 L 134.847656 52.296875 C 134.921875 52.296875 135 52.222656 135 52.148438 L 135 50.195312 C 135 49.523438 135.148438 49.148438 135.75 49.148438 C 136.347656 49.148438 136.5 49.597656 136.5 50.195312 L 136.5 52.148438 C 136.5 52.222656 136.574219 52.296875 136.648438 52.296875 L 137.097656 52.296875 C 137.171875 52.296875 137.25 52.222656 137.25 52.148438 L 137.25 50.273438 C 137.546875 49.070312 137.324219 48.320312 136.199219 48.320312 Z M 122.25 48.398438 L 121.5 48.398438 L 121.5 47.570312 C 121.5 47.496094 121.421875 47.421875 121.347656 47.421875 L 120.898438 47.421875 C 120.824219 47.421875 120.75 47.496094 120.75 47.570312 L 120.75 47.945312 C 120.75 48.320312 120.597656 48.398438 120.222656 48.398438 C 120.148438 48.398438 120.074219 48.472656 120.074219 48.546875 L 120.074219 48.921875 C 120.074219 48.996094 120.148438 49.070312 120.222656 49.070312 L 120.75 49.070312 L 120.75 50.945312 C 120.75 51.773438 121.046875 52.222656 121.949219 52.222656 L 122.324219 52.222656 C 122.398438 52.222656 122.472656 52.148438 122.472656 52.070312 L 122.472656 51.695312 C 122.472656 51.621094 122.398438 51.546875 122.324219 51.546875 L 122.023438 51.546875 C 121.574219 51.546875 121.5 51.398438 121.5 50.945312 L 121.5 49.148438 L 122.25 49.148438 C 122.324219 49.148438 122.398438 49.070312 122.398438 48.996094 L 122.398438 48.621094 C 122.398438 48.472656 122.324219 48.398438 122.25 48.398438 Z M 125.773438 48.398438 L 125.699219 48.398438 C 125.171875 48.398438 124.875 48.695312 124.648438 48.996094 L 124.648438 48.621094 C 124.648438 48.546875 124.574219 48.472656 124.5 48.472656 L 124.046875 48.472656 C 123.972656 48.472656 123.898438 48.546875 123.898438 48.621094 L 123.898438 52.148438 C 123.898438 52.222656 123.972656 52.296875 124.046875 52.296875 L 124.5 52.296875 C 124.574219 52.296875 124.648438 52.222656 124.648438 52.148438 L 124.648438 50.421875 C 124.648438 49.671875 124.949219 49.296875 125.625 49.296875 L 125.699219 49.296875 C 125.773438 49.296875 125.847656 49.222656 125.847656 49.148438 L 125.847656 48.695312 C 125.921875 48.472656 125.847656 48.398438 125.773438 48.398438 Z M 122.324219 36.773438 L 120 36.773438 C 119.546875 36.773438 119.472656 37.148438 119.398438 37.445312 C 119.25 38.496094 118.5 39.546875 116.847656 39.546875 C 115.199219 39.546875 113.847656 38.347656 113.847656 36.023438 L 113.847656 33.023438 C 113.847656 30.695312 115.199219 29.421875 116.847656 29.421875 C 118.5 29.421875 119.25 30.546875 119.398438 31.597656 C 119.472656 32.046875 119.699219 32.195312 120 32.195312 L 122.324219 32.195312 C 122.699219 32.195312 122.847656 31.972656 122.847656 31.597656 C 122.699219 28.898438 120.523438 26.273438 116.921875 26.273438 C 113.324219 26.273438 110.699219 28.898438 110.699219 32.871094 L 110.699219 35.871094 C 110.699219 39.847656 113.324219 42.472656 116.921875 42.472656 C 120.523438 42.472656 122.699219 39.847656 122.847656 37.148438 C 122.847656 37.070312 122.625 36.773438 122.324219 36.773438 Z M 130.199219 48.398438 L 129.75 48.398438 C 129.671875 48.398438 129.597656 48.472656 129.597656 48.546875 L 129.597656 50.648438 C 129.597656 51.246094 129.296875 51.621094 128.773438 51.621094 C 128.324219 51.621094 128.023438 51.246094 128.023438 50.648438 L 128.023438 48.546875 C 128.023438 48.472656 127.949219 48.398438 127.875 48.398438 L 127.421875 48.398438 C 127.347656 48.398438 127.273438 48.472656 127.273438 48.546875 L 127.273438 50.570312 C 127.273438 51.621094 127.722656 52.296875 128.625 52.296875 C 129.148438 52.296875 129.449219 52.070312 129.671875 51.773438 L 129.671875 51.996094 C 129.671875 52.070312 129.75 52.148438 129.824219 52.148438 L 130.273438 52.148438 C 130.347656 52.148438 130.421875 52.070312 130.421875 51.996094 L 130.421875 48.472656 C 130.421875 48.472656 130.347656 48.398438 130.199219 48.398438 Z M 66.148438 46.820312 L 63.148438 46.820312 C 63.074219 46.820312 63 46.898438 63 46.972656 L 63 52.070312 C 63 52.148438 63.074219 52.222656 63.148438 52.222656 L 63.597656 52.222656 C 63.671875 52.222656 63.75 52.148438 63.75 52.070312 L 63.75 50.121094 L 65.625 50.121094 C 65.699219 50.121094 65.773438 50.046875 65.773438 49.972656 L 65.773438 49.523438 C 65.773438 49.445312 65.699219 49.371094 65.625 49.371094 L 63.75 49.371094 L 63.75 47.648438 L 66.148438 47.648438 C 66.222656 47.648438 66.296875 47.570312 66.296875 47.496094 L 66.296875 47.046875 C 66.296875 46.898438 66.222656 46.820312 66.148438 46.820312 Z M 42.898438 38.871094 C 39.597656 47.496094 31.648438 50.722656 24.375 49.523438 C 26.023438 51.246094 28.125 52.671875 30.449219 53.570312 C 39.222656 56.945312 49.046875 52.597656 52.421875 43.820312 C 54.972656 37.148438 53.097656 29.871094 48.148438 25.222656 Z M 69.523438 50.648438 C 69.523438 51.246094 69.148438 51.621094 68.699219 51.621094 C 68.25 51.621094 67.875 51.246094 67.875 50.648438 L 67.875 49.972656 C 67.875 49.371094 68.25 48.996094 68.699219 48.996094 C 69.222656 48.996094 69.523438 49.371094 69.523438 49.972656 Z M 68.699219 48.320312 C 67.796875 48.320312 67.046875 48.996094 67.046875 50.121094 L 67.046875 50.648438 C 67.046875 51.695312 67.796875 52.371094 68.699219 52.371094 C 69.671875 52.371094 70.347656 51.695312 70.347656 50.648438 L 70.347656 50.121094 C 70.347656 48.996094 69.597656 48.320312 68.699219 48.320312 Z M 32.847656 35.195312 L 38.398438 20.796875 C 31.5 20.046875 24.671875 23.648438 21.449219 29.945312 C 21.449219 29.945312 21.449219 30.023438 21.449219 30.023438 L 21.222656 30.621094 C 19.574219 34.972656 22.125 38.195312 24.597656 39.171875 C 27.074219 40.148438 31.199219 39.546875 32.847656 35.195312 Z M 72 27.398438 C 72 27.023438 71.699219 26.722656 71.324219 26.722656 L 69.449219 26.722656 C 69.074219 26.722656 68.773438 27.023438 68.773438 27.398438 L 68.773438 37.597656 C 68.773438 39.023438 67.648438 39.621094 66.898438 39.621094 C 66.148438 39.621094 65.023438 39.023438 65.023438 37.597656 L 65.023438 37.371094 C 65.023438 36.996094 64.722656 36.695312 64.347656 36.695312 L 62.398438 36.695312 C 62.023438 36.695312 61.722656 36.996094 61.722656 37.371094 L 61.722656 37.523438 C 61.722656 40.746094 64.273438 42.695312 66.824219 42.695312 C 69.449219 42.695312 72 40.820312 72 37.523438 Z M 83.921875 25.296875 C 84.898438 25.296875 85.574219 24.621094 85.574219 23.648438 C 85.574219 22.671875 84.898438 21.996094 83.921875 21.996094 C 82.949219 21.996094 82.273438 22.671875 82.273438 23.648438 C 82.273438 24.621094 82.949219 25.296875 83.921875 25.296875 Z M 79.199219 25.296875 C 80.171875 25.296875 80.847656 24.621094 80.847656 23.648438 C 80.847656 22.671875 80.171875 21.996094 79.199219 21.996094 C 78.222656 21.996094 77.546875 22.671875 77.546875 23.648438 C 77.546875 24.621094 78.222656 25.296875 79.199219 25.296875 Z M 75.671875 49.445312 C 75.671875 49.148438 75.972656 48.996094 76.273438 48.996094 C 76.796875 48.996094 76.949219 49.296875 77.023438 49.445312 C 77.023438 49.523438 77.097656 49.597656 77.171875 49.597656 L 77.699219 49.597656 C 77.773438 49.597656 77.847656 49.523438 77.847656 49.445312 C 77.847656 49.371094 77.847656 49.371094 77.847656 49.371094 C 77.699219 48.921875 77.324219 48.320312 76.421875 48.320312 C 75.671875 48.320312 74.921875 48.621094 74.921875 49.445312 C 74.921875 51.023438 77.097656 50.347656 77.097656 51.171875 C 77.097656 51.546875 76.796875 51.695312 76.347656 51.695312 C 75.824219 51.695312 75.597656 51.398438 75.523438 51.171875 C 75.523438 51.097656 75.449219 51.023438 75.375 51.023438 L 74.921875 51.023438 C 74.847656 51.023438 74.773438 51.097656 74.773438 51.171875 C 74.773438 51.246094 74.773438 51.246094 74.773438 51.246094 C 74.847656 51.773438 75.375 52.296875 76.273438 52.296875 C 77.097656 52.296875 77.773438 51.996094 77.773438 51.097656 C 77.847656 49.597656 75.671875 50.273438 75.671875 49.445312 Z M 80.625 48.996094 C 81.074219 48.996094 81.296875 49.296875 81.449219 49.671875 C 81.449219 49.746094 81.523438 49.820312 81.597656 49.820312 L 82.125 49.820312 C 82.199219 49.820312 82.273438 49.746094 82.273438 49.671875 C 82.273438 49.671875 82.273438 49.597656 82.273438 49.597656 C 82.125 48.847656 81.523438 48.320312 80.699219 48.320312 C 79.796875 48.320312 79.046875 48.996094 79.046875 50.121094 L 79.046875 50.648438 C 79.046875 51.695312 79.796875 52.371094 80.699219 52.371094 C 81.671875 52.371094 82.199219 51.621094 82.273438 51.097656 C 82.273438 51.023438 82.273438 51.023438 82.273438 50.945312 C 82.273438 50.871094 82.199219 50.796875 82.125 50.796875 L 81.597656 50.796875 C 81.523438 50.796875 81.523438 50.796875 81.449219 50.871094 C 81.375 51.320312 81.074219 51.546875 80.625 51.546875 C 80.171875 51.546875 79.796875 51.171875 79.796875 50.570312 L 79.796875 49.898438 C 79.796875 49.371094 80.171875 48.996094 80.625 48.996094 Z M 73.574219 48.398438 L 73.5 48.398438 C 72.972656 48.398438 72.671875 48.695312 72.449219 48.996094 L 72.449219 48.621094 C 72.449219 48.546875 72.375 48.472656 72.296875 48.472656 L 71.847656 48.472656 C 71.773438 48.472656 71.699219 48.546875 71.699219 48.621094 L 71.699219 52.148438 C 71.699219 52.222656 71.773438 52.296875 71.847656 52.296875 L 72.296875 52.296875 C 72.375 52.296875 72.449219 52.222656 72.449219 52.148438 L 72.449219 50.421875 C 72.449219 49.671875 72.75 49.296875 73.421875 49.296875 L 73.5 49.296875 C 73.574219 49.296875 73.648438 49.222656 73.648438 49.148438 L 73.648438 48.695312 C 73.796875 48.472656 73.722656 48.398438 73.574219 48.398438 Z M 86.699219 26.648438 L 84.824219 26.648438 C 84.449219 26.648438 84.148438 26.945312 84.148438 27.320312 L 84.148438 36.246094 C 84.148438 38.570312 83.023438 39.546875 81.449219 39.546875 C 79.875 39.546875 78.75 38.570312 78.75 36.246094 L 78.75 27.398438 C 78.75 27.023438 78.449219 26.722656 78.074219 26.722656 L 76.199219 26.722656 C 75.824219 26.722656 75.523438 27.023438 75.523438 27.398438 L 75.523438 36.320312 C 75.523438 40.222656 77.921875 42.695312 81.449219 42.695312 C 84.972656 42.695312 87.449219 40.296875 87.449219 36.320312 L 87.449219 27.398438 C 87.375 27.023438 87.074219 26.648438 86.699219 26.648438 Z M 85.421875 48.320312 C 84.898438 48.320312 84.523438 48.546875 84.375 48.847656 L 84.375 47.046875 C 84.375 46.972656 84.296875 46.898438 84.222656 46.898438 L 83.773438 46.898438 C 83.699219 46.898438 83.625 46.972656 83.625 47.046875 L 83.625 52.148438 C 83.625 52.222656 83.699219 52.296875 83.773438 52.296875 L 84.222656 52.296875 C 84.296875 52.296875 84.375 52.222656 84.375 52.148438 L 84.375 50.046875 C 84.375 49.445312 84.75 49.070312 85.199219 49.070312 C 85.648438 49.070312 86.023438 49.445312 86.023438 50.046875 L 86.023438 52.148438 C 86.023438 52.222656 86.097656 52.296875 86.171875 52.296875 L 86.625 52.296875 C 86.699219 52.296875 86.773438 52.222656 86.773438 52.148438 L 86.773438 50.121094 C 86.773438 48.996094 86.324219 48.320312 85.421875 48.320312 Z M 91.347656 48.398438 L 90.898438 48.398438 C 90.824219 48.398438 90.75 48.472656 90.75 48.546875 L 90.75 50.648438 C 90.75 51.246094 90.449219 51.621094 89.921875 51.621094 C 89.472656 51.621094 89.171875 51.246094 89.171875 50.648438 L 89.171875 48.546875 C 89.171875 48.472656 89.097656 48.398438 89.023438 48.398438 L 88.574219 48.398438 C 88.5 48.398438 88.421875 48.472656 88.421875 48.546875 L 88.421875 50.570312 C 88.421875 51.621094 88.875 52.296875 89.773438 52.296875 C 90.296875 52.296875 90.597656 52.070312 90.824219 51.773438 L 90.824219 51.996094 C 90.824219 52.070312 90.898438 52.148438 90.972656 52.148438 L 91.421875 52.148438 C 91.5 52.148438 91.574219 52.070312 91.574219 51.996094 L 91.574219 48.472656 C 91.574219 48.472656 91.5 48.398438 91.347656 48.398438 Z M 91.347656 48.398438 "/>
</g>
</svg>
