<?xml version="1.0" encoding="UTF-8" standalone="no"?>
<svg
   xmlns:dc="http://purl.org/dc/elements/1.1/"
   xmlns:cc="http://creativecommons.org/ns#"
   xmlns:rdf="http://www.w3.org/1999/02/22-rdf-syntax-ns#"
   xmlns:svg="http://www.w3.org/2000/svg"
   xmlns="http://www.w3.org/2000/svg"
   xmlns:sodipodi="http://sodipodi.sourceforge.net/DTD/sodipodi-0.dtd"
   xmlns:inkscape="http://www.inkscape.org/namespaces/inkscape"
   width="146.85841pt"
   height="34.014702pt"
   viewBox="0 0 146.85841 34.014702"
   version="1.1"
   id="svg5"
   sodipodi:docname="fzj_mod.svg"
   inkscape:version="0.92.4 (f8dce91, 2019-08-02)">
  <metadata
     id="metadata11">
    <rdf:RDF>
      <cc:Work
         rdf:about="">
        <dc:format>image/svg+xml</dc:format>
        <dc:type
           rdf:resource="http://purl.org/dc/dcmitype/StillImage" />
        <dc:title></dc:title>
      </cc:Work>
    </rdf:RDF>
  </metadata>
  <defs
     id="defs9" />
  <sodipodi:namedview
     pagecolor="#ffffff"
     bordercolor="#666666"
     borderopacity="1"
     objecttolerance="10"
     gridtolerance="10"
     guidetolerance="10"
     inkscape:pageopacity="0"
     inkscape:pageshadow="2"
     inkscape:window-width="1130"
     inkscape:window-height="812"
     id="namedview7"
     showgrid="false"
     fit-margin-left="0"
     fit-margin-right="30"
     fit-margin-top="0"
     fit-margin-bottom="0"
     inkscape:zoom="1.9242246"
     inkscape:cx="-54.362497"
     inkscape:cy="22.676499"
     inkscape:window-x="0"
     inkscape:window-y="0"
     inkscape:window-maximized="0"
     inkscape:current-layer="svg5" />
  <g
     id="surface1"
     transform="translate(-20.698855,-20.69884)">
    <path
       style="fill:#003a68;fill-opacity:1;fill-rule:nonzero;stroke:none"
       d="m 113.32422,50.046875 h -1.65234 v -0.07422 c 0,-0.601562 0.375,-0.902344 0.82812,-0.902344 0.44922,0 0.82422,0.300782 0.82422,0.902344 z M 112.5,48.320312 c -0.90234,0 -1.65234,0.675782 -1.65234,1.800782 v 0.527344 c 0,1.046874 0.75,1.722656 1.65234,1.722656 0.59766,0 1.27344,-0.300782 1.5,-1.050782 0,-0.07422 0.0742,-0.07422 0.0742,-0.148437 0,-0.07422 -0.0742,-0.148437 -0.15234,-0.148437 h -0.52344 c -0.0742,0 -0.14844,0.07422 -0.14844,0.07422 -0.22656,0.375 -0.52734,0.449219 -0.75,0.449219 -0.45312,0 -0.82812,-0.375 -0.82812,-0.898437 V 50.57031 H 114 c 0.0742,0 0.14844,-0.07422 0.14844,-0.148437 v -0.375 c 0,-1.050781 -0.75,-1.726563 -1.64844,-1.726563 z m -3,0.07813 h -2.55078 c -0.0742,0 -0.15234,0.07422 -0.15234,0.148437 v 0.375 c 0,0.07422 0.0781,0.148437 0.15234,0.148437 h 1.72266 l -1.79688,2.328126 c -0.0781,0.07422 -0.15234,0.148437 -0.15234,0.375 v 0.296874 c 0,0.07813 0.0742,0.152344 0.15234,0.152344 h 2.54688 c 0.0781,0 0.15234,-0.07422 0.15234,-0.152344 v -0.375 c 0,-0.07422 -0.0742,-0.148437 -0.15234,-0.148437 H 107.625 L 109.5,49.22266 c 0.0742,-0.07422 0.14844,-0.152344 0.14844,-0.300781 v -0.375 c 0,-0.07422 -0.0742,-0.148437 -0.14844,-0.148437 z M 107.25,41.72266 V 27.398438 c 0,-0.375 -0.30078,-0.675782 -0.67578,-0.675782 h -1.875 c -0.375,0 -0.67578,0.300782 -0.67578,0.675782 v 14.324218 c 0,0.375 0.30078,0.675782 0.67578,0.675782 h 1.875 c 0.30078,0 0.67578,-0.300782 0.67578,-0.675782 z m -6.22656,0 v -1.652344 c 0,-0.375 -0.30078,-0.671874 -0.67578,-0.671874 h -6.000004 v -12 c 0,-0.375 -0.300781,-0.675782 -0.675781,-0.675782 h -1.875 c -0.375,0 -0.671875,0.300782 -0.671875,0.675782 V 41.72266 c 0,0.375 0.296875,0.675782 0.671875,0.675782 h 8.550785 c 0.375,0 0.67578,-0.300782 0.67578,-0.675782 z m 2.32422,7.722656 c 0,-0.296874 0.30078,-0.449218 0.60156,-0.449218 0.52344,0 0.67578,0.300781 0.75,0.449218 0,0.07813 0.0742,0.152344 0.14844,0.152344 h 0.52734 c 0.0742,0 0.14844,-0.07422 0.14844,-0.152344 0,-0.07422 0,-0.07422 0,-0.07422 C 105.375,48.921875 105,48.320312 104.09766,48.320312 c -0.75,0 -1.5,0.300782 -1.5,1.125 0,1.578126 2.17578,0.902344 2.17578,1.726563 0,0.375 -0.30078,0.523437 -0.75,0.523437 -0.52344,0 -0.75,-0.296874 -0.82422,-0.523437 0,-0.07422 -0.0742,-0.148437 -0.15234,-0.148437 h -0.44922 c -0.0742,0 -0.14844,0.07422 -0.14844,0.148437 0,0.07422 0,0.07422 0,0.07422 0.0742,0.527344 0.59766,1.050781 1.5,1.050781 0.82422,0 1.5,-0.300781 1.5,-1.199219 0.0742,-1.5 -2.10156,-0.824218 -2.10156,-1.652344 z m -3.449222,3.828126 h -0.601563 c -0.523437,0 -0.75,-0.226563 -0.75,-0.527344 0,-0.375 0.152344,-0.523438 0.75,-0.523438 h 0.601563 c 0.523442,0 0.750002,0.222656 0.750002,0.523438 0,0.300781 -0.22656,0.527344 -0.750002,0.527344 z m -0.375,-4.277344 H 99.75 c 0.44922,0 0.75,0.300781 0.75,0.675781 0,0.375 -0.30078,0.675781 -0.75,0.675781 h -0.226562 c -0.449219,0 -0.75,-0.300781 -0.75,-0.675781 0,-0.449219 0.300781,-0.675781 0.75,-0.675781 z m 0.523442,2.550781 h -0.972661 c -0.300781,0 -0.375,-0.07422 -0.375,-0.300781 0,-0.148438 0.148437,-0.300782 0.300781,-0.300782 h 0.75 c 0.89844,0 1.5,-0.449218 1.5,-1.347656 v -1.574218 c 0,-0.07813 -0.0781,-0.152344 -0.15234,-0.152344 h -0.44922 c -0.0742,0 -0.14844,0.07422 -0.14844,0.152344 v 0.523437 c -0.22656,-0.148437 -0.527344,-0.226563 -0.828125,-0.226563 h -0.222656 c -0.902344,0 -1.5,0.527344 -1.5,1.351563 0,0.375 0.148437,0.75 0.523437,0.976563 -0.375,0.07422 -0.523437,0.296874 -0.523437,0.597656 0,0.300781 0.148437,0.449218 0.375,0.601562 -0.375,0.148438 -0.527344,0.449219 -0.527344,0.898438 0,0.675781 0.453125,1.199218 1.351563,1.199218 h 0.898442 c 0.90234,0 1.35156,-0.523437 1.35156,-1.199218 0,-0.675782 -0.44922,-1.199219 -1.35156,-1.199219 z m -4.949224,-3.226563 c -0.523437,0 -0.824218,0.226563 -1.050781,0.527344 v -0.300781 c 0,-0.07422 -0.07422,-0.148437 -0.148437,-0.148437 h -0.449219 c -0.07422,0 -0.152344,0.07422 -0.152344,0.148437 v 3.523437 c 0,0.07813 0.07813,0.152344 0.152344,0.152344 h 0.449219 c 0.07422,0 0.148437,-0.07422 0.148437,-0.152344 V 49.97266 c 0,-0.601562 0.375,-0.976562 0.828125,-0.976562 0.449219,0 0.824219,0.375 0.824219,0.976562 v 2.097656 c 0,0.07813 0.07422,0.152344 0.148437,0.152344 h 0.449219 c 0.07813,0 0.152344,-0.07422 0.152344,-0.152344 V 50.046875 C 96.523438,48.996094 96,48.320312 95.097656,48.320312 Z M 136.875,26.648438 H 135 c -0.375,0 -0.67578,0.296874 -0.67578,0.671874 v 5.625 H 129 v -5.625 c 0,-0.375 -0.30078,-0.671874 -0.67578,-0.671874 h -1.875 c -0.375,0 -0.67578,0.296874 -0.67578,0.671874 v 14.328126 c 0,0.375 0.30078,0.671874 0.67578,0.671874 h 1.875 c 0.375,0 0.67578,-0.296874 0.67578,-0.671874 v -5.703126 h 5.32422 v 5.703126 c 0,0.375 0.30078,0.671874 0.67578,0.671874 h 1.875 c 0.375,0 0.67187,-0.296874 0.67187,-0.671874 v -14.25 c 0.0781,-0.375 -0.29687,-0.75 -0.67187,-0.75 z m -19.42578,21.671874 c -0.52734,0 -0.82422,0.226563 -1.05078,0.527344 v -0.300781 c 0,-0.07422 -0.0742,-0.148437 -0.14844,-0.148437 h -0.45312 c -0.0742,0 -0.14844,0.07422 -0.14844,0.148437 v 3.523437 c 0,0.07813 0.0742,0.152344 0.14844,0.152344 H 116.25 c 0.0742,0 0.14844,-0.07422 0.14844,-0.152344 v -2.097656 c 0,-0.601562 0.375,-0.976562 0.82422,-0.976562 0.44922,0 0.82422,0.375 0.82422,0.976562 v 2.097656 c 0,0.07813 0.0781,0.152344 0.15234,0.152344 h 0.44922 c 0.0742,0 0.14844,-0.07422 0.14844,-0.152344 v -2.023437 c 0.0781,-1.050781 -0.44922,-1.726563 -1.34766,-1.726563 z m 18.75,0 c -0.52735,0 -0.97656,0.226563 -1.19922,0.601563 -0.22656,-0.449219 -0.67578,-0.601563 -1.125,-0.601563 -0.52734,0 -0.82813,0.226563 -0.97656,0.527344 v -0.226562 c 0,-0.07422 -0.0742,-0.148438 -0.14844,-0.148438 h -0.60156 c -0.0742,0 -0.14844,0.07422 -0.14844,0.148438 v 3.527344 c 0,0.07422 0.0742,0.148437 0.14844,0.148437 h 0.44922 c 0.0742,0 0.15234,-0.07422 0.15234,-0.148437 v -1.953126 c 0,-0.597656 0.14844,-1.046874 0.75,-1.046874 0.59766,0 0.75,0.375 0.75,1.046874 v 1.953126 c 0,0.07422 0.0742,0.148437 0.14844,0.148437 h 0.44922 c 0.0742,0 0.15234,-0.07422 0.15234,-0.148437 v -1.953126 c 0,-0.671874 0.14844,-1.046874 0.75,-1.046874 0.59766,0 0.75,0.449218 0.75,1.046874 v 1.953126 c 0,0.07422 0.0742,0.148437 0.14844,0.148437 h 0.44922 c 0.0742,0 0.15234,-0.07422 0.15234,-0.148437 v -1.875 c 0.29687,-1.203126 0.0742,-1.953126 -1.05078,-1.953126 z M 122.25,48.398438 h -0.75 v -0.828126 c 0,-0.07422 -0.0781,-0.148437 -0.15234,-0.148437 h -0.44922 c -0.0742,0 -0.14844,0.07422 -0.14844,0.148437 v 0.375 c 0,0.375 -0.15234,0.453126 -0.52734,0.453126 -0.0742,0 -0.14844,0.07422 -0.14844,0.148437 v 0.375 c 0,0.07422 0.0742,0.148437 0.14844,0.148437 H 120.75 v 1.875 c 0,0.828126 0.29688,1.277344 1.19922,1.277344 h 0.375 c 0.0742,0 0.14844,-0.07422 0.14844,-0.152344 v -0.375 c 0,-0.07422 -0.0742,-0.148437 -0.14844,-0.148437 h -0.30078 c -0.44922,0 -0.52344,-0.148437 -0.52344,-0.601563 v -1.796874 h 0.75 c 0.0742,0 0.14844,-0.07813 0.14844,-0.152344 v -0.375 c 0,-0.148438 -0.0742,-0.222656 -0.14844,-0.222656 z m 3.52344,0 h -0.0742 c -0.52734,0 -0.82422,0.296874 -1.05078,0.597656 v -0.375 c 0,-0.07422 -0.0742,-0.148438 -0.14844,-0.148438 h -0.45312 c -0.0742,0 -0.14844,0.07422 -0.14844,0.148438 v 3.527344 c 0,0.07422 0.0742,0.148437 0.14844,0.148437 H 124.5 c 0.0742,0 0.14844,-0.07422 0.14844,-0.148437 v -1.726563 c 0,-0.75 0.30078,-1.125 0.97656,-1.125 h 0.0742 c 0.0742,0 0.14844,-0.07422 0.14844,-0.148437 v -0.453126 c 0.0742,-0.222656 0,-0.296874 -0.0742,-0.296874 z m -3.44922,-11.625 H 120 c -0.45312,0 -0.52734,0.375 -0.60156,0.671874 -0.14844,1.050782 -0.89844,2.101563 -2.55078,2.101563 -1.64844,0 -3,-1.199219 -3,-3.523437 v -3 c 0,-2.328126 1.35156,-3.601563 3,-3.601563 1.65234,0 2.40234,1.125 2.55078,2.175781 0.0742,0.449219 0.30078,0.597656 0.60156,0.597656 h 2.32422 c 0.375,0 0.52344,-0.222656 0.52344,-0.597656 -0.14844,-2.699218 -2.32422,-5.324218 -5.92578,-5.324218 -3.59766,0 -6.22266,2.625 -6.22266,6.597656 v 3 c 0,3.976562 2.625,6.601562 6.22266,6.601562 3.60156,0 5.77734,-2.625 5.92578,-5.324218 0,-0.07813 -0.22266,-0.375 -0.52344,-0.375 z m 7.875,11.625 H 129.75 c -0.0781,0 -0.15234,0.07422 -0.15234,0.148437 v 2.101563 c 0,0.597656 -0.30079,0.972656 -0.82422,0.972656 -0.44922,0 -0.75,-0.375 -0.75,-0.972656 v -2.101563 c 0,-0.07422 -0.0742,-0.148437 -0.14844,-0.148437 h -0.45312 c -0.0742,0 -0.14844,0.07422 -0.14844,0.148437 v 2.023437 c 0,1.050782 0.44922,1.726563 1.35156,1.726563 0.52344,0 0.82422,-0.226563 1.04687,-0.523437 v 0.222656 c 0,0.07422 0.0781,0.152344 0.15235,0.152344 h 0.44922 c 0.0742,0 0.14843,-0.07813 0.14843,-0.152344 v -3.523438 c 0,0 -0.0742,-0.07422 -0.22265,-0.07422 z M 66.148438,46.820312 h -3 C 63.074219,46.820312 63,46.898438 63,46.972656 v 5.097656 c 0,0.07813 0.07422,0.152344 0.148438,0.152344 h 0.449218 c 0.07422,0 0.152344,-0.07422 0.152344,-0.152344 v -1.949218 h 1.875 c 0.07422,0 0.148438,-0.07422 0.148438,-0.148438 v -0.449218 c 0,-0.07813 -0.07422,-0.152344 -0.148438,-0.152344 H 63.75 v -1.722656 h 2.398438 c 0.07422,0 0.148437,-0.07813 0.148437,-0.152344 v -0.449219 c 0,-0.148437 -0.07422,-0.226563 -0.148437,-0.226563 z m -23.25,-7.949218 c -3.300782,8.625 -11.25,11.851562 -18.523438,10.652344 1.648438,1.722656 3.75,3.148437 6.074219,4.046874 8.773437,3.375 18.597656,-0.972656 21.972656,-9.75 2.550781,-6.671874 0.675781,-13.949218 -4.273437,-18.597656 z m 26.625,11.777344 c 0,0.597656 -0.375,0.972656 -0.824219,0.972656 -0.449219,0 -0.824219,-0.375 -0.824219,-0.972656 v -0.675782 c 0,-0.601562 0.375,-0.976562 0.824219,-0.976562 0.523437,0 0.824219,0.375 0.824219,0.976562 z m -0.824219,-2.328126 c -0.902344,0 -1.652344,0.675782 -1.652344,1.800782 v 0.527344 c 0,1.046874 0.75,1.722656 1.652344,1.722656 0.972656,0 1.648437,-0.675782 1.648437,-1.722656 v -0.527344 c 0,-1.125 -0.75,-1.800782 -1.648437,-1.800782 z m -35.851563,-13.125 5.550782,-14.398437 c -6.898438,-0.75 -13.726563,2.851563 -16.949219,9.148437 0,0 0,0.07813 0,0.07813 l -0.226563,0.597656 c -1.648437,4.351562 0.902344,7.574218 3.375,8.550781 2.476563,0.976563 6.601563,0.375 8.25,-3.976563 z M 72,27.398438 c 0,-0.375 -0.300781,-0.675782 -0.675781,-0.675782 h -1.875 c -0.375,0 -0.675781,0.300782 -0.675781,0.675782 v 10.199218 c 0,1.425782 -1.125,2.023438 -1.875,2.023438 -0.75,0 -1.875,-0.597656 -1.875,-2.023438 v -0.226562 c 0,-0.375 -0.300782,-0.675782 -0.675782,-0.675782 h -1.949218 c -0.375,0 -0.675782,0.300782 -0.675782,0.675782 v 0.152344 c 0,3.222656 2.550782,5.171874 5.101563,5.171874 2.625,0 5.175781,-1.875 5.175781,-5.171874 z m 11.921875,-2.101563 c 0.976563,0 1.652344,-0.675781 1.652344,-1.648437 0,-0.976563 -0.675781,-1.652344 -1.652344,-1.652344 -0.972656,0 -1.648437,0.675781 -1.648437,1.652344 0,0.972656 0.675781,1.648437 1.648437,1.648437 z m -4.722656,0 c 0.972656,0 1.648437,-0.675781 1.648437,-1.648437 0,-0.976563 -0.675781,-1.652344 -1.648437,-1.652344 -0.976563,0 -1.652344,0.675781 -1.652344,1.652344 0,0.972656 0.675781,1.648437 1.652344,1.648437 z m -3.527344,24.148437 c 0,-0.296874 0.300781,-0.449218 0.601563,-0.449218 0.523437,0 0.675781,0.300781 0.75,0.449218 0,0.07813 0.07422,0.152344 0.148437,0.152344 h 0.527344 c 0.07422,0 0.148437,-0.07422 0.148437,-0.152344 0,-0.07422 0,-0.07422 0,-0.07422 -0.148437,-0.449219 -0.523437,-1.050782 -1.425781,-1.050782 -0.75,0 -1.5,0.300782 -1.5,1.125 0,1.578126 2.175781,0.902344 2.175781,1.726563 0,0.375 -0.300781,0.523437 -0.75,0.523437 -0.523437,0 -0.75,-0.296874 -0.824218,-0.523437 0,-0.07422 -0.07422,-0.148437 -0.148438,-0.148437 h -0.453125 c -0.07422,0 -0.148437,0.07422 -0.148437,0.148437 0,0.07422 0,0.07422 0,0.07422 0.07422,0.527344 0.601562,1.050781 1.5,1.050781 0.824218,0 1.5,-0.300781 1.5,-1.199219 0.07422,-1.5 -2.101563,-0.824218 -2.101563,-1.652343 z M 80.625,48.996094 c 0.449219,0 0.671875,0.300781 0.824219,0.675781 0,0.07422 0.07422,0.148437 0.148437,0.148437 H 82.125 c 0.07422,0 0.148438,-0.07422 0.148438,-0.148437 0,0 0,-0.07422 0,-0.07422 -0.148438,-0.75 -0.75,-1.277344 -1.574219,-1.277344 -0.902344,0 -1.652344,0.675782 -1.652344,1.800782 v 0.527344 c 0,1.046874 0.75,1.722656 1.652344,1.722656 0.972656,0 1.5,-0.75 1.574219,-1.273438 0,-0.07422 0,-0.07422 0,-0.152344 0,-0.07422 -0.07422,-0.148437 -0.148438,-0.148437 h -0.527344 c -0.07422,0 -0.07422,0 -0.148437,0.07422 -0.07422,0.449218 -0.375,0.675781 -0.824219,0.675781 -0.453125,0 -0.828125,-0.375 -0.828125,-0.976563 v -0.671874 c 0,-0.527344 0.375,-0.902344 0.828125,-0.902344 z M 73.574219,48.398438 H 73.5 c -0.527344,0 -0.828125,0.296874 -1.050781,0.597656 v -0.375 c 0,-0.07422 -0.07422,-0.148438 -0.152344,-0.148438 h -0.449219 c -0.07422,0 -0.148437,0.07422 -0.148437,0.148438 v 3.527344 c 0,0.07422 0.07422,0.148437 0.148437,0.148437 h 0.449219 c 0.07813,0 0.152344,-0.07422 0.152344,-0.148437 v -1.726563 c 0,-0.75 0.300781,-1.125 0.972656,-1.125 H 73.5 c 0.07422,0 0.148438,-0.07422 0.148438,-0.148437 v -0.453126 c 0.148437,-0.222656 0.07422,-0.296874 -0.07422,-0.296874 z m 13.125,-21.75 h -1.875 c -0.375,0 -0.675781,0.296874 -0.675781,0.671874 v 8.925782 c 0,2.324218 -1.125,3.300781 -2.699219,3.300781 C 79.875,39.546875 78.75,38.570312 78.75,36.246094 v -8.847656 c 0,-0.375 -0.300781,-0.675782 -0.675781,-0.675782 h -1.875 c -0.375,0 -0.675781,0.300782 -0.675781,0.675782 v 8.921874 c 0,3.902344 2.398437,6.375 5.925781,6.375 3.523437,0 6,-2.398437 6,-6.375 v -8.921874 c -0.07422,-0.375 -0.375,-0.75 -0.75,-0.75 z m -1.277344,21.671874 c -0.523437,0 -0.898437,0.226563 -1.046875,0.527344 v -1.800781 c 0,-0.07422 -0.07813,-0.148437 -0.152344,-0.148437 h -0.449218 c -0.07422,0 -0.148438,0.07422 -0.148438,0.148437 v 5.101563 c 0,0.07422 0.07422,0.148437 0.148438,0.148437 h 0.449218 c 0.07422,0 0.152344,-0.07422 0.152344,-0.148437 v -2.101563 c 0,-0.601563 0.375,-0.976563 0.824219,-0.976563 0.449219,0 0.824219,0.375 0.824219,0.976563 v 2.101563 c 0,0.07422 0.07422,0.148437 0.148437,0.148437 H 86.625 c 0.07422,0 0.148438,-0.07422 0.148438,-0.148437 v -2.027344 c 0,-1.125 -0.449219,-1.800782 -1.351563,-1.800782 z m 5.925781,0.07813 h -0.449218 c -0.07422,0 -0.148438,0.07422 -0.148438,0.148437 v 2.101563 c 0,0.597656 -0.300781,0.972656 -0.828125,0.972656 -0.449219,0 -0.75,-0.375 -0.75,-0.972656 v -2.101563 c 0,-0.07422 -0.07422,-0.148437 -0.148437,-0.148437 h -0.449219 c -0.07422,0 -0.152344,0.07422 -0.152344,0.148437 v 2.023437 c 0,1.050782 0.453125,1.726563 1.351563,1.726563 0.523437,0 0.824218,-0.226563 1.050781,-0.523437 v 0.222656 c 0,0.07422 0.07422,0.152344 0.148437,0.152344 h 0.449219 c 0.07813,0 0.152344,-0.07813 0.152344,-0.152344 V 48.47266 c 0,0 -0.07422,-0.07422 -0.226563,-0.07422 z m 0,0"
       id="path2"
       inkscape:connector-curvature="0" />
  </g>
</svg>
