<?xml version="1.0" encoding="UTF-8" standalone="no"?>
<!-- Generated by graphviz version 2.38.0 (20140413.2041)
 -->

<!-- Title: snakemake_dag Pages: 1 -->

<svg
   xmlns:dc="http://purl.org/dc/elements/1.1/"
   xmlns:cc="http://creativecommons.org/ns#"
   xmlns:rdf="http://www.w3.org/1999/02/22-rdf-syntax-ns#"
   xmlns:svg="http://www.w3.org/2000/svg"
   xmlns="http://www.w3.org/2000/svg"
   xmlns:sodipodi="http://sodipodi.sourceforge.net/DTD/sodipodi-0.dtd"
   xmlns:inkscape="http://www.inkscape.org/namespaces/inkscape"
   width="524pt"
   height="620pt"
   viewBox="0.00 0.00 524.00 620.00"
   version="1.1"
   id="svg301"
   sodipodi:docname="rulegraph_colored.svg"
   inkscape:version="0.92.4 (f8dce91, 2019-08-02)">
  <metadata
     id="metadata307">
    <rdf:RDF>
      <cc:Work
         rdf:about="">
        <dc:format>image/svg+xml</dc:format>
        <dc:type
           rdf:resource="http://purl.org/dc/dcmitype/StillImage" />
        <dc:title />
      </cc:Work>
    </rdf:RDF>
  </metadata>
  <defs
     id="defs305" />
  <sodipodi:namedview
     pagecolor="#ffffff"
     bordercolor="#666666"
     borderopacity="1"
     objecttolerance="10"
     gridtolerance="10"
     guidetolerance="10"
     inkscape:pageopacity="0"
     inkscape:pageshadow="2"
     inkscape:window-width="2560"
     inkscape:window-height="1412"
     id="namedview303"
     showgrid="false"
     inkscape:zoom="0.90028971"
     inkscape:cx="-252.70421"
     inkscape:cy="419.93637"
     inkscape:window-x="0"
     inkscape:window-y="0"
     inkscape:window-maximized="1"
     inkscape:current-layer="graph0" />
  <g
     id="graph0"
     class="graph"
     transform="scale(1 1) rotate(0) translate(4 616)">
    <title
       id="title2">snakemake_dag</title>
    <!-- 0 -->
    <path
       inkscape:connector-curvature="0"
       style="fill:none;stroke:#ffb341;stroke-width:1.99999995;stroke-opacity:1;stroke-miterlimit:4;stroke-dasharray:none"
       id="path8"
       d="m 355.5,-36 c 0,0 -59,0 -59,0 -6,0 -12,6 -12,12 0,0 0,12 0,12 0,6 6,12 12,12 0,0 59,0 59,0 6,0 12,-6 12,-12 0,0 0,-12 0,-12 0,-6 -6,-12 -12,-12" />
    <text
       style="font-size:10px;font-family:sans;text-anchor:middle;stroke:none;stroke-opacity:1;stroke-width:0.075;stroke-miterlimit:4;stroke-dasharray:none"
       id="text10"
       font-size="10.00"
       y="-15.5"
       x="326">upload_to_gin</text>
    <!-- 1 -->
    <path
       inkscape:connector-curvature="0"
       style="fill:none;stroke:#ab41ff;stroke-width:1.99999995;stroke-opacity:1;stroke-miterlimit:4;stroke-dasharray:none"
       id="path15"
       d="m 504,-108 c 0,0 -54,0 -54,0 -6,0 -12,6 -12,12 0,0 0,12 0,12 0,6 6,12 12,12 0,0 54,0 54,0 6,0 12,-6 12,-12 0,0 0,-12 0,-12 0,-6 -6,-12 -12,-12" />
    <text
       style="font-size:10px;font-family:sans;text-anchor:middle;stroke:none;stroke-opacity:1;stroke-width:0.075;stroke-miterlimit:4;stroke-dasharray:none"
       id="text17"
       font-size="10.00"
       y="-87.5"
       x="477">create_small</text>
    <!-- 1&#45;&gt;0 -->
    <g
       id="edge1"
       class="edge">
      <title
         id="title20">1-&gt;0</title>
      <path
         fill="none"
         stroke="grey"
         stroke-width="2"
         d="M440.061,-71.8761C419.51,-62.3492 393.749,-50.4068 371.911,-40.2833"
         id="path22" />
      <polygon
         fill="grey"
         stroke="grey"
         stroke-width="2"
         points="373.363,-37.0988 362.819,-36.0683 370.419,-43.4496 373.363,-37.0988"
         id="polygon24" />
    </g>
    <!-- 2 -->
    <path
       inkscape:connector-curvature="0"
       style="fill:none;stroke:#ffb341;stroke-width:1.99999995;stroke-opacity:1;stroke-miterlimit:4;stroke-dasharray:none"
       id="path29"
       d="m 248,-108 c 0,0 -58,0 -58,0 -6,0 -12,6 -12,12 0,0 0,12 0,12 0,6 6,12 12,12 0,0 58,0 58,0 6,0 12,-6 12,-12 0,0 0,-12 0,-12 0,-6 -6,-12 -12,-12" />
    <text
       style="font-size:10px;font-family:sans;text-anchor:middle;stroke:none;stroke-opacity:1;stroke-width:0.075;stroke-miterlimit:4;stroke-dasharray:none"
       id="text31"
       font-size="10.00"
       y="-87.5"
       x="219">initialize_repo</text>
    <!-- 2&#45;&gt;0 -->
    <g
       id="edge3"
       class="edge">
      <title
         id="title34">2-&gt;0</title>
      <path
         fill="none"
         stroke="grey"
         stroke-width="2"
         d="M245.175,-71.8761C259.036,-62.8083 276.241,-51.5523 291.211,-41.7592"
         id="path36" />
      <polygon
         fill="grey"
         stroke="grey"
         stroke-width="2"
         points="293.272,-44.5933 299.724,-36.1898 289.44,-38.7355 293.272,-44.5933"
         id="polygon38" />
    </g>
    <!-- 3 -->
    <path
       inkscape:connector-curvature="0"
       style="fill:none;stroke:#ffb341;stroke-width:1.99999995;stroke-opacity:1;stroke-miterlimit:4;stroke-dasharray:none"
       id="path43"
       d="m 262.5,-180 c 0,0 -39,0 -39,0 -6,0 -12,6 -12,12 0,0 0,12 0,12 0,6 6,12 12,12 0,0 39,0 39,0 6,0 12,-6 12,-12 0,0 0,-12 0,-12 0,-6 -6,-12 -12,-12" />
    <text
       style="font-size:10px;font-family:sans;text-anchor:middle;stroke:none;stroke-opacity:1;stroke-width:0.075;stroke-miterlimit:4;stroke-dasharray:none"
       id="text45"
       font-size="10.00"
       y="-159.5"
       x="243">setup_gin</text>
    <!-- 3&#45;&gt;0 -->
    <g
       id="edge2"
       class="edge">
      <title
         id="title48">3-&gt;0</title>
      <path
         fill="none"
         stroke="grey"
         stroke-width="2"
         d="M253.012,-143.871C267.407,-119.244 294.064,-73.6377 310.87,-44.8845"
         id="path50" />
      <polygon
         fill="grey"
         stroke="grey"
         stroke-width="2"
         points="313.928,-46.5889 315.953,-36.1893 307.885,-43.0564 313.928,-46.5889"
         id="polygon52" />
    </g>
    <!-- 3&#45;&gt;2 -->
    <g
       id="edge8"
       class="edge">
      <title
         id="title55">3-&gt;2</title>
      <path
         fill="none"
         stroke="grey"
         stroke-width="2"
         d="M237.067,-143.697C234.394,-135.898 231.174,-126.509 228.199,-117.829"
         id="path57" />
      <polygon
         fill="grey"
         stroke="grey"
         stroke-width="2"
         points="231.418,-116.429 224.864,-108.104 224.797,-118.699 231.418,-116.429"
         id="polygon59" />
    </g>
    <!-- 4 -->
    <path
       inkscape:connector-curvature="0"
       style="fill:none;stroke:#ab41ff;stroke-width:1.99999995;stroke-opacity:1;stroke-miterlimit:4;stroke-dasharray:none"
       id="path64"
       d="m 408,-108 c 0,0 -42,0 -42,0 -6,0 -12,6 -12,12 0,0 0,12 0,12 0,6 6,12 12,12 0,0 42,0 42,0 6,0 12,-6 12,-12 0,0 0,-12 0,-12 0,-6 -6,-12 -12,-12" />
    <text
       style="font-size:10px;font-family:sans;text-anchor:middle;stroke:none;stroke-opacity:1;stroke-width:0.075;stroke-miterlimit:4;stroke-dasharray:none"
       id="text66"
       font-size="10.00"
       y="-87.5"
       x="387">create_full</text>
    <!-- 4&#45;&gt;0 -->
    <g
       id="edge5"
       class="edge">
      <title
         id="title69">4-&gt;0</title>
      <path
         fill="none"
         stroke="grey"
         stroke-width="2"
         d="M371.921,-71.6966C364.608,-63.3046 355.69,-53.0705 347.665,-43.8613"
         id="path71" />
      <polygon
         fill="grey"
         stroke="grey"
         stroke-width="2"
         points="350.114,-41.344 340.905,-36.1043 344.836,-45.9429 350.114,-41.344"
         id="polygon73" />
    </g>
    <!-- 5 -->
    <path
       inkscape:connector-curvature="0"
       style="fill:none;stroke:#5d6fff;stroke-width:1.99999995;stroke-opacity:1;stroke-miterlimit:4;stroke-dasharray:none"
       id="path78"
       d="m 415.5,-324 c 0,0 -179,0 -179,0 -6,0 -12,6 -12,12 0,0 0,12 0,12 0,6 6,12 12,12 0,0 179,0 179,0 6,0 12,-6 12,-12 0,0 0,-12 0,-12 0,-6 -6,-12 -12,-12" />
    <text
       style="font-size:10px;font-family:sans;text-anchor:middle;stroke:none;stroke-opacity:1;stroke-width:0.075;stroke-miterlimit:4;stroke-dasharray:none"
       id="text80"
       font-size="10.00"
       y="-303.5"
       x="326">integrate_descriptors_and_app_results</text>
    <!-- 5&#45;&gt;0 -->
    <g
       id="edge4"
       class="edge">
      <title
         id="title83">5-&gt;0</title>
      <path
         fill="none"
         stroke="grey"
         stroke-width="2"
         d="M326,-287.966C326,-240.291 326,-105.185 326,-46.63"
         id="path85" />
      <polygon
         fill="grey"
         stroke="grey"
         stroke-width="2"
         points="329.5,-46.3064 326,-36.3065 322.5,-46.3065 329.5,-46.3064"
         id="polygon87" />
    </g>
    <!-- 6 -->
    <path
       inkscape:connector-curvature="0"
       style="fill:none;stroke:#ab41ff;stroke-width:1.99999995;stroke-opacity:1;stroke-miterlimit:4;stroke-dasharray:none"
       id="path92"
       d="m 490.5,-252 c 0,0 -89,0 -89,0 -6,0 -12,6 -12,12 0,0 0,12 0,12 0,6 6,12 12,12 0,0 89,0 89,0 6,0 12,-6 12,-12 0,0 0,-12 0,-12 0,-6 -6,-12 -12,-12" />
    <text
       style="font-size:10px;font-family:sans;text-anchor:middle;stroke:none;stroke-opacity:1;stroke-width:0.075;stroke-miterlimit:4;stroke-dasharray:none"
       id="text94"
       font-size="10.00"
       y="-231.5"
       x="446">integrate_metadata</text>
    <!-- 5&#45;&gt;6 -->
    <g
       id="edge13"
       class="edge">
      <title
         id="title97">5-&gt;6</title>
      <path
         fill="none"
         stroke="grey"
         stroke-width="2"
         d="M355.355,-287.876C371.045,-278.724 390.557,-267.342 407.454,-257.485"
         id="path99" />
      <polygon
         fill="grey"
         stroke="grey"
         stroke-width="2"
         points="409.658,-260.252 416.532,-252.19 406.13,-254.205 409.658,-260.252"
         id="polygon101" />
    </g>
    <!-- 6&#45;&gt;1 -->
    <g
       id="edge7"
       class="edge">
      <title
         id="title104">6-&gt;1</title>
      <path
         fill="none"
         stroke="grey"
         stroke-width="2"
         d="M469.305,-215.819C479.901,-206.538 491.32,-194.094 497,-180 505.141,-159.798 498.763,-135.616 491.116,-117.56"
         id="path106" />
      <polygon
         fill="grey"
         stroke="grey"
         stroke-width="2"
         points="494.18,-115.846 486.821,-108.224 487.82,-118.771 494.18,-115.846"
         id="polygon108" />
    </g>
    <!-- 6&#45;&gt;4 -->
    <g
       id="edge10"
       class="edge">
      <title
         id="title111">6-&gt;4</title>
      <path
         fill="none"
         stroke="grey"
         stroke-width="2"
         d="M422.992,-215.939C412.235,-206.604 400.409,-194.079 394,-180 385.197,-160.661 383.815,-136.511 384.43,-118.249"
         id="path113" />
      <polygon
         fill="grey"
         stroke="grey"
         stroke-width="2"
         points="387.925,-118.436 384.982,-108.258 380.936,-118.05 387.925,-118.436"
         id="polygon115" />
    </g>
    <!-- 7 -->
    <path
       inkscape:connector-curvature="0"
       style="fill:none;stroke:#ab41ff;stroke-width:1.99999995;stroke-opacity:1;stroke-miterlimit:4;stroke-dasharray:none"
       id="path120"
       d="m 476.5,-180 c 0,0 -61,0 -61,0 -6,0 -12,6 -12,12 0,0 0,12 0,12 0,6 6,12 12,12 0,0 61,0 61,0 6,0 12,-6 12,-12 0,0 0,-12 0,-12 0,-6 -6,-12 -12,-12" />
    <text
       style="font-size:10px;font-family:sans;text-anchor:middle;stroke:none;stroke-opacity:1;stroke-width:0.075;stroke-miterlimit:4;stroke-dasharray:none"
       id="text122"
       font-size="10.00"
       y="-159.5"
       x="446">link_metadata</text>
    <!-- 6&#45;&gt;7 -->
    <g
       id="edge15"
       class="edge">
      <title
         id="title125">6-&gt;7</title>
      <path
         fill="none"
         stroke="grey"
         stroke-width="2"
         d="M446,-215.697C446,-207.983 446,-198.712 446,-190.112"
         id="path127" />
      <polygon
         fill="grey"
         stroke="grey"
         stroke-width="2"
         points="449.5,-190.104 446,-180.104 442.5,-190.104 449.5,-190.104"
         id="polygon129" />
    </g>
    <!-- 7&#45;&gt;1 -->
    <g
       id="edge6"
       class="edge">
      <title
         id="title132">7-&gt;1</title>
      <path
         fill="none"
         stroke="grey"
         stroke-width="2"
         d="M453.663,-143.697C457.192,-135.728 461.456,-126.1 465.369,-117.264"
         id="path134" />
      <polygon
         fill="grey"
         stroke="grey"
         stroke-width="2"
         points="468.576,-118.665 469.425,-108.104 462.176,-115.831 468.576,-118.665"
         id="polygon136" />
    </g>
    <!-- 7&#45;&gt;4 -->
    <g
       id="edge9"
       class="edge">
      <title
         id="title139">7-&gt;4</title>
      <path
         fill="none"
         stroke="grey"
         stroke-width="2"
         d="M431.416,-143.697C424.342,-135.305 415.717,-125.07 407.955,-115.861"
         id="path141" />
      <polygon
         fill="grey"
         stroke="grey"
         stroke-width="2"
         points="410.537,-113.495 401.417,-108.104 405.185,-118.006 410.537,-113.495"
         id="polygon143" />
    </g>
    <!-- 8 -->
    <path
       inkscape:connector-curvature="0"
       style="fill:none;stroke:#5d6fff;stroke-width:1.99999995;stroke-opacity:1;stroke-miterlimit:4;stroke-dasharray:none"
       id="path148"
       d="m 236.5,-396 c 0,0 -97,0 -97,0 -6,0 -12,6 -12,12 0,0 0,12 0,12 0,6 6,12 12,12 0,0 97,0 97,0 6,0 12,-6 12,-12 0,0 0,-12 0,-12 0,-6 -6,-12 -12,-12" />
    <text
       style="font-size:10px;font-family:sans;text-anchor:middle;stroke:none;stroke-opacity:1;stroke-width:0.075;stroke-miterlimit:4;stroke-dasharray:none"
       id="text150"
       font-size="10.00"
       y="-375.5"
       x="188">integrate_app_results</text>
    <!-- 8&#45;&gt;5 -->
    <g
       id="edge11"
       class="edge">
      <title
         id="title153">8-&gt;5</title>
      <path
         fill="none"
         stroke="grey"
         stroke-width="2"
         d="M221.759,-359.876C240.22,-350.512 263.282,-338.814 283.017,-328.803"
         id="path155" />
      <polygon
         fill="grey"
         stroke="grey"
         stroke-width="2"
         points="284.777,-331.835 292.112,-324.19 281.61,-325.592 284.777,-331.835"
         id="polygon157" />
    </g>
    <!-- 9 -->
    <path
       inkscape:connector-curvature="0"
       style="fill:none;stroke:#5d6fff;stroke-width:1.99999995;stroke-opacity:1;stroke-miterlimit:4;stroke-dasharray:none"
       id="path162"
       d="m 373.5,-396 c 0,0 -95,0 -95,0 -6,0 -12,6 -12,12 0,0 0,12 0,12 0,6 6,12 12,12 0,0 95,0 95,0 6,0 12,-6 12,-12 0,0 0,-12 0,-12 0,-6 -6,-12 -12,-12" />
    <text
       style="font-size:10px;font-family:sans;text-anchor:middle;stroke:none;stroke-opacity:1;stroke-width:0.075;stroke-miterlimit:4;stroke-dasharray:none"
       id="text164"
       font-size="10.00"
       y="-375.5"
       x="326">integrate_descriptors</text>
    <!-- 9&#45;&gt;5 -->
    <g
       id="edge12"
       class="edge">
      <title
         id="title167">9-&gt;5</title>
      <path
         fill="none"
         stroke="grey"
         stroke-width="2"
         d="M326,-359.697C326,-351.983 326,-342.712 326,-334.112"
         id="path169" />
      <polygon
         fill="grey"
         stroke="grey"
         stroke-width="2"
         points="329.5,-334.104 326,-324.104 322.5,-334.104 329.5,-334.104"
         id="polygon171" />
    </g>
    <!-- 10 -->
    <path
       inkscape:connector-curvature="0"
       style="fill:none;stroke:#ab41ff;stroke-width:1.49999996;stroke-linejoin:round;stroke-miterlimit:4;stroke-dasharray:none;stroke-opacity:1"
       id="path176"
       d="m 357,-612 c 0,0 -48,0 -48,0 -6,0 -12,6 -12,12 0,0 0,12 0,12 0,6 6,12 12,12 0,0 48,0 48,0 6,0 12,-6 12,-12 0,0 0,-12 0,-12 0,-6 -6,-12 -12,-12" />
    <text
       style="font-size:10px;font-family:sans;text-anchor:middle;stroke:none;stroke-width:0.075;stroke-linejoin:round;stroke-miterlimit:4;stroke-dasharray:none;stroke-opacity:1"
       id="text178"
       font-size="10.00"
       y="-591.5"
       x="333">data_to_nix</text>
    <!-- 10&#45;&gt;6 -->
    <g
       id="edge14"
       class="edge">
      <title
         id="title181">10-&gt;6</title>
      <path
         fill="none"
         stroke="grey"
         stroke-width="2"
         d="M369.141,-589.487C402.293,-584.306 450.319,-571.516 478,-540 504.754,-509.539 498,-491.542 498,-451 498,-451 498,-451 498,-377 498,-334.492 477.2,-288.953 461.91,-261.219"
         id="path183" />
      <polygon
         fill="grey"
         stroke="grey"
         stroke-width="2"
         points="464.759,-259.15 456.774,-252.187 458.674,-262.61 464.759,-259.15"
         id="polygon185" />
    </g>
    <!-- 14 -->
    <path
       inkscape:connector-curvature="0"
       style="fill:none;stroke:#009843;stroke-width:1.99999995;stroke-opacity:1;stroke-miterlimit:4;stroke-dasharray:none"
       id="path190"
       d="m 197.5,-540 c 0,0 -59,0 -59,0 -6,0 -12,6 -12,12 0,0 0,12 0,12 0,6 6,12 12,12 0,0 59,0 59,0 6,0 12,-6 12,-12 0,0 0,-12 0,-12 0,-6 -6,-12 -12,-12" />
    <text
       style="font-size:10px;font-family:sans;text-anchor:middle;stroke:none;stroke-opacity:1;stroke-width:0.075;stroke-miterlimit:4;stroke-dasharray:none"
       id="text192"
       font-size="10.00"
       y="-519.5"
       x="168">run_data_app</text>
    <!-- 10&#45;&gt;14 -->
    <g
       id="edge25"
       class="edge">
      <title
         id="title195">10-&gt;14</title>
      <path
         fill="none"
         stroke="grey"
         stroke-width="2"
         d="M296.79,-577.638C273.574,-567.789 243.126,-554.872 217.664,-544.07"
         id="path197" />
      <polygon
         fill="grey"
         stroke="grey"
         stroke-width="2"
         points="218.748,-540.728 208.176,-540.044 216.014,-547.172 218.748,-540.728"
         id="polygon199" />
    </g>
    <!-- 11 -->
    <path
       inkscape:connector-curvature="0"
       style="fill:none;stroke:#5d6fff;stroke-width:1.99999995;stroke-opacity:1;stroke-miterlimit:4;stroke-dasharray:none"
       id="path204"
       d="m 303.5,-468 c 0,0 -53,0 -53,0 -6,0 -12,6 -12,12 0,0 0,12 0,12 0,6 6,12 12,12 0,0 53,0 53,0 6,0 12,-6 12,-12 0,0 0,-12 0,-12 0,-6 -6,-12 -12,-12" />
    <text
       style="font-size:10px;font-family:sans;text-anchor:middle;stroke:none;stroke-opacity:1;stroke-width:0.075;stroke-miterlimit:4;stroke-dasharray:none"
       id="text206"
       font-size="10.00"
       y="-447.5"
       x="277">csv_to_odml</text>
    <!-- 11&#45;&gt;8 -->
    <g
       id="edge17"
       class="edge">
      <title
         id="title209">11-&gt;8</title>
      <path
         fill="none"
         stroke="grey"
         stroke-width="2"
         d="M255,-431.697C243.791,-422.881 229.998,-412.032 217.846,-402.474"
         id="path211" />
      <polygon
         fill="grey"
         stroke="grey"
         stroke-width="2"
         points="219.771,-399.535 209.747,-396.104 215.443,-405.038 219.771,-399.535"
         id="polygon213" />
    </g>
    <!-- 11&#45;&gt;9 -->
    <g
       id="edge18"
       class="edge">
      <title
         id="title216">11-&gt;9</title>
      <path
         fill="none"
         stroke="grey"
         stroke-width="2"
         d="M289.112,-431.697C294.868,-423.474 301.862,-413.483 308.206,-404.421"
         id="path218" />
      <polygon
         fill="grey"
         stroke="grey"
         stroke-width="2"
         points="311.16,-406.304 314.027,-396.104 305.425,-402.29 311.16,-406.304"
         id="polygon220" />
    </g>
    <!-- 12 -->
    <path
       inkscape:connector-curvature="0"
       style="fill:none;stroke:#4d505a;stroke-width:1.99999995;stroke-opacity:1;stroke-miterlimit:4;stroke-dasharray:none"
       id="path225"
       d="m 208.5,-468 c 0,0 -125,0 -125,0 -6,0 -12,6 -12,12 0,0 0,12 0,12 0,6 6,12 12,12 0,0 125,0 125,0 6,0 12,-6 12,-12 0,0 0,-12 0,-12 0,-6 -6,-12 -12,-12" />
    <text
       style="font-size:10px;font-family:sans;text-anchor:middle;stroke:none;stroke-opacity:1;stroke-width:0.075;stroke-miterlimit:4;stroke-dasharray:none"
       id="text227"
       font-size="10.00"
       y="-447.5"
       x="146">run_all_preprocessing_apps</text>
    <!-- 12&#45;&gt;8 -->
    <g
       id="edge16"
       class="edge">
      <title
         id="title230">12-&gt;8</title>
      <path
         fill="none"
         stroke="grey"
         stroke-width="2"
         d="M156.382,-431.697C161.265,-423.559 167.187,-413.689 172.579,-404.701"
         id="path232" />
      <polygon
         fill="grey"
         stroke="grey"
         stroke-width="2"
         points="175.594,-406.48 177.737,-396.104 169.591,-402.879 175.594,-406.48"
         id="polygon234" />
    </g>
    <!-- 13 -->
    <path
       inkscape:connector-curvature="0"
       style="fill:none;stroke:#5d6fff;stroke-width:1.99999995;stroke-opacity:1;stroke-miterlimit:4;stroke-dasharray:none"
       id="path239"
       d="m 457.5,-540 c 0,0 -101,0 -101,0 -6,0 -12,6 -12,12 0,0 0,12 0,12 0,6 6,12 12,12 0,0 101,0 101,0 6,0 12,-6 12,-12 0,0 0,-12 0,-12 0,-6 -6,-12 -12,-12" />
    <text
       style="font-size:10px;font-family:sans;text-anchor:middle;stroke:none;stroke-opacity:1;stroke-width:0.075;stroke-miterlimit:4;stroke-dasharray:none"
       id="text241"
       font-size="10.00"
       y="-519.5"
       x="407">add_odML_style_sheet</text>
    <!-- 13&#45;&gt;11 -->
    <g
       id="edge19"
       class="edge">
      <title
         id="title244">13-&gt;11</title>
      <path
         fill="none"
         stroke="grey"
         stroke-width="2"
         d="M375.198,-503.876C357.886,-494.554 336.279,-482.919 317.744,-472.939"
         id="path246" />
      <polygon
         fill="grey"
         stroke="grey"
         stroke-width="2"
         points="319.388,-469.849 308.924,-468.19 316.069,-476.012 319.388,-469.849"
         id="polygon248" />
    </g>
    <!-- 14&#45;&gt;11 -->
    <g
       id="edge22"
       class="edge">
      <title
         id="title251">14-&gt;11</title>
      <path
         fill="none"
         stroke="grey"
         stroke-width="2"
         d="M194.664,-503.876C208.784,-494.808 226.311,-483.552 241.561,-473.759"
         id="path253" />
      <polygon
         fill="grey"
         stroke="grey"
         stroke-width="2"
         points="243.71,-476.538 250.233,-468.19 239.927,-470.648 243.71,-476.538"
         id="polygon255" />
    </g>
    <!-- 14&#45;&gt;12 -->
    <g
       id="edge24"
       class="edge">
      <title
         id="title258">14-&gt;12</title>
      <path
         fill="none"
         stroke="grey"
         stroke-width="2"
         d="M162.562,-503.697C160.111,-495.898 157.16,-486.509 154.432,-477.829"
         id="path260" />
      <polygon
         fill="grey"
         stroke="grey"
         stroke-width="2"
         points="157.713,-476.595 151.376,-468.104 151.035,-478.694 157.713,-476.595"
         id="polygon262" />
    </g>
    <!-- 15 -->
    <path
       inkscape:connector-curvature="0"
       style="fill:none;stroke:#009843;stroke-width:1.99999995;stroke-opacity:1;stroke-miterlimit:4;stroke-dasharray:none"
       id="path267"
       d="m 96,-540 c 0,0 -84,0 -84,0 -6,0 -12,6 -12,12 0,0 0,12 0,12 0,6 6,12 12,12 0,0 84,0 84,0 6,0 12,-6 12,-12 0,0 0,-12 0,-12 0,-6 -6,-12 -12,-12" />
    <text
       style="font-size:10px;font-family:sans;text-anchor:middle;stroke:none;stroke-opacity:1;stroke-width:0.075;stroke-miterlimit:4;stroke-dasharray:none"
       id="text269"
       font-size="10.00"
       y="-519.5"
       x="54">run_metadata_app</text>
    <!-- 15&#45;&gt;11 -->
    <g
       id="edge20"
       class="edge">
      <title
         id="title272">15-&gt;11</title>
      <path
         fill="none"
         stroke="grey"
         stroke-width="2"
         d="M108.205,-505.288C140.64,-495.724 182.87,-482.989 228.748,-468.013"
         id="path274" />
      <polygon
         fill="grey"
         stroke="grey"
         stroke-width="2"
         points="229.869,-471.329 238.28,-464.886 227.687,-464.678 229.869,-471.329"
         id="polygon276" />
    </g>
    <!-- 15&#45;&gt;12 -->
    <g
       id="edge23"
       class="edge">
      <title
         id="title279">15-&gt;12</title>
      <path
         fill="none"
         stroke="grey"
         stroke-width="2"
         d="M76.7416,-503.697C88.4396,-494.796 102.861,-483.823 115.51,-474.199"
         id="path281" />
      <polygon
         fill="grey"
         stroke="grey"
         stroke-width="2"
         points="117.681,-476.945 123.52,-468.104 113.442,-471.374 117.681,-476.945"
         id="polygon283" />
    </g>
    <!-- 16 -->
    <path
       inkscape:connector-curvature="0"
       style="fill:none;stroke:#5d6fff;stroke-width:1.99999995;stroke-opacity:1;stroke-miterlimit:4;stroke-dasharray:none"
       id="path288"
       d="m 314,-540 c 0,0 -74,0 -74,0 -6,0 -12,6 -12,12 0,0 0,12 0,12 0,6 6,12 12,12 0,0 74,0 74,0 6,0 12,-6 12,-12 0,0 0,-12 0,-12 0,-6 -6,-12 -12,-12" />
    <text
       style="font-size:10px;font-family:sans;text-anchor:middle;stroke:none;stroke-opacity:1;stroke-width:0.075;stroke-miterlimit:4;stroke-dasharray:none"
       id="text290"
       font-size="10.00"
       y="-519.5"
       x="277">copy_descriptors</text>
    <!-- 16&#45;&gt;11 -->
    <g
       id="edge21"
       class="edge">
      <title
         id="title293">16-&gt;11</title>
      <path
         fill="none"
         stroke="grey"
         stroke-width="2"
         d="M277,-503.697C277,-495.983 277,-486.712 277,-478.112"
         id="path295" />
      <polygon
         fill="grey"
         stroke="grey"
         stroke-width="2"
         points="280.5,-478.104 277,-468.104 273.5,-478.104 280.5,-478.104"
         id="polygon297" />
    </g>
    <path
       style="fill:none;stroke:#5d6fff;stroke-width:1.99999995;stroke-opacity:1;stroke-miterlimit:4;stroke-dasharray:none"
       id="path267-7"
       d="m 96.314556,-177.28078 c 0,0 -84,0 -84,0 -6.0000004,0 -12.00000042,6 -12.00000042,12 0,0 0,12 0,12 0,6 6.00000002,12 12.00000042,12 0,0 84,0 84,0 6.000004,0 12.000004,-6 12.000004,-12 0,0 0,-12 0,-12 0,-6 -6,-12 -12.000004,-12"
       inkscape:connector-curvature="0" />
    <text
       style="font-size:10px;font-family:sans;text-anchor:middle;stroke:none;stroke-width:0.075;stroke-miterlimit:4;stroke-dasharray:none;stroke-opacity:1"
       id="text269-5"
       font-size="10.00"
       y="-156.78078"
       x="54.314556">compile</text>
    <path
       style="fill:none;stroke:#4d505a;stroke-width:1.99999995;stroke-opacity:1;stroke-miterlimit:4;stroke-dasharray:none"
       id="path288-6"
       d="m 95.218011,-130.61465 c 0,0 -81.516765,0 -81.516765,0 -6.6094674,0 -13.2189348,6 -13.2189348,12 0,0 0,12 0,12 0,6 6.6094674,12 13.2189348,12 0,0 81.516765,0 81.516765,0 6.609469,0 13.218939,-6 13.218939,-12 0,0 0,-12 0,-12 0,-6 -6.60947,-12 -13.218939,-12"
       inkscape:connector-curvature="0" />
    <text
       style="font-size:10.49560833px;font-family:sans;text-anchor:middle;stroke:none;stroke-width:0.075;stroke-opacity:1;stroke-miterlimit:4;stroke-dasharray:none"
       id="text290-2"
       font-size="10.00"
       y="-115.57202"
       x="51.888016"
       transform="scale(1.0495608,0.95277947)">utility rules</text>
    <path
       style="fill:none;stroke:#ab41ff;stroke-width:1.99999995;stroke-opacity:1;stroke-miterlimit:4;stroke-dasharray:none"
       id="path92-2"
       d="m 97.17145,-84.11465 c 0,0 -85.097447,0 -85.097447,0 -5.7369069,0 -11.47381344,6 -11.47381344,12 0,0 0,12 0,12 0,6 5.73690654,12 11.47381344,12 0,0 85.097447,0 85.097447,0 5.73691,0 11.47381,-6 11.47381,-12 0,0 0,-12 0,-12 0,-6 -5.7369,-12 -11.47381,-12"
       inkscape:connector-curvature="0" />
    <text
       style="font-size:9.77829742px;font-family:sans;text-anchor:middle;stroke:none;stroke-width:0.075;stroke-miterlimit:4;stroke-dasharray:none;stroke-opacity:1"
       id="text94-7"
       font-size="10.00"
       y="-62.2043"
       x="55.861179"
       transform="scale(0.97782979,1.0226729)">integrate &amp; package</text>
    <path
       style="fill:none;stroke:#009843;stroke-width:1.99999995;stroke-opacity:1;stroke-miterlimit:4;stroke-dasharray:none"
       id="path267-7-3"
       d="m 96.314566,-224.43324 c 0,0 -84,0 -84,0 -6.0000004,0 -12.00000042,6 -12.00000042,12 0,0 0,12 0,12 0,6 6.00000002,12 12.00000042,12 0,0 84,0 84,0 6.000004,0 12.000004,-6 12.000004,-12 0,0 0,-12 0,-12 0,-6 -6,-12 -12.000004,-12"
       inkscape:connector-curvature="0" />
    <text
       style="font-size:10px;font-family:sans;text-anchor:middle;stroke:none;stroke-width:0.075;stroke-miterlimit:4;stroke-dasharray:none;stroke-opacity:1"
       id="text269-5-6"
       font-size="10.00"
       y="-203.93324"
       x="54.314564">preprocess</text>
    <path
       style="fill:none;stroke:#ffb341;stroke-width:1.99999995;stroke-opacity:1;stroke-miterlimit:4;stroke-dasharray:none"
       id="path267-7-3-2"
       d="m 97.147626,-38.59213 c 0,0 -84,0 -84,0 -6.0000004,0 -12.0000004,6 -12.0000004,12 0,0 0,12 0,12 0,6 6,12 12.0000004,12 0,0 84,0 84,0 6.000004,0 12.000004,-6 12.000004,-12 0,0 0,-12 0,-12 0,-6 -6,-12 -12.000004,-12"
       inkscape:connector-curvature="0" />
    <text
       style="font-size:10px;font-family:sans;text-anchor:middle;stroke:none;stroke-width:0.075;stroke-miterlimit:4;stroke-dasharray:none;stroke-opacity:1"
       id="text269-5-6-6"
       font-size="10.00"
       y="-18.092131"
       x="55.147625">deploy</text>
  </g>
</svg>
